<svg width="516" height="358" viewBox="0 0 516 358" fill="none" xmlns="http://www.w3.org/2000/svg">
<g filter="url(#filter0_d_6_4948)">
<path d="M30 35C30 28.3726 35.3726 23 42 23H474C480.627 23 486 28.3726 486 35V308.391C486 315.019 480.627 320.391 474 320.391H42C35.3726 320.391 30 315.019 30 308.391V35Z" fill="white"/>
</g>
<path d="M141.167 227.633C141.167 226.069 142.435 224.801 143.999 224.801H153.204C154.768 224.801 156.037 226.069 156.037 227.633V230.466C156.037 232.03 154.768 233.298 153.204 233.298H143.999C142.435 233.298 141.167 232.03 141.167 230.466V227.633Z" fill="#FAFAFA"/>
<path d="M158.87 221.261C158.87 219.696 160.138 218.428 161.702 218.428H170.907C172.472 218.428 173.74 219.696 173.74 221.261V230.465C173.74 232.03 172.472 233.298 170.907 233.298H161.702C160.138 233.298 158.87 232.03 158.87 230.465V221.261Z" fill="#FAFAFA"/>
<path d="M176.571 224.801C176.571 223.236 177.839 221.968 179.404 221.968H188.609C190.173 221.968 191.441 223.236 191.441 224.801V230.465C191.441 232.029 190.173 233.297 188.609 233.297H179.404C177.839 233.297 176.571 232.029 176.571 230.465V224.801Z" fill="#FAFAFA"/>
<path d="M194.273 227.633C194.273 226.069 195.542 224.801 197.106 224.801H206.311C207.875 224.801 209.143 226.069 209.143 227.633V230.466C209.143 232.03 207.875 233.298 206.311 233.298H197.106C195.542 233.298 194.273 232.03 194.273 230.466V227.633Z" fill="#FAFAFA"/>
<path d="M211.975 222.677C211.975 221.112 213.243 219.844 214.807 219.844H224.012C225.576 219.844 226.844 221.112 226.844 222.677V230.465C226.844 232.03 225.576 233.298 224.012 233.298H214.807C213.243 233.298 211.975 232.03 211.975 230.465V222.677Z" fill="#FAFAFA"/>
<path d="M229.677 215.596C229.677 214.031 230.945 212.763 232.509 212.763H241.714C243.278 212.763 244.546 214.031 244.546 215.596V230.465C244.546 232.03 243.278 233.298 241.714 233.298H232.509C230.945 233.298 229.677 232.03 229.677 230.465V215.596Z" fill="#FAFAFA"/>
<path d="M247.379 219.136C247.379 217.572 248.647 216.304 250.211 216.304H259.416C260.98 216.304 262.248 217.572 262.248 219.136V230.465C262.248 232.03 260.98 233.298 259.416 233.298H250.211C248.647 233.298 247.379 232.03 247.379 230.465V219.136Z" fill="#FAFAFA"/>
<path d="M265.081 215.596C265.081 214.031 266.349 212.763 267.913 212.763H277.118C278.683 212.763 279.951 214.031 279.951 215.596V230.465C279.951 232.03 278.683 233.298 277.118 233.298H267.913C266.349 233.298 265.081 232.03 265.081 230.465V215.596Z" fill="#FAFAFA"/>
<path d="M282.074 224.801C282.074 223.236 283.342 221.968 284.907 221.968H294.111C295.676 221.968 296.944 223.236 296.944 224.801V230.465C296.944 232.029 295.676 233.297 294.111 233.297H284.907C283.342 233.297 282.074 232.029 282.074 230.465V224.801Z" fill="#FAFAFA"/>
<path d="M299.776 222.677C299.776 221.112 301.044 219.844 302.609 219.844H311.814C313.378 219.844 314.646 221.112 314.646 222.677V230.465C314.646 232.03 313.378 233.298 311.814 233.298H302.609C301.044 233.298 299.776 232.03 299.776 230.465V222.677Z" fill="#FFD6D6"/>
<path d="M317.479 227.633C317.479 226.069 318.747 224.801 320.311 224.801H329.516C331.08 224.801 332.348 226.069 332.348 227.633V230.466C332.348 232.03 331.08 233.298 329.516 233.298H320.311C318.747 233.298 317.479 232.03 317.479 230.466V227.633Z" fill="#FFD6D6"/>
<path d="M334.472 224.801C334.472 223.236 335.74 221.968 337.304 221.968H346.509C348.073 221.968 349.341 223.236 349.341 224.801V230.465C349.341 232.029 348.073 233.297 346.509 233.297H337.304C335.74 233.297 334.472 232.029 334.472 230.465V224.801Z" fill="#FFD6D6"/>
<path d="M352.174 215.596C352.174 214.031 353.442 212.763 355.006 212.763H364.211C365.775 212.763 367.043 214.031 367.043 215.596V230.465C367.043 232.03 365.775 233.298 364.211 233.298H355.006C353.442 233.298 352.174 232.03 352.174 230.465V215.596Z" fill="#FAFAFA"/>
<path d="M405.279 215.596C405.279 214.031 406.547 212.763 408.112 212.763H417.317C418.881 212.763 420.149 214.031 420.149 215.596V230.465C420.149 232.03 418.881 233.298 417.317 233.298H408.112C406.547 233.298 405.279 232.03 405.279 230.465V215.596Z" fill="#FAFAFA"/>
<path d="M456.969 215.596C456.969 214.031 458.237 212.763 459.801 212.763H469.006C470.57 212.763 471.838 214.031 471.838 215.596V230.465C471.838 232.03 470.57 233.298 469.006 233.298H459.801C458.237 233.298 456.969 232.03 456.969 230.465V215.596Z" fill="#FAFAFA"/>
<path d="M369.876 221.261C369.876 219.696 371.144 218.428 372.708 218.428H381.913C383.477 218.428 384.746 219.696 384.746 221.261V230.465C384.746 232.03 383.477 233.298 381.913 233.298H372.708C371.144 233.298 369.876 232.03 369.876 230.465V221.261Z" fill="#FAFAFA"/>
<path d="M422.981 221.261C422.981 219.696 424.25 218.428 425.814 218.428H435.019C436.583 218.428 437.851 219.696 437.851 221.261V230.465C437.851 232.03 436.583 233.298 435.019 233.298H425.814C424.25 233.298 422.981 232.03 422.981 230.465V221.261Z" fill="#FAFAFA"/>
<path d="M387.578 224.801C387.578 223.236 388.846 221.968 390.41 221.968H399.615C401.18 221.968 402.448 223.236 402.448 224.801V230.465C402.448 232.029 401.18 233.297 399.615 233.297H390.41C388.846 233.297 387.578 232.029 387.578 230.465V224.801Z" fill="#FAFAFA"/>
<path d="M440.684 224.801C440.684 223.236 441.952 221.968 443.516 221.968H452.721C454.285 221.968 455.553 223.236 455.553 224.801V230.465C455.553 232.029 454.285 233.297 452.721 233.297H443.516C441.952 233.297 440.684 232.029 440.684 230.465V224.801Z" fill="#FAFAFA"/>
<path d="M148.956 216.658L164.866 210.993L184.714 216.658L201.354 219.844L217.993 212.763L237.465 204.975L254.813 210.993L272.161 203.248L289.863 198.24L306.857 209.508L325.621 199.742L343.677 201.788L360.67 196.737L378.372 209.258L397.49 199.742" stroke="#53E285" stroke-width="0.708075"/>
<path d="M141.167 297.733L162.334 292.068L188.742 276.49L210.881 279.677L233.02 293.838L258.927 286.05L282.008 292.068L305.089 284.323L328.641 279.314L351.251 290.583L376.216 280.817L400.24 282.863L422.85 277.812L446.402 290.333L471.838 280.817" stroke="#53E285" stroke-width="0.708075"/>
<path d="M141.167 303.581L162.334 305.073L188.742 303.581L210.881 306.938L233.02 302.462L258.927 306.192L282.008 302.835L305.089 305.119L328.641 299.096L351.251 303.508L376.216 298.441L400.24 300.597L422.85 299.005L446.402 299.514L471.838 301.425" stroke="#FFB950" stroke-width="0.708075"/>
<path d="M306.857 215.596L325.975 221.261L342.261 218.783" stroke="#FF6F6F" stroke-width="0.708075"/>
<path d="M143.186 122.949L144.283 121.341H143.165L141.621 123.671C141.437 123.947 141.331 124.287 141.331 124.669C141.331 125.682 142.06 126.397 143.122 126.397C144.184 126.397 144.921 125.682 144.921 124.669C144.921 123.678 144.213 122.977 143.186 122.949ZM143.122 125.476C142.662 125.476 142.301 125.172 142.301 124.669C142.301 124.167 142.662 123.869 143.122 123.869C143.583 123.869 143.951 124.174 143.951 124.669C143.951 125.172 143.583 125.476 143.122 125.476ZM145.169 126.298H148.483V125.356H146.621L147.591 124.386C148.058 123.919 148.405 123.402 148.405 122.8C148.405 121.809 147.619 121.242 146.769 121.242C146.097 121.242 145.452 121.582 145.134 122.29L145.955 122.772C146.118 122.418 146.401 122.191 146.784 122.191C147.159 122.191 147.428 122.439 147.428 122.835C147.428 123.168 147.18 123.494 146.861 123.827L145.169 125.569V126.298ZM155.835 123.635H153.349V124.499H154.85C154.68 125.066 154.185 125.441 153.406 125.441C152.372 125.441 151.714 124.747 151.714 123.827C151.714 122.885 152.393 122.191 153.335 122.191C153.937 122.191 154.44 122.481 154.666 122.878L155.502 122.396C155.084 121.717 154.284 121.242 153.342 121.242C151.862 121.242 150.744 122.389 150.744 123.827C150.744 125.243 151.848 126.397 153.399 126.397C154.822 126.397 155.835 125.448 155.835 124.018V123.635ZM159.525 123.728C159.815 123.494 159.992 123.161 159.992 122.736C159.992 121.908 159.319 121.341 158.484 121.341H156.53V126.298H158.633C159.489 126.298 160.176 125.71 160.176 124.86C160.176 124.344 159.921 123.954 159.525 123.728ZM158.484 122.255C158.795 122.255 159.015 122.488 159.015 122.8C159.015 123.112 158.788 123.345 158.484 123.345H157.507V122.255H158.484ZM158.633 125.384H157.507V124.216H158.633C158.965 124.216 159.206 124.464 159.206 124.797C159.206 125.137 158.965 125.384 158.633 125.384Z" fill="#6A6A6A"/>
<rect x="141.169" y="110.801" width="19.118" height="2.8323" rx="1.41615" fill="#F1F1F1"/>
<path d="M141.26 181.528V182.463H143.377L141.749 186.484H142.782L144.461 182.356V181.528H141.26ZM146.407 183.333H145.898L145.961 182.441H147.866V181.528H145.055L144.857 184.282H146.358C146.839 184.282 147.123 184.558 147.123 184.955C147.123 185.359 146.839 185.628 146.33 185.628C145.834 185.628 145.558 185.415 145.437 185.033L144.602 185.521C144.885 186.244 145.558 186.584 146.33 186.584C147.264 186.584 148.1 186.017 148.1 184.955C148.1 183.893 147.314 183.333 146.407 183.333ZM149.787 185.507H148.796L148.513 187.476H149.256L149.787 185.507ZM152.154 183.135L153.252 181.528H152.133L150.59 183.857C150.406 184.134 150.299 184.473 150.299 184.856C150.299 185.868 151.029 186.584 152.091 186.584C153.153 186.584 153.889 185.868 153.889 184.856C153.889 183.864 153.181 183.164 152.154 183.135ZM152.091 185.663C151.63 185.663 151.269 185.359 151.269 184.856C151.269 184.353 151.63 184.056 152.091 184.056C152.551 184.056 152.919 184.36 152.919 184.856C152.919 185.359 152.551 185.663 152.091 185.663ZM158.127 184.735H157.596V183.56H156.612V184.735H155.323L156.966 181.528H155.918L154.268 184.735V185.642H156.612V186.484H157.596V185.642H158.127V184.735ZM160.726 183.539L161.654 182.335V181.528H158.538V182.441H160.478L159.501 183.716L159.877 184.282H160.089C160.599 184.282 160.882 184.558 160.882 184.955C160.882 185.359 160.599 185.628 160.089 185.628C159.622 185.628 159.346 185.422 159.225 185.054L158.39 185.536C158.673 186.244 159.346 186.584 160.089 186.584C161.024 186.584 161.859 186.017 161.859 184.955C161.859 184.226 161.371 183.73 160.726 183.539Z" fill="#6A6A6A"/>
<rect x="141.169" y="170.987" width="19.118" height="2.8323" rx="1.41615" fill="#A5F0BF"/>
<path d="M252.3 121.341L250.997 121.802L251.238 122.637L252.172 122.375V126.298H253.149V121.341H252.3ZM256.759 123.72C257.077 123.494 257.275 123.154 257.275 122.694C257.275 121.738 256.539 121.242 255.668 121.242C254.797 121.242 254.054 121.738 254.054 122.694C254.054 123.154 254.259 123.494 254.571 123.72C254.139 123.982 253.891 124.414 253.891 124.917C253.891 125.831 254.564 126.397 255.668 126.397C256.766 126.397 257.445 125.831 257.445 124.917C257.445 124.414 257.198 123.982 256.759 123.72ZM255.668 122.163C256.036 122.163 256.305 122.375 256.305 122.743C256.305 123.104 256.036 123.331 255.668 123.331C255.3 123.331 255.031 123.104 255.031 122.743C255.031 122.375 255.3 122.163 255.668 122.163ZM255.668 125.476C255.201 125.476 254.861 125.236 254.861 124.79C254.861 124.351 255.201 124.11 255.668 124.11C256.135 124.11 256.475 124.351 256.475 124.79C256.475 125.236 256.135 125.476 255.668 125.476ZM260.057 123.352L260.984 122.149V121.341H257.869V122.255H259.809L258.832 123.529L259.207 124.096H259.419C259.929 124.096 260.212 124.372 260.212 124.768C260.212 125.172 259.929 125.441 259.419 125.441C258.952 125.441 258.676 125.236 258.556 124.868L257.72 125.349C258.003 126.057 258.676 126.397 259.419 126.397C260.354 126.397 261.19 125.831 261.19 124.768C261.19 124.039 260.701 123.543 260.057 123.352ZM262.899 125.321H261.907L261.624 127.289H262.368L262.899 125.321ZM265.266 122.949L266.364 121.341H265.245L263.701 123.671C263.517 123.947 263.411 124.287 263.411 124.669C263.411 125.682 264.14 126.397 265.202 126.397C266.264 126.397 267.001 125.682 267.001 124.669C267.001 123.678 266.293 122.977 265.266 122.949ZM265.202 125.476C264.742 125.476 264.381 125.172 264.381 124.669C264.381 124.167 264.742 123.869 265.202 123.869C265.663 123.869 266.031 124.174 266.031 124.669C266.031 125.172 265.663 125.476 265.202 125.476ZM269.627 123.352L270.554 122.149V121.341H267.439V122.255H269.379L268.402 123.529L268.777 124.096H268.989C269.499 124.096 269.782 124.372 269.782 124.768C269.782 125.172 269.499 125.441 268.989 125.441C268.522 125.441 268.246 125.236 268.126 124.868L267.29 125.349C267.573 126.057 268.246 126.397 268.989 126.397C269.924 126.397 270.76 125.831 270.76 124.768C270.76 124.039 270.271 123.543 269.627 123.352ZM271.078 121.341V122.276H273.195L271.566 126.298H272.6L274.278 122.17V121.341H271.078Z" fill="#6A6A6A"/>
<rect x="250.211" y="110.801" width="19.118" height="2.8323" rx="1.41615" fill="#F1F1F1"/>
<path d="M262.922 181.528L261.619 181.988L261.86 182.824L262.794 182.562V186.484H263.771V181.528H262.922ZM264.47 186.484H267.784V185.543H265.922L266.892 184.573C267.359 184.105 267.706 183.588 267.706 182.986C267.706 181.995 266.92 181.429 266.071 181.429C265.398 181.429 264.754 181.769 264.435 182.477L265.256 182.958C265.419 182.604 265.703 182.378 266.085 182.378C266.46 182.378 266.729 182.625 266.729 183.022C266.729 183.355 266.481 183.68 266.163 184.013L264.47 185.755V186.484Z" fill="#6A6A6A"/>
<rect x="260.833" y="170.987" width="19.118" height="2.8323" rx="1.41615" fill="#F1F1F1"/>
<path d="M195.073 121.341V122.276H197.191L195.562 126.298H196.596L198.274 122.17V121.341H195.073ZM200.221 123.147H199.711L199.775 122.255H201.68V121.341H198.868L198.67 124.096H200.171C200.653 124.096 200.936 124.372 200.936 124.768C200.936 125.172 200.653 125.441 200.143 125.441C199.647 125.441 199.371 125.229 199.251 124.846L198.415 125.335C198.699 126.057 199.371 126.397 200.143 126.397C201.078 126.397 201.913 125.831 201.913 124.768C201.913 123.706 201.127 123.147 200.221 123.147ZM203.601 125.321H202.609L202.326 127.289H203.07L203.601 125.321ZM205.968 122.949L207.065 121.341H205.947L204.403 123.671C204.219 123.947 204.113 124.287 204.113 124.669C204.113 125.682 204.842 126.397 205.904 126.397C206.966 126.397 207.703 125.682 207.703 124.669C207.703 123.678 206.995 122.977 205.968 122.949ZM205.904 125.476C205.444 125.476 205.083 125.172 205.083 124.669C205.083 124.167 205.444 123.869 205.904 123.869C206.364 123.869 206.733 124.174 206.733 124.669C206.733 125.172 206.364 125.476 205.904 125.476ZM211.941 124.549H211.409V123.374H210.425V124.549H209.137L210.779 121.341H209.731L208.082 124.549V125.455H210.425V126.298H211.409V125.455H211.941V124.549ZM214.54 123.352L215.467 122.149V121.341H212.352V122.255H214.292L213.315 123.529L213.69 124.096H213.902C214.412 124.096 214.696 124.372 214.696 124.768C214.696 125.172 214.412 125.441 213.902 125.441C213.435 125.441 213.159 125.236 213.039 124.868L212.203 125.349C212.486 126.057 213.159 126.397 213.902 126.397C214.837 126.397 215.673 125.831 215.673 124.768C215.673 124.039 215.184 123.543 214.54 123.352Z" fill="#6A6A6A"/>
<rect x="194.981" y="110.801" width="19.118" height="2.8323" rx="1.41615" fill="#F1F1F1"/>
<path d="M204.562 183.539L205.49 182.335V181.528H202.374V182.441H204.314L203.337 183.716L203.712 184.282H203.925C204.435 184.282 204.718 184.558 204.718 184.955C204.718 185.359 204.435 185.628 203.925 185.628C203.457 185.628 203.181 185.422 203.061 185.054L202.225 185.536C202.509 186.244 203.181 186.584 203.925 186.584C204.859 186.584 205.695 186.017 205.695 184.955C205.695 184.226 205.206 183.73 204.562 183.539Z" fill="#6A6A6A"/>
<rect x="202.062" y="170.987" width="19.118" height="2.8323" rx="1.41615" fill="#FFA0A0"/>
<path d="M312.083 123.72C312.401 123.494 312.6 123.154 312.6 122.694C312.6 121.738 311.863 121.242 310.992 121.242C310.121 121.242 309.378 121.738 309.378 122.694C309.378 123.154 309.583 123.494 309.895 123.72C309.463 123.982 309.215 124.414 309.215 124.917C309.215 125.831 309.888 126.397 310.992 126.397C312.09 126.397 312.77 125.831 312.77 124.917C312.77 124.414 312.522 123.982 312.083 123.72ZM310.992 122.163C311.361 122.163 311.63 122.375 311.63 122.743C311.63 123.104 311.361 123.331 310.992 123.331C310.624 123.331 310.355 123.104 310.355 122.743C310.355 122.375 310.624 122.163 310.992 122.163ZM310.992 125.476C310.525 125.476 310.185 125.236 310.185 124.79C310.185 124.351 310.525 124.11 310.992 124.11C311.46 124.11 311.8 124.351 311.8 124.79C311.8 125.236 311.46 125.476 310.992 125.476ZM315.381 123.352L316.308 122.149V121.341H313.193V122.255H315.133L314.156 123.529L314.531 124.096H314.744C315.253 124.096 315.537 124.372 315.537 124.768C315.537 125.172 315.253 125.441 314.744 125.441C314.276 125.441 314 125.236 313.88 124.868L313.044 125.349C313.327 126.057 314 126.397 314.744 126.397C315.678 126.397 316.514 125.831 316.514 124.768C316.514 124.039 316.025 123.543 315.381 123.352ZM318.758 122.949L319.855 121.341H318.737L317.193 123.671C317.009 123.947 316.903 124.287 316.903 124.669C316.903 125.682 317.632 126.397 318.694 126.397C319.756 126.397 320.493 125.682 320.493 124.669C320.493 123.678 319.785 122.977 318.758 122.949ZM318.694 125.476C318.234 125.476 317.873 125.172 317.873 124.669C317.873 124.167 318.234 123.869 318.694 123.869C319.154 123.869 319.523 124.174 319.523 124.669C319.523 125.172 319.154 125.476 318.694 125.476ZM322.137 125.321H321.146L320.862 127.289H321.606L322.137 125.321ZM322.677 126.298H325.991V125.356H324.129L325.099 124.386C325.566 123.919 325.913 123.402 325.913 122.8C325.913 121.809 325.127 121.242 324.277 121.242C323.605 121.242 322.96 121.582 322.642 122.29L323.463 122.772C323.626 122.418 323.909 122.191 324.292 122.191C324.667 122.191 324.936 122.439 324.936 122.835C324.936 123.168 324.688 123.494 324.37 123.827L322.677 125.569V126.298ZM328.14 123.147H327.631L327.694 122.255H329.599V121.341H326.788L326.59 124.096H328.091C328.572 124.096 328.856 124.372 328.856 124.768C328.856 125.172 328.572 125.441 328.063 125.441C327.567 125.441 327.291 125.229 327.17 124.846L326.335 125.335C326.618 126.057 327.291 126.397 328.063 126.397C328.997 126.397 329.833 125.831 329.833 124.768C329.833 123.706 329.047 123.147 328.14 123.147ZM334.045 124.549H333.514V123.374H332.529V124.549H331.241L332.883 121.341H331.835L330.186 124.549V125.455H332.529V126.298H333.514V125.455H334.045V124.549Z" fill="#6A6A6A"/>
<rect x="308.982" y="110.801" width="19.118" height="2.8323" rx="1.41615" fill="#F1F1F1"/>
<path d="M322.704 183.907C323.023 183.68 323.221 183.341 323.221 182.88C323.221 181.924 322.484 181.429 321.613 181.429C320.743 181.429 319.999 181.924 319.999 182.88C319.999 183.341 320.204 183.68 320.516 183.907C320.084 184.169 319.836 184.601 319.836 185.104C319.836 186.017 320.509 186.584 321.613 186.584C322.711 186.584 323.391 186.017 323.391 185.104C323.391 184.601 323.143 184.169 322.704 183.907ZM321.613 182.349C321.982 182.349 322.251 182.562 322.251 182.93C322.251 183.291 321.982 183.518 321.613 183.518C321.245 183.518 320.976 183.291 320.976 182.93C320.976 182.562 321.245 182.349 321.613 182.349ZM321.613 185.663C321.146 185.663 320.806 185.422 320.806 184.976C320.806 184.537 321.146 184.296 321.613 184.296C322.081 184.296 322.421 184.537 322.421 184.976C322.421 185.422 322.081 185.663 321.613 185.663ZM327.38 183.149C327.38 182.137 326.65 181.429 325.581 181.429C324.526 181.429 323.79 182.137 323.79 183.149C323.79 184.148 324.505 184.849 325.532 184.87L324.427 186.484H325.546L327.089 184.155H327.082C327.274 183.879 327.38 183.532 327.38 183.149ZM324.76 183.149C324.76 182.654 325.128 182.349 325.581 182.349C326.049 182.349 326.41 182.647 326.41 183.149C326.41 183.652 326.049 183.957 325.581 183.957C325.128 183.957 324.76 183.652 324.76 183.149ZM333.644 182.845C333.163 182.845 332.809 183.036 332.589 183.355C332.391 183.029 332.065 182.845 331.626 182.845C331.173 182.845 330.84 183.022 330.642 183.319V182.944H329.729V186.484H330.642V184.495C330.642 183.964 330.918 183.695 331.308 183.695C331.69 183.695 331.902 183.949 331.902 184.367V186.484H332.816V184.495C332.816 183.964 333.071 183.695 333.474 183.695C333.857 183.695 334.069 183.949 334.069 184.367V186.484H334.983V184.304C334.983 183.418 334.452 182.845 333.644 182.845ZM336.601 183.949C336.601 183.758 336.785 183.659 337.012 183.659C337.274 183.659 337.472 183.794 337.578 184.02L338.357 183.595C338.081 183.107 337.585 182.845 337.012 182.845C336.282 182.845 335.666 183.248 335.666 183.971C335.666 185.217 337.493 184.934 337.493 185.451C337.493 185.656 337.295 185.755 337.005 185.755C336.651 185.755 336.41 185.585 336.311 185.295L335.518 185.741C335.773 186.286 336.297 186.584 337.005 186.584C337.762 186.584 338.428 186.215 338.428 185.451C338.428 184.148 336.601 184.473 336.601 183.949Z" fill="#6A6A6A"/>
<rect x="319.603" y="170.987" width="19.118" height="2.8323" rx="1.41615" fill="#F1F1F1"/>
<rect opacity="0.05" x="141.167" y="139.124" width="330.671" height="0.708075" fill="black"/>
<rect opacity="0.05" x="141.167" y="247.459" width="330.671" height="0.708075" fill="black"/>
<rect x="456.969" y="153.993" width="14.8696" height="2.8323" rx="1.41615" fill="#ABD2FF"/>
<rect x="456.969" y="262.329" width="14.8696" height="2.8323" rx="1.41615" fill="#ABD2FF"/>
<rect x="439.267" y="153.993" width="14.8696" height="2.8323" rx="1.41615" fill="#ABD2FF"/>
<rect x="439.267" y="262.329" width="14.8696" height="2.8323" rx="1.41615" fill="#ABD2FF"/>
<rect x="456.969" y="88.1421" width="14.8696" height="2.8323" rx="1.41615" fill="#ABD2FF"/>
<g filter="url(#filter1_d_6_4948)">
<path d="M30 68.3162H127.006V320.391H42C35.3726 320.391 30 315.018 30 308.391V68.3162Z" fill="white"/>
</g>
<rect x="38.4971" y="114.341" width="38.236" height="4.24845" rx="1.41615" fill="#F1F1F1"/>
<rect x="38.4971" y="127.087" width="59.4783" height="4.24845" rx="1.41615" fill="#F1F1F1"/>
<rect x="38.4971" y="139.832" width="50.2733" height="4.24845" rx="1.41615" fill="#F1F1F1"/>
<rect x="38.4971" y="152.577" width="68.6832" height="4.24845" rx="1.41615" fill="#F1F1F1"/>
<rect x="38.4971" y="165.323" width="59.4783" height="4.24845" rx="1.41615" fill="#F1F1F1"/>
<rect x="38.4971" y="178.068" width="50.2733" height="4.24845" rx="1.41615" fill="#F1F1F1"/>
<path d="M42.1437 89.4778H43.2058L41.4639 84.5213H40.2531L38.5183 89.4778H39.5733L39.8707 88.5856H41.8463L42.1437 89.4778ZM40.1823 87.6722L40.862 85.6471L41.5418 87.6722H40.1823ZM45.705 85.8383C45.1882 85.8383 44.8129 86.0295 44.558 86.3552V85.9374H43.6446V90.8939H44.558V89.06C44.8129 89.3857 45.1882 89.5769 45.705 89.5769C46.6539 89.5769 47.4327 88.7626 47.4327 87.7076C47.4327 86.6526 46.6539 85.8383 45.705 85.8383ZM45.5351 88.706C44.9757 88.706 44.558 88.3024 44.558 87.7076C44.558 87.1128 44.9757 86.7092 45.5351 86.7092C46.1016 86.7092 46.5193 87.1128 46.5193 87.7076C46.5193 88.3024 46.1016 88.706 45.5351 88.706ZM50.1374 85.8383C49.6205 85.8383 49.2453 86.0295 48.9903 86.3552V85.9374H48.0769V90.8939H48.9903V89.06C49.2453 89.3857 49.6205 89.5769 50.1374 89.5769C51.0862 89.5769 51.8651 88.7626 51.8651 87.7076C51.8651 86.6526 51.0862 85.8383 50.1374 85.8383ZM49.9675 88.706C49.4081 88.706 48.9903 88.3024 48.9903 87.7076C48.9903 87.1128 49.4081 86.7092 49.9675 86.7092C50.5339 86.7092 50.9517 87.1128 50.9517 87.7076C50.9517 88.3024 50.5339 88.706 49.9675 88.706ZM52.5093 89.4778H53.4227V84.3088H52.5093V89.4778ZM54.7119 85.5126C55.0235 85.5126 55.2784 85.2577 55.2784 84.9532C55.2784 84.6487 55.0235 84.3867 54.7119 84.3867C54.4074 84.3867 54.1525 84.6487 54.1525 84.9532C54.1525 85.2577 54.4074 85.5126 54.7119 85.5126ZM54.2588 89.4778H55.1722V85.9374H54.2588V89.4778ZM57.6934 89.5769C58.3873 89.5769 58.9892 89.2087 59.2937 88.6564L58.5006 88.2032C58.359 88.4936 58.0545 88.6706 57.6863 88.6706C57.1411 88.6706 56.7375 88.267 56.7375 87.7076C56.7375 87.1411 57.1411 86.7375 57.6863 86.7375C58.0474 86.7375 58.3519 86.9216 58.4935 87.2119L59.2795 86.7517C58.9892 86.2065 58.3873 85.8383 57.6934 85.8383C56.6171 85.8383 55.8241 86.6526 55.8241 87.7076C55.8241 88.7626 56.6171 89.5769 57.6934 89.5769ZM62.4121 85.9374V86.3552C62.1572 86.0365 61.7749 85.8383 61.258 85.8383C60.3162 85.8383 59.5373 86.6526 59.5373 87.7076C59.5373 88.7626 60.3162 89.5769 61.258 89.5769C61.7749 89.5769 62.1572 89.3787 62.4121 89.06V89.4778H63.3255V85.9374H62.4121ZM61.4279 88.706C60.8685 88.706 60.4508 88.3024 60.4508 87.7076C60.4508 87.1128 60.8685 86.7092 61.4279 86.7092C61.9944 86.7092 62.4121 87.1128 62.4121 87.7076C62.4121 88.3024 61.9944 88.706 61.4279 88.706ZM66.1789 86.8154V85.9374H65.3788V84.9461L64.4654 85.2223V85.9374H63.8493V86.8154H64.4654V88.2882C64.4654 89.2441 64.8973 89.6194 66.1789 89.4778V88.6493C65.6549 88.6777 65.3788 88.6706 65.3788 88.2882V86.8154H66.1789ZM67.2761 85.5126C67.5876 85.5126 67.8426 85.2577 67.8426 84.9532C67.8426 84.6487 67.5876 84.3867 67.2761 84.3867C66.9716 84.3867 66.7167 84.6487 66.7167 84.9532C66.7167 85.2577 66.9716 85.5126 67.2761 85.5126ZM66.8229 89.4778H67.7363V85.9374H66.8229V89.4778ZM70.2576 89.5769C71.2985 89.5769 72.134 88.7626 72.134 87.7076C72.134 86.6526 71.2985 85.8383 70.2576 85.8383C69.2167 85.8383 68.3883 86.6526 68.3883 87.7076C68.3883 88.7626 69.2167 89.5769 70.2576 89.5769ZM70.2576 88.6847C69.7194 88.6847 69.3017 88.2811 69.3017 87.7076C69.3017 87.1341 69.7194 86.7305 70.2576 86.7305C70.8028 86.7305 71.2206 87.1341 71.2206 87.7076C71.2206 88.2811 70.8028 88.6847 70.2576 88.6847ZM74.745 85.8383C74.2706 85.8383 73.9024 86.0153 73.69 86.3339V85.9374H72.7766V89.4778H73.69V87.566C73.69 86.95 74.0228 86.688 74.4689 86.688C74.8795 86.688 75.1699 86.9358 75.1699 87.4173V89.4778H76.0833V87.304C76.0833 86.3623 75.4956 85.8383 74.745 85.8383Z" fill="#222222"/>
<path d="M144.814 89.4778H145.876L144.134 84.5213H142.923L141.188 89.4778H142.243L142.541 88.5856H144.516L144.814 89.4778ZM142.852 87.6722L143.532 85.6471L144.212 87.6722H142.852ZM148.283 85.8383C147.809 85.8383 147.44 86.0153 147.228 86.3339V85.9374H146.314V89.4778H147.228V87.566C147.228 86.95 147.561 86.688 148.007 86.688C148.417 86.688 148.708 86.9358 148.708 87.4173V89.4778H149.621V87.304C149.621 86.3623 149.033 85.8383 148.283 85.8383ZM153.092 85.9374V86.3552C152.837 86.0365 152.455 85.8383 151.938 85.8383C150.996 85.8383 150.217 86.6526 150.217 87.7076C150.217 88.7626 150.996 89.5769 151.938 89.5769C152.455 89.5769 152.837 89.3787 153.092 89.06V89.4778H154.005V85.9374H153.092ZM152.108 88.706C151.548 88.706 151.13 88.3024 151.13 87.7076C151.13 87.1128 151.548 86.7092 152.108 86.7092C152.674 86.7092 153.092 87.1128 153.092 87.7076C153.092 88.3024 152.674 88.706 152.108 88.706ZM154.833 89.4778H155.747V84.3088H154.833V89.4778ZM158.891 85.9374L158.105 88.3165L157.185 85.9374H156.186L157.638 89.3645C157.468 89.8389 157.213 90.0513 156.71 90.0442V90.8939C157.61 90.9435 158.212 90.4974 158.58 89.4778L159.868 85.9374H158.891ZM162.328 86.8154V85.9374H161.528V84.9461L160.615 85.2223V85.9374H159.999V86.8154H160.615V88.2882C160.615 89.2441 161.047 89.6194 162.328 89.4778V88.6493C161.804 88.6777 161.528 88.6706 161.528 88.2882V86.8154H162.328ZM163.425 85.5126C163.737 85.5126 163.992 85.2577 163.992 84.9532C163.992 84.6487 163.737 84.3867 163.425 84.3867C163.121 84.3867 162.866 84.6487 162.866 84.9532C162.866 85.2577 163.121 85.5126 163.425 85.5126ZM162.972 89.4778H163.886V85.9374H162.972V89.4778ZM166.407 89.5769C167.101 89.5769 167.703 89.2087 168.007 88.6564L167.214 88.2032C167.072 88.4936 166.768 88.6706 166.4 88.6706C165.855 88.6706 165.451 88.267 165.451 87.7076C165.451 87.1411 165.855 86.7375 166.4 86.7375C166.761 86.7375 167.065 86.9216 167.207 87.2119L167.993 86.7517C167.703 86.2065 167.101 85.8383 166.407 85.8383C165.331 85.8383 164.538 86.6526 164.538 87.7076C164.538 88.7626 165.331 89.5769 166.407 89.5769ZM169.326 86.9429C169.326 86.7517 169.51 86.6526 169.737 86.6526C169.999 86.6526 170.197 86.7871 170.303 87.0137L171.082 86.5888C170.806 86.1003 170.31 85.8383 169.737 85.8383C169.007 85.8383 168.391 86.2419 168.391 86.9641C168.391 88.2103 170.218 87.9271 170.218 88.444C170.218 88.6493 170.02 88.7485 169.73 88.7485C169.375 88.7485 169.135 88.5785 169.036 88.2882L168.243 88.7343C168.497 89.2795 169.021 89.5769 169.73 89.5769C170.487 89.5769 171.153 89.2087 171.153 88.444C171.153 87.1411 169.326 87.4669 169.326 86.9429Z" fill="#222222"/>
<path d="M144.814 158.161H145.876L144.134 153.205H142.923L141.188 158.161H142.243L142.541 157.269H144.516L144.814 158.161ZM142.852 156.356L143.532 154.33L144.212 156.356H142.852ZM148.205 153.205H146.357V158.161H147.334V156.533H148.205C149.161 156.533 149.897 155.796 149.897 154.869C149.897 153.941 149.161 153.205 148.205 153.205ZM148.205 155.619H147.334V154.118H148.205C148.623 154.118 148.927 154.437 148.927 154.869C148.927 155.293 148.623 155.619 148.205 155.619ZM150.533 153.205V158.161H151.511V153.205H150.533ZM156.917 158.161H157.972L156.875 156.292C157.441 156.03 157.831 155.47 157.831 154.847C157.831 153.941 157.094 153.205 156.181 153.205H154.198V158.161H155.175V156.441H155.919L156.917 158.161ZM155.175 154.118H156.181C156.549 154.118 156.854 154.437 156.854 154.847C156.854 155.258 156.549 155.584 156.181 155.584H155.175V154.118ZM159.097 156.766H161.767C161.788 156.646 161.802 156.525 161.802 156.391C161.802 155.35 161.059 154.522 160.011 154.522C158.899 154.522 158.141 155.336 158.141 156.391C158.141 157.446 158.892 158.26 160.081 158.26C160.761 158.26 161.292 157.984 161.625 157.503L160.889 157.078C160.733 157.283 160.45 157.432 160.096 157.432C159.614 157.432 159.225 157.234 159.097 156.766ZM159.083 156.058C159.189 155.605 159.522 155.343 160.011 155.343C160.393 155.343 160.775 155.548 160.889 156.058H159.083ZM165.096 154.621V155.039C164.841 154.713 164.466 154.522 163.949 154.522C163 154.522 162.221 155.336 162.221 156.391C162.221 157.446 163 158.26 163.949 158.26C164.466 158.26 164.841 158.069 165.096 157.743V159.577H166.009V154.621H165.096ZM164.119 157.389C163.552 157.389 163.134 156.986 163.134 156.391C163.134 155.796 163.552 155.393 164.119 155.393C164.678 155.393 165.096 155.796 165.096 156.391C165.096 156.986 164.678 157.389 164.119 157.389ZM169.181 154.621V156.533C169.181 157.149 168.848 157.411 168.402 157.411C167.992 157.411 167.701 157.163 167.701 156.681V154.621H166.788V156.795C166.788 157.736 167.376 158.26 168.126 158.26C168.601 158.26 168.969 158.083 169.181 157.765V158.161H170.095V154.621H169.181ZM171.703 156.766H174.372C174.394 156.646 174.408 156.525 174.408 156.391C174.408 155.35 173.664 154.522 172.616 154.522C171.505 154.522 170.747 155.336 170.747 156.391C170.747 157.446 171.498 158.26 172.687 158.26C173.367 158.26 173.898 157.984 174.231 157.503L173.494 157.078C173.339 157.283 173.055 157.432 172.701 157.432C172.22 157.432 171.83 157.234 171.703 156.766ZM171.689 156.058C171.795 155.605 172.128 155.343 172.616 155.343C172.999 155.343 173.381 155.548 173.494 156.058H171.689ZM175.75 155.626C175.75 155.435 175.934 155.336 176.16 155.336C176.422 155.336 176.621 155.47 176.727 155.697L177.506 155.272C177.23 154.784 176.734 154.522 176.16 154.522C175.431 154.522 174.815 154.925 174.815 155.647C174.815 156.894 176.642 156.61 176.642 157.127C176.642 157.333 176.444 157.432 176.153 157.432C175.799 157.432 175.559 157.262 175.459 156.972L174.666 157.418C174.921 157.963 175.445 158.26 176.153 158.26C176.911 158.26 177.577 157.892 177.577 157.127C177.577 155.824 175.75 156.15 175.75 155.626ZM180.085 155.499V154.621H179.285V153.629L178.372 153.906V154.621H177.756V155.499H178.372V156.972C178.372 157.927 178.804 158.303 180.085 158.161V157.333C179.561 157.361 179.285 157.354 179.285 156.972V155.499H180.085ZM181.496 155.626C181.496 155.435 181.68 155.336 181.907 155.336C182.169 155.336 182.367 155.47 182.473 155.697L183.252 155.272C182.976 154.784 182.48 154.522 181.907 154.522C181.177 154.522 180.561 154.925 180.561 155.647C180.561 156.894 182.388 156.61 182.388 157.127C182.388 157.333 182.19 157.432 181.9 157.432C181.545 157.432 181.305 157.262 181.206 156.972L180.413 157.418C180.667 157.963 181.191 158.26 181.9 158.26C182.657 158.26 183.323 157.892 183.323 157.127C183.323 155.824 181.496 156.15 181.496 155.626Z" fill="#222222"/>
<path d="M143.971 266.595C145.401 266.595 146.548 265.463 146.548 264.018C146.548 262.567 145.401 261.441 143.971 261.441C142.541 261.441 141.401 262.567 141.401 264.018C141.401 265.463 142.541 266.595 143.971 266.595ZM143.971 265.64C143.072 265.64 142.371 264.967 142.371 264.018C142.371 263.062 143.072 262.39 143.971 262.39C144.87 262.39 145.571 263.062 145.571 264.018C145.571 264.967 144.87 265.64 143.971 265.64ZM149.564 262.956V264.868C149.564 265.484 149.231 265.746 148.785 265.746C148.374 265.746 148.084 265.498 148.084 265.016V262.956H147.171V265.13C147.171 266.071 147.758 266.595 148.509 266.595C148.983 266.595 149.351 266.418 149.564 266.1V266.496H150.477V262.956H149.564ZM153.339 263.834V262.956H152.539V261.965L151.625 262.241V262.956H151.009V263.834H151.625V265.307C151.625 266.263 152.057 266.638 153.339 266.496V265.668C152.815 265.696 152.539 265.689 152.539 265.307V263.834H153.339ZM156.043 262.857C155.527 262.857 155.151 263.048 154.896 263.374V261.54H153.983V266.496H154.896V266.079C155.151 266.404 155.527 266.595 156.043 266.595C156.992 266.595 157.771 265.781 157.771 264.726C157.771 263.671 156.992 262.857 156.043 262.857ZM155.874 265.725C155.314 265.725 154.896 265.321 154.896 264.726C154.896 264.131 155.314 263.728 155.874 263.728C156.44 263.728 156.858 264.131 156.858 264.726C156.858 265.321 156.44 265.725 155.874 265.725ZM160.101 266.595C161.141 266.595 161.977 265.781 161.977 264.726C161.977 263.671 161.141 262.857 160.101 262.857C159.06 262.857 158.231 263.671 158.231 264.726C158.231 265.781 159.06 266.595 160.101 266.595ZM160.101 265.703C159.562 265.703 159.145 265.3 159.145 264.726C159.145 264.153 159.562 263.749 160.101 263.749C160.646 263.749 161.064 264.153 161.064 264.726C161.064 265.3 160.646 265.703 160.101 265.703ZM164.956 262.956V264.868C164.956 265.484 164.623 265.746 164.177 265.746C163.767 265.746 163.476 265.498 163.476 265.016V262.956H162.563V265.13C162.563 266.071 163.151 266.595 163.901 266.595C164.376 266.595 164.744 266.418 164.956 266.1V266.496H165.87V262.956H164.956ZM168.675 262.857C168.2 262.857 167.832 263.034 167.62 263.352V262.956H166.706V266.496H167.62V264.585C167.62 263.969 167.952 263.707 168.398 263.707C168.809 263.707 169.099 263.954 169.099 264.436V266.496H170.013V264.323C170.013 263.381 169.425 262.857 168.675 262.857ZM173.476 261.54V263.374C173.222 263.048 172.846 262.857 172.329 262.857C171.381 262.857 170.602 263.671 170.602 264.726C170.602 265.781 171.381 266.595 172.329 266.595C172.846 266.595 173.222 266.404 173.476 266.079V266.496H174.39V261.54H173.476ZM172.499 265.725C171.933 265.725 171.515 265.321 171.515 264.726C171.515 264.131 171.933 263.728 172.499 263.728C173.059 263.728 173.476 264.131 173.476 264.726C173.476 265.321 173.059 265.725 172.499 265.725ZM180.033 263.926C180.323 263.692 180.5 263.36 180.5 262.935C180.5 262.106 179.828 261.54 178.992 261.54H177.038V266.496H179.141C179.998 266.496 180.684 265.909 180.684 265.059C180.684 264.542 180.43 264.153 180.033 263.926ZM178.992 262.453C179.304 262.453 179.523 262.687 179.523 262.998C179.523 263.31 179.297 263.544 178.992 263.544H178.015V262.453H178.992ZM179.141 265.583H178.015V264.415H179.141C179.474 264.415 179.714 264.662 179.714 264.995C179.714 265.335 179.474 265.583 179.141 265.583ZM184.029 262.956V263.374C183.774 263.055 183.391 262.857 182.874 262.857C181.933 262.857 181.154 263.671 181.154 264.726C181.154 265.781 181.933 266.595 182.874 266.595C183.391 266.595 183.774 266.397 184.029 266.079V266.496H184.942V262.956H184.029ZM183.044 265.725C182.485 265.725 182.067 265.321 182.067 264.726C182.067 264.131 182.485 263.728 183.044 263.728C183.611 263.728 184.029 264.131 184.029 264.726C184.029 265.321 183.611 265.725 183.044 265.725ZM187.739 262.857C187.264 262.857 186.896 263.034 186.684 263.352V262.956H185.77V266.496H186.684V264.585C186.684 263.969 187.016 263.707 187.463 263.707C187.873 263.707 188.164 263.954 188.164 264.436V266.496H189.077V264.323C189.077 263.381 188.489 262.857 187.739 262.857ZM192.541 261.54V263.374C192.286 263.048 191.91 262.857 191.393 262.857C190.445 262.857 189.666 263.671 189.666 264.726C189.666 265.781 190.445 266.595 191.393 266.595C191.91 266.595 192.286 266.404 192.541 266.079V266.496H193.454V261.54H192.541ZM191.563 265.725C190.997 265.725 190.579 265.321 190.579 264.726C190.579 264.131 190.997 263.728 191.563 263.728C192.123 263.728 192.541 264.131 192.541 264.726C192.541 265.321 192.123 265.725 191.563 265.725ZM198.276 262.956L197.674 265.137L197.03 262.956H196.166L195.521 265.13L194.919 262.956H193.949L195.075 266.496H195.946L196.598 264.351L197.249 266.496H198.12L199.246 262.956H198.276ZM200.191 262.531C200.503 262.531 200.758 262.276 200.758 261.972C200.758 261.667 200.503 261.405 200.191 261.405C199.887 261.405 199.632 261.667 199.632 261.972C199.632 262.276 199.887 262.531 200.191 262.531ZM199.738 266.496H200.652V262.956H199.738V266.496ZM204.171 261.54V263.374C203.916 263.048 203.541 262.857 203.024 262.857C202.075 262.857 201.296 263.671 201.296 264.726C201.296 265.781 202.075 266.595 203.024 266.595C203.541 266.595 203.916 266.404 204.171 266.079V266.496H205.085V261.54H204.171ZM203.194 265.725C202.628 265.725 202.21 265.321 202.21 264.726C202.21 264.131 202.628 263.728 203.194 263.728C203.753 263.728 204.171 264.131 204.171 264.726C204.171 265.321 203.753 265.725 203.194 265.725ZM207.945 263.834V262.956H207.145V261.965L206.232 262.241V262.956H205.615V263.834H206.232V265.307C206.232 266.263 206.663 266.638 207.945 266.496V265.668C207.421 265.696 207.145 265.689 207.145 265.307V263.834H207.945ZM210.558 262.857C210.083 262.857 209.715 263.034 209.502 263.352V261.54H208.589V266.496H209.502V264.585C209.502 263.969 209.835 263.707 210.281 263.707C210.692 263.707 210.982 263.954 210.982 264.436V266.496H211.896V264.323C211.896 263.381 211.308 262.857 210.558 262.857Z" fill="#222222"/>
<rect x="141.167" y="96.6396" width="65.8509" height="2.8323" rx="1.41615" fill="#F1F1F1"/>
<path d="M39.3468 98.4333V94.8419H38.9502V98.8071H41.1594V98.4333H39.3468ZM42.8466 98.8751C43.6736 98.8751 44.3364 98.2293 44.3364 97.391C44.3364 96.5526 43.6736 95.9069 42.8466 95.9069C42.0196 95.9069 41.3568 96.5526 41.3568 97.391C41.3568 98.2293 42.0196 98.8751 42.8466 98.8751ZM42.8466 98.5126C42.2178 98.5126 41.7307 98.0197 41.7307 97.391C41.7307 96.7622 42.2178 96.2694 42.8466 96.2694C43.4754 96.2694 43.9625 96.7622 43.9625 97.391C43.9625 98.0197 43.4754 98.5126 42.8466 98.5126ZM45.3359 96.445V95.9748H44.962V98.8071H45.3359V97.2324C45.3359 96.53 45.7777 96.292 46.2309 96.292V95.9295C45.8683 95.9295 45.5341 96.0485 45.3359 96.445ZM47.8803 95.9069C47.0023 95.9069 46.4018 96.5583 46.4018 97.391C46.4018 98.2463 47.0136 98.8751 47.9086 98.8751C48.4807 98.8751 48.9169 98.6089 49.1548 98.2237L48.8263 98.0311C48.6733 98.303 48.3618 98.5126 47.9143 98.5126C47.3138 98.5126 46.8663 98.1557 46.787 97.5779H49.2738C49.2795 97.5213 49.2851 97.459 49.2851 97.4023C49.2851 96.6263 48.747 95.9069 47.8803 95.9069ZM47.8803 96.2694C48.3675 96.2694 48.8206 96.5923 48.8999 97.2154H46.787C46.8607 96.6602 47.2855 96.2694 47.8803 96.2694ZM52.899 95.9069C52.5365 95.9069 52.191 96.0711 51.9814 96.4223C51.8228 96.0938 51.5169 95.9069 51.1204 95.9069C50.7805 95.9069 50.4746 96.0428 50.2537 96.3883V95.9748H49.8798V98.8071H50.2537V97.238C50.2537 96.5356 50.6615 96.2694 51.0694 96.2694C51.4716 96.2694 51.7321 96.5356 51.7321 97.0398V98.8071H52.106V97.238C52.106 96.5356 52.4572 96.2694 52.8934 96.2694C53.2956 96.2694 53.5845 96.5356 53.5845 97.0398V98.8071H53.9583V97.0398C53.9583 96.3317 53.5221 95.9069 52.899 95.9069ZM56.2845 95.3744C56.4375 95.3744 56.5564 95.2498 56.5564 95.1025C56.5564 94.9552 56.4375 94.8306 56.2845 94.8306C56.1316 94.8306 56.0126 94.9552 56.0126 95.1025C56.0126 95.2498 56.1316 95.3744 56.2845 95.3744ZM56.0976 98.8071H56.4715V95.9748H56.0976V98.8071ZM58.7829 95.9069C58.2788 95.9069 57.8766 96.1504 57.6387 96.53V95.9748H57.2648V99.94H57.6387V98.252C57.8766 98.6315 58.2788 98.8751 58.7829 98.8751C59.5816 98.8751 60.2444 98.2293 60.2444 97.391C60.2444 96.5526 59.5816 95.9069 58.7829 95.9069ZM58.7546 98.5126C58.1258 98.5126 57.6387 98.0197 57.6387 97.391C57.6387 96.7622 58.1258 96.2694 58.7546 96.2694C59.3834 96.2694 59.8705 96.7622 59.8705 97.391C59.8705 98.0197 59.3834 98.5126 58.7546 98.5126ZM61.1053 96.7169C61.1053 96.411 61.4055 96.2694 61.7001 96.2694C61.972 96.2694 62.2608 96.377 62.3798 96.6659L62.6914 96.4846C62.5271 96.1334 62.1645 95.9069 61.7001 95.9069C61.1336 95.9069 60.7314 96.2637 60.7314 96.7169C60.7314 97.7592 62.3855 97.357 62.3855 98.0594C62.3855 98.3936 62.0683 98.5126 61.734 98.5126C61.3545 98.5126 61.06 98.3256 60.958 98.0367L60.6408 98.2237C60.7824 98.5862 61.1676 98.8751 61.734 98.8751C62.3402 98.8751 62.7593 98.5409 62.7593 98.0594C62.7593 97.0171 61.1053 97.4193 61.1053 96.7169ZM65.3493 95.9748V97.459C65.3493 98.218 64.9301 98.5126 64.4316 98.5126C63.9388 98.5126 63.6612 98.218 63.6612 97.7139V95.9748H63.2874V97.7139C63.2874 98.4219 63.7066 98.8751 64.3976 98.8751C64.7998 98.8751 65.1284 98.7222 65.3493 98.3653V98.8071H65.7232V95.9748H65.3493ZM69.5333 95.9069C69.1707 95.9069 68.8252 96.0711 68.6156 96.4223C68.457 96.0938 68.1511 95.9069 67.7546 95.9069C67.4147 95.9069 67.1088 96.0428 66.8879 96.3883V95.9748H66.514V98.8071H66.8879V97.238C66.8879 96.5356 67.2957 96.2694 67.7036 96.2694C68.1058 96.2694 68.3664 96.5356 68.3664 97.0398V98.8071H68.7402V97.238C68.7402 96.5356 69.0914 96.2694 69.5276 96.2694C69.9298 96.2694 70.2187 96.5356 70.2187 97.0398V98.8071H70.5925V97.0398C70.5925 96.3317 70.1564 95.9069 69.5333 95.9069ZM75.1676 94.8419V96.53C74.9297 96.1504 74.5275 95.9069 74.0233 95.9069C73.2246 95.9069 72.5619 96.5526 72.5619 97.391C72.5619 98.2293 73.2246 98.8751 74.0233 98.8751C74.5275 98.8751 74.9297 98.6315 75.1676 98.252V98.8071H75.5415V94.8419H75.1676ZM74.0517 98.5126C73.4229 98.5126 72.9357 98.0197 72.9357 97.391C72.9357 96.7622 73.4229 96.2694 74.0517 96.2694C74.6804 96.2694 75.1676 96.7622 75.1676 97.391C75.1676 98.0197 74.6804 98.5126 74.0517 98.5126ZM77.6529 98.8751C78.4799 98.8751 79.1427 98.2293 79.1427 97.391C79.1427 96.5526 78.4799 95.9069 77.6529 95.9069C76.8259 95.9069 76.1631 96.5526 76.1631 97.391C76.1631 98.2293 76.8259 98.8751 77.6529 98.8751ZM77.6529 98.5126C77.0241 98.5126 76.537 98.0197 76.537 97.391C76.537 96.7622 77.0241 96.2694 77.6529 96.2694C78.2817 96.2694 78.7688 96.7622 78.7688 97.391C78.7688 98.0197 78.2817 98.5126 77.6529 98.5126ZM79.7683 98.8071H80.1422V94.672H79.7683V98.8071ZM82.2554 98.8751C83.0824 98.8751 83.7452 98.2293 83.7452 97.391C83.7452 96.5526 83.0824 95.9069 82.2554 95.9069C81.4283 95.9069 80.7656 96.5526 80.7656 97.391C80.7656 98.2293 81.4283 98.8751 82.2554 98.8751ZM82.2554 98.5126C81.6266 98.5126 81.1394 98.0197 81.1394 97.391C81.1394 96.7622 81.6266 96.2694 82.2554 96.2694C82.8841 96.2694 83.3713 96.7622 83.3713 97.391C83.3713 98.0197 82.8841 98.5126 82.2554 98.5126ZM84.7446 96.445V95.9748H84.3708V98.8071H84.7446V97.2324C84.7446 96.53 85.1865 96.292 85.6397 96.292V95.9295C85.2771 95.9295 84.9429 96.0485 84.7446 96.445Z" fill="#222222"/>
<g clip-path="url(#clip0_6_4948)">
<path fill-rule="evenodd" clip-rule="evenodd" d="M114.261 83.1855L116.739 86.0178H111.783L114.261 83.1855ZM116.739 87.4338L114.26 90.2661L111.782 87.4338H116.739Z" fill="#E33329"/>
</g>
<g filter="url(#filter2_d_6_4948)">
<rect x="30" y="39.9934" width="456" height="28.323" fill="white"/>
</g>
<path d="M41.8972 49.8433H39.1414V56.7825H41.8972C43.8105 56.7825 45.2379 55.2658 45.2379 53.3129C45.2379 51.36 43.8105 49.8433 41.8972 49.8433ZM41.8972 55.4739H40.5094V51.1519H41.8972C43.0967 51.1519 43.9294 52.0341 43.9294 53.3129C43.9294 54.5917 43.0967 55.4739 41.8972 55.4739ZM46.1489 56.7825H47.4276V49.5459H46.1489V56.7825ZM49.6786 54.8296H53.4158C53.4456 54.6611 53.4654 54.4926 53.4654 54.3042C53.4654 52.847 52.4245 51.6872 50.9574 51.6872C49.401 51.6872 48.3403 52.8272 48.3403 54.3042C48.3403 55.7813 49.3911 56.9213 51.0565 56.9213C52.0082 56.9213 52.7516 56.5346 53.2176 55.8606L52.1866 55.2658C51.9685 55.5533 51.572 55.7614 51.0763 55.7614C50.4022 55.7614 49.857 55.4839 49.6786 54.8296ZM49.6588 53.8383C49.8075 53.2039 50.2734 52.8371 50.9574 52.8371C51.4927 52.8371 52.028 53.1246 52.1866 53.8383H49.6588ZM58.6473 56.7825L56.8332 54.2447L58.568 51.8259H57.1008L56.0996 53.2237L55.0984 51.8259H53.6214L55.3561 54.2546L53.5421 56.7825H55.0191L56.0996 55.2757L57.1702 56.7825H58.6473Z" fill="black"/>
<circle cx="41.3294" cy="31.4966" r="2.8323" fill="#E5E5EB"/>
<circle cx="49.8255" cy="31.4966" r="2.8323" fill="#E5E5EB"/>
<circle cx="58.3225" cy="31.4966" r="2.8323" fill="#E5E5EB"/>
<defs>
<filter id="filter0_d_6_4948" x="0" y="0" width="516" height="357.391" filterUnits="userSpaceOnUse" color-interpolation-filters="sRGB">
<feFlood flood-opacity="0" result="BackgroundImageFix"/>
<feColorMatrix in="SourceAlpha" type="matrix" values="0 0 0 0 0 0 0 0 0 0 0 0 0 0 0 0 0 0 127 0" result="hardAlpha"/>
<feOffset dy="7"/>
<feGaussianBlur stdDeviation="15"/>
<feColorMatrix type="matrix" values="0 0 0 0 0.0705882 0 0 0 0 0.0666667 0 0 0 0 0.152941 0 0 0 0.12 0"/>
<feBlend mode="normal" in2="BackgroundImageFix" result="effect1_dropShadow_6_4948"/>
<feBlend mode="normal" in="SourceGraphic" in2="effect1_dropShadow_6_4948" result="shape"/>
</filter>
<filter id="filter1_d_6_4948" x="30" y="68.3162" width="97.7139" height="252.074" filterUnits="userSpaceOnUse" color-interpolation-filters="sRGB">
<feFlood flood-opacity="0" result="BackgroundImageFix"/>
<feColorMatrix in="SourceAlpha" type="matrix" values="0 0 0 0 0 0 0 0 0 0 0 0 0 0 0 0 0 0 127 0" result="hardAlpha"/>
<feOffset dx="0.708075"/>
<feColorMatrix type="matrix" values="0 0 0 0 0 0 0 0 0 0 0 0 0 0 0 0 0 0 0.05 0"/>
<feBlend mode="normal" in2="BackgroundImageFix" result="effect1_dropShadow_6_4948"/>
<feBlend mode="normal" in="SourceGraphic" in2="effect1_dropShadow_6_4948" result="shape"/>
</filter>
<filter id="filter2_d_6_4948" x="30" y="39.9934" width="456" height="29.0311" filterUnits="userSpaceOnUse" color-interpolation-filters="sRGB">
<feFlood flood-opacity="0" result="BackgroundImageFix"/>
<feColorMatrix in="SourceAlpha" type="matrix" values="0 0 0 0 0 0 0 0 0 0 0 0 0 0 0 0 0 0 127 0" result="hardAlpha"/>
<feOffset dy="0.708075"/>
<feColorMatrix type="matrix" values="0 0 0 0 0 0 0 0 0 0 0 0 0 0 0 0 0 0 0.05 0"/>
<feBlend mode="normal" in2="BackgroundImageFix" result="effect1_dropShadow_6_4948"/>
<feBlend mode="normal" in="SourceGraphic" in2="effect1_dropShadow_6_4948" result="shape"/>
</filter>
<clipPath id="clip0_6_4948">
<rect width="8.49689" height="8.49689" fill="white" transform="translate(110.012 82.4778)"/>
</clipPath>
</defs>
</svg>
