<svg width="297" height="205" viewBox="0 0 297 205" fill="none" xmlns="http://www.w3.org/2000/svg">
<g filter="url(#filter0_d_6_5067)">
<path d="M50 42C50 35.3726 55.3726 30 62 30H234.184C240.812 30 246.184 35.3726 246.184 42V123C246.184 129.627 240.812 135 234.184 135H62C55.3726 135 50 129.627 50 123V42Z" fill="#201F37"/>
</g>
<path d="M67.5384 51.8164H68.7735L67.4886 49.628C68.1518 49.3213 68.6077 48.6664 68.6077 47.9369C68.6077 46.8759 67.7456 46.0138 66.6763 46.0138H64.3552V51.8164H65.4992V49.8021H66.3696L67.5384 51.8164ZM65.4992 47.0831H66.6763C67.1073 47.0831 67.4638 47.4561 67.4638 47.9369C67.4638 48.4177 67.1073 48.799 66.6763 48.799H65.4992V47.0831ZM70.591 50.7222V49.4207H72.7878V48.3431H70.591V47.108H72.995V46.0138H69.4471V51.8164H73.0364V50.7222H70.591ZM79.5635 48.9151C79.5635 47.2157 78.2123 45.8977 76.5461 45.8977C74.8799 45.8977 73.537 47.2157 73.537 48.9151C73.537 50.6061 74.8799 51.9325 76.5461 51.9325C77.0766 51.9325 77.574 51.7998 78.0051 51.5594L78.6351 52.2143L79.4474 51.4931L78.8506 50.8714C79.2982 50.3492 79.5635 49.6694 79.5635 48.9151ZM76.5461 50.8134C75.5016 50.8134 74.6727 50.0259 74.6727 48.9151C74.6727 47.796 75.5016 47.0085 76.5461 47.0085C77.5906 47.0085 78.4195 47.796 78.4195 48.9151C78.4195 49.3544 78.2869 49.744 78.0714 50.0507L77.0518 48.9897L76.2394 49.7109L77.1927 50.7056C76.9938 50.7719 76.7699 50.8134 76.5461 50.8134ZM82.5311 51.9325C83.8076 51.9325 84.7526 51.1698 84.7526 49.9181V46.0138H83.6087V49.8269C83.6087 50.3906 83.3103 50.8134 82.5311 50.8134C81.7518 50.8134 81.4534 50.3906 81.4534 49.8269V46.0138H80.3178V49.9181C80.3178 51.1698 81.2628 51.9325 82.5311 51.9325ZM85.7832 46.0138V51.8164H86.9271V46.0138H85.7832ZM91.1844 51.8164H92.4196L91.1347 49.628C91.7978 49.3213 92.2538 48.6664 92.2538 47.9369C92.2538 46.8759 91.3917 46.0138 90.3223 46.0138H88.0013V51.8164H89.1452V49.8021H90.0156L91.1844 51.8164ZM89.1452 47.0831H90.3223C90.7534 47.0831 91.1098 47.4561 91.1098 47.9369C91.1098 48.4177 90.7534 48.799 90.3223 48.799H89.1452V47.0831ZM94.2371 50.7222V49.4207H96.4338V48.3431H94.2371V47.108H96.641V46.0138H93.0931V51.8164H96.6825V50.7222H94.2371ZM99.7933 46.0138H97.4888V51.8164H99.7933C101.393 51.8164 102.587 50.5481 102.587 48.9151C102.587 47.2821 101.393 46.0138 99.7933 46.0138ZM99.7933 50.7222H98.6328V47.108H99.7933C100.796 47.108 101.493 47.8457 101.493 48.9151C101.493 49.9844 100.796 50.7222 99.7933 50.7222ZM107.634 46.0138H105.471V51.8164H106.615V49.9098H107.634C108.753 49.9098 109.615 49.0477 109.615 47.9618C109.615 46.8759 108.753 46.0138 107.634 46.0138ZM107.634 48.8405H106.615V47.0831H107.634C108.123 47.0831 108.48 47.4561 108.48 47.9618C108.48 48.4592 108.123 48.8405 107.634 48.8405ZM113.543 51.8164H114.778L113.494 49.628C114.157 49.3213 114.613 48.6664 114.613 47.9369C114.613 46.8759 113.751 46.0138 112.681 46.0138H110.36V51.8164H111.504V49.8021H112.375L113.543 51.8164ZM111.504 47.0831H112.681C113.112 47.0831 113.469 47.4561 113.469 47.9369C113.469 48.4177 113.112 48.799 112.681 48.799H111.504V47.0831ZM118.131 51.9325C119.806 51.9325 121.148 50.6061 121.148 48.9151C121.148 47.2157 119.806 45.8977 118.131 45.8977C116.457 45.8977 115.122 47.2157 115.122 48.9151C115.122 50.6061 116.457 51.9325 118.131 51.9325ZM118.131 50.8134C117.078 50.8134 116.258 50.0259 116.258 48.9151C116.258 47.796 117.078 47.0085 118.131 47.0085C119.184 47.0085 120.005 47.796 120.005 48.9151C120.005 50.0259 119.184 50.8134 118.131 50.8134ZM124.116 46.0138H121.952V51.8164H123.096V49.9098H124.116C125.235 49.9098 126.097 49.0477 126.097 47.9618C126.097 46.8759 125.235 46.0138 124.116 46.0138ZM124.116 48.8405H123.096V47.0831H124.116C124.605 47.0831 124.962 47.4561 124.962 47.9618C124.962 48.4592 124.605 48.8405 124.116 48.8405ZM127.986 50.7222V49.4207H130.183V48.3431H127.986V47.108H130.39V46.0138H126.842V51.8164H130.431V50.7222H127.986ZM134.421 51.8164H135.656L134.371 49.628C135.034 49.3213 135.49 48.6664 135.49 47.9369C135.49 46.8759 134.628 46.0138 133.559 46.0138H131.238V51.8164H132.382V49.8021H133.252L134.421 51.8164ZM132.382 47.0831H133.559C133.99 47.0831 134.346 47.4561 134.346 47.9369C134.346 48.4177 133.99 48.799 133.559 48.799H132.382V47.0831ZM140.046 46.0138H135.777V47.108H137.335V51.8164H138.479V47.108H140.046V46.0138ZM140.685 46.0138V51.8164H141.829V46.0138H140.685ZM144.047 50.7222V49.4207H146.243V48.3431H144.047V47.108H146.451V46.0138H142.903V51.8164H146.492V50.7222H144.047ZM149.28 51.9325C150.515 51.9325 151.385 51.2693 151.385 50.1834C151.385 48.998 150.407 48.6913 149.487 48.4011C148.608 48.1359 148.384 47.9452 148.384 47.5888C148.384 47.2572 148.666 47.0085 149.147 47.0085C149.736 47.0085 150.051 47.3152 150.258 47.7546L151.219 47.1992C150.83 46.3868 150.1 45.8977 149.147 45.8977C148.152 45.8977 147.24 46.5277 147.24 47.6219C147.24 48.7244 148.103 49.0975 148.99 49.3544C149.852 49.6031 150.241 49.7689 150.241 50.2C150.241 50.5232 150.001 50.8134 149.313 50.8134C148.592 50.8134 148.185 50.4652 147.978 49.9264L147 50.4984C147.315 51.3605 148.094 51.9325 149.28 51.9325Z" fill="#7A7A7A"/>
<path d="M86.0186 70.8041V69.7762H85.0818V68.6156L84.0125 68.9389V69.7762H83.2913V70.8041H84.0125V72.5283C84.0125 73.6473 84.5182 74.0867 86.0186 73.9209V72.951C85.4051 72.9842 85.0818 72.9759 85.0818 72.5283V70.8041H86.0186ZM87.303 69.2788C87.6678 69.2788 87.9662 68.9804 87.9662 68.6239C87.9662 68.2675 87.6678 67.9608 87.303 67.9608C86.9466 67.9608 86.6482 68.2675 86.6482 68.6239C86.6482 68.9804 86.9466 69.2788 87.303 69.2788ZM86.7725 73.9209H87.8419V69.7762H86.7725V73.9209ZM91.1914 70.8041V69.7762H90.2547V68.6156L89.1853 68.9389V69.7762H88.4641V70.8041H89.1853V72.5283C89.1853 73.6473 89.691 74.0867 91.1914 73.9209V72.951C90.578 72.9842 90.2547 72.9759 90.2547 72.5283V70.8041H91.1914ZM91.9453 73.9209H93.0147V67.8696H91.9453V73.9209ZM94.897 72.2879H98.0221C98.047 72.147 98.0636 72.006 98.0636 71.8485C98.0636 70.63 97.1932 69.6601 95.9663 69.6601C94.6649 69.6601 93.7779 70.6134 93.7779 71.8485C93.7779 73.0837 94.6566 74.037 96.0492 74.037C96.845 74.037 97.4667 73.7137 97.8563 73.15L96.9942 72.6526C96.8118 72.893 96.4803 73.0671 96.0658 73.0671C95.5021 73.0671 95.0462 72.835 94.897 72.2879ZM94.8804 71.4589C95.0047 70.9284 95.3943 70.6217 95.9663 70.6217C96.4139 70.6217 96.8616 70.8621 96.9942 71.4589H94.8804ZM100.932 71.9314H104.041V70.9035H100.932V71.9314Z" fill="white"/>
<path d="M109.171 74.037C110.406 74.037 111.276 73.3738 111.276 72.2879C111.276 71.1025 110.298 70.7958 109.378 70.5056C108.499 70.2404 108.276 70.0497 108.276 69.6933C108.276 69.3617 108.558 69.113 109.038 69.113C109.627 69.113 109.942 69.4197 110.149 69.8591L111.111 69.3037C110.721 68.4913 109.992 68.0022 109.038 68.0022C108.044 68.0022 107.132 68.6322 107.132 69.7264C107.132 70.8289 107.994 71.202 108.881 71.4589C109.743 71.7076 110.133 71.8734 110.133 72.3045C110.133 72.6277 109.892 72.9179 109.204 72.9179C108.483 72.9179 108.077 72.5697 107.869 72.0309L106.891 72.6029C107.206 73.465 107.986 74.037 109.171 74.037ZM114.222 70.8041V69.7762H113.285V68.6156L112.216 68.9389V69.7762H111.495V70.8041H112.216V72.5283C112.216 73.6473 112.722 74.0867 114.222 73.9209V72.951C113.609 72.9842 113.285 72.9759 113.285 72.5283V70.8041H114.222ZM116.11 70.4891V69.7762H115.041V73.9209H116.11V71.9397C116.11 71.0693 116.815 70.8206 117.37 70.887V69.6933C116.848 69.6933 116.326 69.9254 116.11 70.4891ZM118.526 69.2788C118.891 69.2788 119.189 68.9804 119.189 68.6239C119.189 68.2675 118.891 67.9608 118.526 67.9608C118.17 67.9608 117.871 68.2675 117.871 68.6239C117.871 68.9804 118.17 69.2788 118.526 69.2788ZM117.996 73.9209H119.065V69.7762H117.996V73.9209ZM122.348 69.6601C121.793 69.6601 121.362 69.8673 121.113 70.2404V69.7762H120.044V73.9209H121.113V71.6827C121.113 70.9616 121.503 70.6548 122.025 70.6548C122.506 70.6548 122.846 70.945 122.846 71.5087V73.9209H123.915V71.376C123.915 70.2735 123.227 69.6601 122.348 69.6601ZM128.003 69.7762V70.2901C127.713 69.9005 127.265 69.6601 126.677 69.6601C125.499 69.6601 124.612 70.6217 124.612 71.7822C124.612 72.951 125.499 73.9043 126.677 73.9043C127.265 73.9043 127.713 73.6639 128.003 73.2743V73.722C128.003 74.3768 127.588 74.7416 126.917 74.7416C126.279 74.7416 126.005 74.4846 125.831 74.1613L124.919 74.6835C125.284 75.355 125.997 75.6948 126.884 75.6948C127.978 75.6948 129.047 75.0814 129.047 73.722V69.7762H128.003ZM126.842 72.9179C126.171 72.9179 125.682 72.4454 125.682 71.7822C125.682 71.1273 126.171 70.6548 126.842 70.6548C127.514 70.6548 128.003 71.1273 128.003 71.7822C128.003 72.4454 127.514 72.9179 126.842 72.9179Z" fill="#7A7A7A"/>
<g clip-path="url(#clip0_6_5067)">
<path d="M69.3427 65.9211C66.3032 65.9211 63.8164 68.408 63.8164 71.4475C63.8164 74.4869 66.3032 76.9738 69.3427 76.9738C72.3822 76.9738 74.869 74.4869 74.869 71.4475C74.869 68.408 72.3822 65.9211 69.3427 65.9211ZM68.6519 73.7961L66.3032 71.4475L67.2704 70.4804L68.6519 71.8619L71.4151 69.0988L72.3822 70.0659L68.6519 73.7961Z" fill="#2FD690"/>
</g>
<path d="M84.7171 114.7V113.987H83.6478V118.132H84.7171V116.151C84.7171 115.28 85.4217 115.032 85.9771 115.098V113.904C85.4549 113.904 84.9326 114.136 84.7171 114.7ZM87.133 113.49C87.4978 113.49 87.7962 113.191 87.7962 112.835C87.7962 112.478 87.4978 112.172 87.133 112.172C86.7766 112.172 86.4782 112.478 86.4782 112.835C86.4782 113.191 86.7766 113.49 87.133 113.49ZM86.6025 118.132H87.6719V113.987H86.6025V118.132ZM90.6235 118.248C91.842 118.248 92.8202 117.295 92.8202 116.059C92.8202 114.824 91.842 113.871 90.6235 113.871C89.4049 113.871 88.4351 114.824 88.4351 116.059C88.4351 117.295 89.4049 118.248 90.6235 118.248ZM90.6235 117.203C89.9935 117.203 89.5044 116.731 89.5044 116.059C89.5044 115.388 89.9935 114.916 90.6235 114.916C91.2618 114.916 91.7509 115.388 91.7509 116.059C91.7509 116.731 91.2618 117.203 90.6235 117.203ZM92.766 119.549H96.5377V118.521H92.766V119.549ZM98.7673 118.248C99.9858 118.248 100.964 117.295 100.964 116.059C100.964 114.824 99.9858 113.871 98.7673 113.871C97.5487 113.871 96.5788 114.824 96.5788 116.059C96.5788 117.295 97.5487 118.248 98.7673 118.248ZM98.7673 117.203C98.1373 117.203 97.6482 116.731 97.6482 116.059C97.6482 115.388 98.1373 114.916 98.7673 114.916C99.4055 114.916 99.8946 115.388 99.8946 116.059C99.8946 116.731 99.4055 117.203 98.7673 117.203ZM104.866 113.987V114.476C104.568 114.103 104.12 113.871 103.515 113.871C102.413 113.871 101.501 114.824 101.501 116.059C101.501 117.295 102.413 118.248 103.515 118.248C104.12 118.248 104.568 118.016 104.866 117.643V118.132H105.936V113.987H104.866ZM103.714 117.228C103.059 117.228 102.57 116.756 102.57 116.059C102.57 115.363 103.059 114.891 103.714 114.891C104.377 114.891 104.866 115.363 104.866 116.059C104.866 116.756 104.377 117.228 103.714 117.228ZM106.69 119.549H110.461V118.521H106.69V119.549ZM113.893 113.987V114.501C113.603 114.111 113.155 113.871 112.567 113.871C111.39 113.871 110.503 114.833 110.503 115.993C110.503 117.162 111.39 118.115 112.567 118.115C113.155 118.115 113.603 117.875 113.893 117.485V117.933C113.893 118.588 113.478 118.952 112.807 118.952C112.169 118.952 111.895 118.696 111.721 118.372L110.809 118.894C111.174 119.566 111.887 119.906 112.774 119.906C113.868 119.906 114.937 119.292 114.937 117.933V113.987H113.893ZM112.732 117.129C112.061 117.129 111.572 116.656 111.572 115.993C111.572 115.338 112.061 114.866 112.732 114.866C113.404 114.866 113.893 115.338 113.893 115.993C113.893 116.656 113.404 117.129 112.732 117.129ZM117.88 118.248C118.692 118.248 119.397 117.817 119.753 117.17L118.825 116.64C118.659 116.98 118.303 117.187 117.872 117.187C117.233 117.187 116.761 116.714 116.761 116.059C116.761 115.396 117.233 114.924 117.872 114.924C118.294 114.924 118.651 115.139 118.817 115.479L119.737 114.94C119.397 114.302 118.692 113.871 117.88 113.871C116.62 113.871 115.692 114.824 115.692 116.059C115.692 117.295 116.62 118.248 117.88 118.248ZM122.764 113.871C122.158 113.871 121.719 114.095 121.421 114.476V113.987H120.351V119.79H121.421V117.643C121.719 118.024 122.158 118.248 122.764 118.248C123.874 118.248 124.786 117.295 124.786 116.059C124.786 114.824 123.874 113.871 122.764 113.871ZM122.565 117.228C121.91 117.228 121.421 116.756 121.421 116.059C121.421 115.363 121.91 114.891 122.565 114.891C123.228 114.891 123.717 115.363 123.717 116.059C123.717 116.756 123.228 117.228 122.565 117.228ZM124.734 119.549H128.506V118.521H124.734V119.549ZM129.167 118.132H130.236V112.081H129.167V118.132ZM134.365 113.987V114.476C134.067 114.103 133.619 113.871 133.014 113.871C131.911 113.871 131 114.824 131 116.059C131 117.295 131.911 118.248 133.014 118.248C133.619 118.248 134.067 118.016 134.365 117.643V118.132H135.434V113.987H134.365ZM133.213 117.228C132.558 117.228 132.069 116.756 132.069 116.059C132.069 115.363 132.558 114.891 133.213 114.891C133.876 114.891 134.365 115.363 134.365 116.059C134.365 116.756 133.876 117.228 133.213 117.228ZM138.816 113.871C138.211 113.871 137.772 114.095 137.473 114.476V112.329H136.404V118.132H137.473V117.643C137.772 118.024 138.211 118.248 138.816 118.248C139.927 118.248 140.839 117.295 140.839 116.059C140.839 114.824 139.927 113.871 138.816 113.871ZM138.617 117.228C137.963 117.228 137.473 116.756 137.473 116.059C137.473 115.363 137.963 114.891 138.617 114.891C139.281 114.891 139.77 115.363 139.77 116.059C139.77 116.756 139.281 117.228 138.617 117.228ZM142.497 116.499H145.622C145.647 116.358 145.663 116.217 145.663 116.059C145.663 114.841 144.793 113.871 143.566 113.871C142.265 113.871 141.378 114.824 141.378 116.059C141.378 117.295 142.256 118.248 143.649 118.248C144.445 118.248 145.066 117.925 145.456 117.361L144.594 116.864C144.412 117.104 144.08 117.278 143.665 117.278C143.102 117.278 142.646 117.046 142.497 116.499ZM142.48 115.67C142.604 115.139 142.994 114.833 143.566 114.833C144.014 114.833 144.461 115.073 144.594 115.67H142.48ZM146.41 118.132H147.479V112.081H146.41V118.132ZM149.412 115.164C149.412 114.94 149.627 114.824 149.893 114.824C150.199 114.824 150.432 114.982 150.556 115.247L151.468 114.75C151.144 114.178 150.564 113.871 149.893 113.871C149.039 113.871 148.318 114.344 148.318 115.189C148.318 116.648 150.456 116.316 150.456 116.922C150.456 117.162 150.224 117.278 149.884 117.278C149.47 117.278 149.188 117.079 149.072 116.739L148.144 117.261C148.442 117.9 149.055 118.248 149.884 118.248C150.771 118.248 151.551 117.817 151.551 116.922C151.551 115.396 149.412 115.778 149.412 115.164ZM154.401 116.142H157.509V115.114H154.401V116.142Z" fill="white"/>
<path d="M163.402 118.248C165.077 118.248 166.42 116.922 166.42 115.231C166.42 113.531 165.077 112.213 163.402 112.213C161.728 112.213 160.393 113.531 160.393 115.231C160.393 116.922 161.728 118.248 163.402 118.248ZM163.402 117.129C162.35 117.129 161.529 116.341 161.529 115.231C161.529 114.111 162.35 113.324 163.402 113.324C164.455 113.324 165.276 114.111 165.276 115.231C165.276 116.341 164.455 117.129 163.402 117.129ZM169.586 113.871C168.981 113.871 168.542 114.095 168.243 114.476V112.329H167.174V118.132H168.243V117.643C168.542 118.024 168.981 118.248 169.586 118.248C170.697 118.248 171.609 117.295 171.609 116.059C171.609 114.824 170.697 113.871 169.586 113.871ZM169.387 117.228C168.732 117.228 168.243 116.756 168.243 116.059C168.243 115.363 168.732 114.891 169.387 114.891C170.05 114.891 170.539 115.363 170.539 116.059C170.539 116.756 170.05 117.228 169.387 117.228ZM172.921 113.49C173.278 113.49 173.576 113.191 173.576 112.835C173.576 112.478 173.278 112.172 172.921 112.172C172.557 112.172 172.258 112.478 172.258 112.835C172.258 113.191 172.557 113.49 172.921 113.49ZM172.382 118.215C172.382 118.72 172.15 118.911 171.645 118.878V119.906C172.872 119.98 173.452 119.433 173.452 118.215V113.987H172.382V118.215ZM175.331 116.499H178.456C178.481 116.358 178.497 116.217 178.497 116.059C178.497 114.841 177.627 113.871 176.4 113.871C175.099 113.871 174.212 114.824 174.212 116.059C174.212 117.295 175.09 118.248 176.483 118.248C177.279 118.248 177.901 117.925 178.29 117.361L177.428 116.864C177.246 117.104 176.914 117.278 176.5 117.278C175.936 117.278 175.48 117.046 175.331 116.499ZM175.314 115.67C175.439 115.139 175.828 114.833 176.4 114.833C176.848 114.833 177.295 115.073 177.428 115.67H175.314ZM181.184 118.248C181.997 118.248 182.701 117.817 183.058 117.17L182.129 116.64C181.964 116.98 181.607 117.187 181.176 117.187C180.538 117.187 180.065 116.714 180.065 116.059C180.065 115.396 180.538 114.924 181.176 114.924C181.599 114.924 181.955 115.139 182.121 115.479L183.041 114.94C182.701 114.302 181.997 113.871 181.184 113.871C179.924 113.871 178.996 114.824 178.996 116.059C178.996 117.295 179.924 118.248 181.184 118.248ZM185.994 115.015V113.987H185.057V112.827L183.988 113.15V113.987H183.267V115.015H183.988V116.739C183.988 117.858 184.494 118.298 185.994 118.132V117.162C185.381 117.195 185.057 117.187 185.057 116.739V115.015H185.994Z" fill="#7A7A7A"/>
<g clip-path="url(#clip1_6_5067)">
<path d="M69.3427 110.132C66.3032 110.132 63.8164 112.619 63.8164 115.659C63.8164 118.698 66.3032 121.185 69.3427 121.185C72.3822 121.185 74.869 118.698 74.869 115.659C74.869 112.619 72.3822 110.132 69.3427 110.132ZM68.6519 118.007L66.3032 115.659L67.2704 114.692L68.6519 116.073L71.4151 113.31L72.3822 114.277L68.6519 118.007Z" fill="#2FD690"/>
</g>
<path d="M84.1783 91.3848C84.543 91.3848 84.8415 91.0863 84.8415 90.7299C84.8415 90.3734 84.543 90.0667 84.1783 90.0667C83.8218 90.0667 83.5234 90.3734 83.5234 90.7299C83.5234 91.0863 83.8218 91.3848 84.1783 91.3848ZM83.6478 96.0269H84.7171V91.8821H83.6478V96.0269ZM86.6499 93.0592C86.6499 92.8354 86.8654 92.7194 87.1307 92.7194C87.4374 92.7194 87.6695 92.8769 87.7939 93.1421L88.7057 92.6448C88.3824 92.0728 87.8022 91.7661 87.1307 91.7661C86.2769 91.7661 85.5557 92.2386 85.5557 93.0841C85.5557 94.543 87.6944 94.2115 87.6944 94.8166C87.6944 95.057 87.4623 95.173 87.1224 95.173C86.7079 95.173 86.4261 94.9741 86.3101 94.6342L85.3816 95.1565C85.6801 95.7948 86.2935 96.1429 87.1224 96.1429C88.0094 96.1429 88.7886 95.7119 88.7886 94.8166C88.7886 93.2913 86.6499 93.6726 86.6499 93.0592ZM91.5477 96.1429C92.7828 96.1429 93.6532 95.4798 93.6532 94.3938C93.6532 93.2084 92.6751 92.9017 91.7549 92.6116C90.8763 92.3463 90.6524 92.1557 90.6524 91.7992C90.6524 91.4676 90.9343 91.219 91.4151 91.219C92.0036 91.219 92.3186 91.5257 92.5259 91.965L93.4874 91.4096C93.0978 90.5973 92.3684 90.1082 91.4151 90.1082C90.4203 90.1082 89.5085 90.7382 89.5085 91.8324C89.5085 92.9349 90.3706 93.3079 91.2576 93.5649C92.1197 93.8136 92.5093 93.9794 92.5093 94.4104C92.5093 94.7337 92.2689 95.0238 91.5809 95.0238C90.8597 95.0238 90.4535 94.6757 90.2463 94.1369L89.2681 94.7088C89.5831 95.5709 90.3623 96.1429 91.5477 96.1429ZM97.6129 91.8821V92.3712C97.3145 91.9982 96.8669 91.7661 96.2618 91.7661C95.1593 91.7661 94.2474 92.7194 94.2474 93.9545C94.2474 95.1896 95.1593 96.1429 96.2618 96.1429C96.8669 96.1429 97.3145 95.9108 97.6129 95.5378V96.0269H98.6823V91.8821H97.6129ZM96.4607 95.1233C95.8058 95.1233 95.3168 94.6508 95.3168 93.9545C95.3168 93.2582 95.8058 92.7857 96.4607 92.7857C97.1239 92.7857 97.6129 93.2582 97.6129 93.9545C97.6129 94.6508 97.1239 95.1233 96.4607 95.1233ZM101.882 91.1361V90.1082C100.564 90.0253 99.9338 90.6967 99.9338 91.8407V91.8821H99.337V92.91H99.9338V96.0269H101.003V92.91H101.882V91.8821H101.003V91.8407C101.003 91.277 101.326 91.0946 101.882 91.1361ZM103.122 94.3938H106.247C106.272 94.2529 106.288 94.112 106.288 93.9545C106.288 92.7359 105.418 91.7661 104.191 91.7661C102.89 91.7661 102.003 92.7194 102.003 93.9545C102.003 95.1896 102.881 96.1429 104.274 96.1429C105.07 96.1429 105.691 95.8196 106.081 95.2559L105.219 94.7586C105.037 94.999 104.705 95.173 104.291 95.173C103.727 95.173 103.271 94.9409 103.122 94.3938ZM103.105 93.5649C103.229 93.0344 103.619 92.7276 104.191 92.7276C104.639 92.7276 105.086 92.968 105.219 93.5649H103.105Z" fill="#F4CB7A"/>
<path d="M109.157 94.0374H112.265V93.0095H109.157V94.0374Z" fill="white"/>
<path d="M118.921 93.0178C119.261 92.7442 119.468 92.3546 119.468 91.8573C119.468 90.8874 118.681 90.2242 117.702 90.2242H115.414V96.0269H117.876C118.879 96.0269 119.684 95.3388 119.684 94.3441C119.684 93.739 119.385 93.283 118.921 93.0178ZM117.702 91.2936C118.067 91.2936 118.324 91.5671 118.324 91.9319C118.324 92.2966 118.059 92.5701 117.702 92.5701H116.558V91.2936H117.702ZM117.876 94.9575H116.558V93.5898H117.876C118.266 93.5898 118.548 93.8799 118.548 94.2695C118.548 94.6674 118.266 94.9575 117.876 94.9575ZM122.421 96.1429C123.64 96.1429 124.618 95.1896 124.618 93.9545C124.618 92.7194 123.64 91.7661 122.421 91.7661C121.203 91.7661 120.233 92.7194 120.233 93.9545C120.233 95.1896 121.203 96.1429 122.421 96.1429ZM122.421 95.0984C121.791 95.0984 121.302 94.6259 121.302 93.9545C121.302 93.283 121.791 92.8105 122.421 92.8105C123.06 92.8105 123.549 93.283 123.549 93.9545C123.549 94.6259 123.06 95.0984 122.421 95.0984ZM127.343 96.1429C128.562 96.1429 129.54 95.1896 129.54 93.9545C129.54 92.7194 128.562 91.7661 127.343 91.7661C126.125 91.7661 125.155 92.7194 125.155 93.9545C125.155 95.1896 126.125 96.1429 127.343 96.1429ZM127.343 95.0984C126.713 95.0984 126.224 94.6259 126.224 93.9545C126.224 93.283 126.713 92.8105 127.343 92.8105C127.982 92.8105 128.471 93.283 128.471 93.9545C128.471 94.6259 127.982 95.0984 127.343 95.0984ZM130.292 96.0269H131.362V89.9755H130.292V96.0269ZM133.244 94.3938H136.369C136.394 94.2529 136.41 94.112 136.41 93.9545C136.41 92.7359 135.54 91.7661 134.313 91.7661C133.012 91.7661 132.125 92.7194 132.125 93.9545C132.125 95.1896 133.003 96.1429 134.396 96.1429C135.192 96.1429 135.814 95.8196 136.203 95.2559L135.341 94.7586C135.159 94.999 134.827 95.173 134.413 95.173C133.849 95.173 133.393 94.9409 133.244 94.3938ZM133.227 93.5649C133.352 93.0344 133.741 92.7276 134.313 92.7276C134.761 92.7276 135.208 92.968 135.341 93.5649H133.227ZM140.275 91.8821V92.3712C139.976 91.9982 139.529 91.7661 138.923 91.7661C137.821 91.7661 136.909 92.7194 136.909 93.9545C136.909 95.1896 137.821 96.1429 138.923 96.1429C139.529 96.1429 139.976 95.9108 140.275 95.5378V96.0269H141.344V91.8821H140.275ZM139.122 95.1233C138.467 95.1233 137.978 94.6508 137.978 93.9545C137.978 93.2582 138.467 92.7857 139.122 92.7857C139.786 92.7857 140.275 93.2582 140.275 93.9545C140.275 94.6508 139.786 95.1233 139.122 95.1233ZM144.618 91.7661C144.063 91.7661 143.632 91.9733 143.383 92.3463V91.8821H142.314V96.0269H143.383V93.7887C143.383 93.0675 143.773 92.7608 144.295 92.7608C144.776 92.7608 145.115 93.0509 145.115 93.6146V96.0269H146.185V93.482C146.185 92.3795 145.497 91.7661 144.618 91.7661Z" fill="#7A7A7A"/>
<g clip-path="url(#clip2_6_5067)">
<path d="M69.3427 88.0276C66.3032 88.0276 63.8164 90.5144 63.8164 93.5539C63.8164 96.5934 66.3032 99.0802 69.3427 99.0802C72.3822 99.0802 74.869 96.5934 74.869 93.5539C74.869 90.5144 72.3822 88.0276 69.3427 88.0276ZM71.7605 95.0046L70.7934 95.9717L69.3427 94.521L67.8921 95.9717L66.925 95.0046L68.3756 93.5539L66.925 92.1032L67.8921 91.1361L69.3427 92.5868L70.7934 91.1361L71.7605 92.1032L70.3098 93.5539L71.7605 95.0046Z" fill="#7A7A7A"/>
</g>
<defs>
<filter id="filter0_d_6_5067" x="0" y="0" width="296.184" height="205" filterUnits="userSpaceOnUse" color-interpolation-filters="sRGB">
<feFlood flood-opacity="0" result="BackgroundImageFix"/>
<feColorMatrix in="SourceAlpha" type="matrix" values="0 0 0 0 0 0 0 0 0 0 0 0 0 0 0 0 0 0 127 0" result="hardAlpha"/>
<feOffset dy="20"/>
<feGaussianBlur stdDeviation="25"/>
<feColorMatrix type="matrix" values="0 0 0 0 0.0705882 0 0 0 0 0.0666667 0 0 0 0 0.152941 0 0 0 0.08 0"/>
<feBlend mode="normal" in2="BackgroundImageFix" result="effect1_dropShadow_6_5067"/>
<feBlend mode="normal" in="SourceGraphic" in2="effect1_dropShadow_6_5067" result="shape"/>
</filter>
<clipPath id="clip0_6_5067">
<rect width="11.0526" height="11.0526" fill="white" transform="translate(63.8164 65.9211)"/>
</clipPath>
<clipPath id="clip1_6_5067">
<rect width="11.0526" height="11.0526" fill="white" transform="translate(63.8164 110.132)"/>
</clipPath>
<clipPath id="clip2_6_5067">
<rect width="11.0526" height="11.0526" fill="white" transform="translate(63.8164 88.0276)"/>
</clipPath>
</defs>
</svg>
