<svg width="46" height="46" viewBox="0 0 46 46" fill="none" xmlns="http://www.w3.org/2000/svg">
<mask id="mask0_10_111" style="mask-type:luminance" maskUnits="userSpaceOnUse" x="7" y="0" width="36" height="24">
<path d="M7.58038 0.046875H42.3486V23.4332H7.58038V0.046875Z" fill="white"/>
</mask>
<g mask="url(#mask0_10_111)">
<path d="M23.299 0.142578V18.1717L23.2061 18.0438L22.5727 17.1805C22.1024 16.5482 21.622 15.9549 21.1331 15.4007C20.6456 14.8607 20.1481 14.3562 19.6449 13.9051V0.142578H23.299ZM11.4718 0.142578H7.84198V12.4308C8.10503 12.2674 8.37237 12.1146 8.63971 11.9761C9.15151 11.7061 9.6676 11.4929 10.1908 11.3188C10.7126 11.1554 11.2387 11.0346 11.7663 10.9671C12.0322 10.9352 12.2967 10.9174 12.5611 10.9032C12.8256 10.9032 13.093 10.8996 13.3574 10.9245C13.8292 10.96 14.301 11.0275 14.7728 11.1448L11.4718 0.142578ZM42.1399 0.142578V17.7915C41.3665 18.4772 40.5902 19.1095 39.8139 19.6815C39.3721 20.0083 38.929 20.3138 38.4858 20.6016V0.142578H42.1399ZM26.783 0.142578V21.5466C27.4506 21.9906 28.1325 22.3352 28.8273 22.5697C29.3505 22.7509 29.8795 22.8752 30.4113 22.9463V0.142578H26.783Z" fill="#FF3131"/>
</g>
<mask id="mask1_10_111" style="mask-type:luminance" maskUnits="userSpaceOnUse" x="0" y="12" width="46" height="34">
<path d="M0.359375 12.52H45.3594V45.047H0.359375V12.52Z" fill="white"/>
</mask>
<g mask="url(#mask1_10_111)">
<path d="M43.9712 17.987C43.5109 18.4489 43.0491 18.8823 42.5874 19.305C42.4387 19.44 42.2886 19.575 42.1399 19.7064C41.3665 20.3921 40.5902 21.0244 39.8139 21.5964C39.3721 21.9232 38.929 22.2287 38.4858 22.5129C38.0026 22.8291 37.5194 23.1133 37.0347 23.3727C36.1083 23.8629 35.1819 24.2572 34.2598 24.5237C32.9632 24.8967 31.6737 25.0281 30.4099 24.8612C29.8766 24.7901 29.3491 24.6622 28.8259 24.4846C28.1325 24.2466 27.4506 23.9055 26.7815 23.4615C25.7508 22.7794 24.7515 21.8522 23.7922 20.7047L23.4991 20.3388L23.3519 20.1541L23.299 20.0866L23.2061 19.9587L22.5727 19.099C22.1024 18.4631 21.622 17.8698 21.1331 17.3191C20.6456 16.7756 20.1481 16.2747 19.6449 15.82C19.1402 15.3617 18.627 14.9532 18.1066 14.605C17.8493 14.4203 17.5877 14.264 17.3275 14.1077C17.196 14.0295 17.0644 13.9656 16.9343 13.8945L16.737 13.7915L16.5412 13.6991C16.0151 13.4362 15.4833 13.2586 14.9529 13.1058C14.8943 13.0881 14.8328 13.0739 14.7742 13.0561C14.3024 12.9389 13.8292 12.8678 13.3574 12.8359C13.093 12.8145 12.8271 12.8181 12.5626 12.8181C12.2967 12.8288 12.0322 12.8465 11.7677 12.882C11.2387 12.946 10.7141 13.0703 10.1923 13.2337C9.66903 13.4078 9.15294 13.621 8.64114 13.8874C8.37237 14.026 8.10646 14.1787 7.84198 14.3457C7.09572 14.8111 6.36376 15.3759 5.65038 16.0402C4.68396 16.939 3.74899 18.0119 2.85834 19.2553C2.41373 19.8734 1.98056 20.5448 1.56025 21.2553C1.1428 21.9765 0.732505 22.719 0.359375 23.5716C0.839726 23.1844 1.31722 22.8433 1.79614 22.5343C2.27363 22.2145 2.75398 21.941 3.23147 21.6852C4.18789 21.1772 5.14287 20.7758 6.09356 20.4916C6.67827 20.3139 7.26156 20.1825 7.84198 20.0972V44.2082H11.4718V20.1789C11.5547 20.1967 11.639 20.2145 11.722 20.2322C11.9879 20.2926 12.2538 20.3672 12.5168 20.4525L19.6449 44.2118H23.299V30.3996C23.4191 30.5203 23.5377 30.6376 23.6592 30.7442C23.9166 30.9893 24.1782 31.1953 24.4384 31.4156C24.5685 31.5222 24.7014 31.6145 24.833 31.714C24.9645 31.8099 25.0946 31.9129 25.229 31.9911L25.6278 32.2469C25.7608 32.3286 25.8952 32.3925 26.0295 32.4671C26.2969 32.6234 26.5671 32.7371 26.8359 32.8579L27.2419 33.0071L27.2519 33.0142C28.2912 40.2649 30.9717 44.9472 34.4614 44.9472C38.9547 44.9472 42.1399 37.0961 42.1399 25.9909V23.3265C42.4658 22.7687 42.7846 22.1897 43.0977 21.5964C43.5023 20.829 43.8926 20.0226 44.2714 19.1913C44.6489 18.3458 45.0191 17.4897 45.3551 16.5482C44.8919 17.0527 44.4344 17.5323 43.9712 17.987ZM19.6449 29.2983L18.0666 24.0334C18.5698 24.5414 19.0645 25.0921 19.552 25.6854C19.5834 25.7244 19.6149 25.7635 19.6463 25.8026V29.2983H19.6449ZM34.4614 36.7231C33.2091 36.7231 32.1497 35.4406 31.4292 33.2665C32.5872 33.0071 33.7252 32.4956 34.8288 31.7673C36.0497 30.968 37.2277 29.9093 38.3571 28.6375C37.9197 33.5009 36.4243 36.7231 34.4614 36.7231Z" fill="black"/>
</g>
</svg>
