<svg width="45" height="45" viewBox="0 0 45 45" fill="none" xmlns="http://www.w3.org/2000/svg">
<mask id="mask0_10_228" style="mask-type:luminance" maskUnits="userSpaceOnUse" x="0" y="0" width="45" height="45">
<path d="M0 0H45V45H0V0Z" fill="white"/>
</mask>
<g mask="url(#mask0_10_228)">
<path d="M31.4897 0.298906C31.4897 0.298906 30.1001 4.70111 32.64 5.84871C35.1823 6.99322 38.5843 3.4332 38.5843 3.4332C38.5843 3.4332 35.2287 7.59787 36.0444 9.46734C36.8601 11.3368 44.9609 7.89711 44.9609 7.89711C44.9609 7.89711 38.4891 12.4813 39.3536 16.1C40.2157 19.7186 44.9609 18.753 44.9609 18.753C44.9609 18.753 37.5781 19.478 38.345 22.492C39.1118 25.509 44.9609 28.2824 44.9609 28.2824C44.9609 28.2824 36.379 25.2684 31.8268 30.9385C27.272 36.6055 30.5299 40.6468 30.5299 40.6468C30.5299 40.6468 25.2572 35.461 23.4842 36.3063C21.7112 37.1485 20.9907 44.9904 20.9907 44.9904C20.9907 44.9904 19.12 37.1485 17.4422 35.5814C15.7644 34.0142 12.4577 38.4164 12.4577 38.4164C12.4577 38.4164 13.7032 34.1931 12.4577 33.2306C11.2121 32.265 6.3204 35.7634 6.3204 35.7634C6.3204 35.7634 8.71864 31.6604 7.8077 30.7565C6.89676 29.8526 0.0415039 32.2033 0.0415039 32.2033C0.0415039 32.2033 6.70383 26.6566 5.40946 25.2067C4.1151 23.7599 1.09653 24.0622 1.09653 24.0622C1.09653 24.0622 5.50471 22.2513 5.21897 20.4436C4.93079 18.6327 2.14912 17.1272 2.14912 17.1272C2.14912 17.1272 6.3204 15.918 6.08107 13.5055C5.84173 11.0931 4.30803 10.0689 4.30803 10.0689C4.30803 10.0689 6.12991 10.7322 9.91777 8.92439C13.7032 7.11354 12.4088 3.25428 12.4088 3.25428C12.4088 3.25428 14.9023 6.99322 16.9171 6.38858C18.9295 5.78701 20.0309 -0.00341797 20.0309 -0.00341797C20.0309 -0.00341797 20.5609 5.6667 23.9629 4.94174C27.3673 4.21986 31.4897 0.298906 31.4897 0.298906Z" fill="#100F0D"/>
</g>
<path d="M30.5593 2.45864C30.5593 2.45864 29.2991 6.45055 31.6045 7.49018C33.9075 8.5298 36.9945 5.30296 36.9945 5.30296C36.9945 5.30296 33.9515 9.07584 34.6915 10.7726C35.429 12.4693 42.7776 9.35039 42.7776 9.35039C42.7776 9.35039 36.909 13.5058 37.6905 16.7882C38.4744 20.0706 42.7776 19.1944 42.7776 19.1944C42.7776 19.1944 36.0811 19.8515 36.7771 22.5879C37.4731 25.3211 42.7776 27.8384 42.7776 27.8384C42.7776 27.8384 34.9943 25.1021 30.8645 30.2447C26.7348 35.3842 29.6898 39.0491 29.6898 39.0491C29.6898 39.0491 24.908 34.3446 23.301 35.1127C21.6916 35.8778 21.0396 42.9886 21.0396 42.9886C21.0396 42.9886 19.3447 35.8778 17.8232 34.4556C16.3017 33.0335 13.3002 37.0254 13.3002 37.0254C13.3002 37.0254 14.431 33.197 13.3002 32.3208C12.1695 31.4478 7.7369 34.6191 7.7369 34.6191C7.7369 34.6191 9.91046 30.8987 9.08255 30.0781C8.25709 29.2575 2.04169 31.3923 2.04169 31.3923C2.04169 31.3923 8.08369 26.3607 6.90899 25.0466C5.73674 23.7355 2.99659 24.0069 2.99659 24.0069C2.99659 24.0069 6.99691 22.3688 6.7356 20.7276C6.47428 19.0865 3.95393 17.7167 3.95393 17.7167C3.95393 17.7167 7.7369 16.6247 7.51954 14.4375C7.30219 12.2502 5.91013 11.3186 5.91013 11.3186C5.91013 11.3186 7.56106 11.9201 10.9972 10.279C14.431 8.63777 13.2563 5.13945 13.2563 5.13945C13.2563 5.13945 15.5178 8.5298 17.3445 7.98377C19.1713 7.43465 20.1701 2.18408 20.1701 2.18408C20.1701 2.18408 20.6488 7.32667 23.7358 6.66958C26.8227 6.01249 30.5593 2.45864 30.5593 2.45864Z" fill="white"/>
<path d="M9.19976 19.7899C9.16557 20.302 9.14115 20.811 9.12161 21.3169L9.08254 22.8131C10.2719 21.7365 10.9948 20.7123 11.2561 19.7405C11.2927 19.5894 11.3049 19.469 11.2927 19.3796C11.2537 19.0834 11.0607 18.9693 10.7115 19.0433C10.3769 19.1112 9.87381 19.3611 9.19976 19.7899ZM6.01269 16.1311C8.06658 14.8571 9.781 14.0766 11.1608 13.7897C13.0413 13.3979 14.0768 14.0303 14.2649 15.6838C14.6581 19.0063 12.8924 22.8933 8.96775 27.348C8.94333 29.5506 8.97996 31.5774 9.08009 33.4284L5.91012 35.2763C5.90035 34.8845 5.91256 33.6752 5.94675 31.6484L6.04932 25.2255C6.1177 19.321 6.10549 16.2916 6.01269 16.1311Z" fill="#231F20"/>
<path d="M19.3618 18.0288C18.5949 18.1892 17.9184 19.1394 17.3299 20.8824C16.8536 22.2613 16.5679 23.5724 16.4727 24.8157C16.4311 25.4727 16.4434 26.0558 16.5093 26.5648C16.6045 27.2836 16.8219 27.842 17.1589 28.2399C17.5472 28.6811 18.0259 28.8415 18.5974 28.7243C19.3764 28.5608 20.0139 27.8975 20.5047 26.7314C20.8979 25.8059 21.1324 24.757 21.2081 23.5878C21.3009 22.2181 21.1861 20.9101 20.8637 19.6607C20.5316 18.4329 20.0309 17.89 19.3618 18.0288ZM19.2568 11.3499C20.7343 11.0445 21.9139 11.862 22.8004 13.8024C23.262 14.805 23.5746 15.9465 23.7431 17.2267C23.9043 18.4545 23.9336 19.815 23.831 21.3142C23.6356 23.8747 23.0422 26.3242 22.0458 28.6564C20.8295 31.5007 19.3593 33.1049 17.6303 33.4627C16.1381 33.7712 14.9438 32.9599 14.0476 31.0195C13.6055 30.0662 13.3027 28.9587 13.1366 27.697C12.973 26.4538 12.951 25.0717 13.0658 23.5508C13.2563 20.9718 13.8424 18.5193 14.8242 16.1902C16.038 13.3273 17.5155 11.7139 19.2568 11.3499Z" fill="#231F20"/>
<path d="M27.2379 16.0387C27.2061 16.5508 27.1793 17.0599 27.1597 17.5689L27.1207 19.062C28.31 17.9884 29.0353 16.9642 29.2942 15.9894C29.3308 15.8382 29.3431 15.7179 29.3333 15.6315C29.2942 15.3323 29.0988 15.2212 28.7496 15.2922C28.4175 15.3631 27.9119 15.613 27.2379 16.0387ZM24.0533 12.38C26.1047 11.1059 27.8191 10.3254 29.199 10.0416C31.0795 9.64984 32.115 10.2822 32.303 11.9358C32.6962 15.2552 30.9329 19.1453 27.0083 23.5968C26.9815 25.7995 27.0181 27.8294 27.1182 29.6803L23.9482 31.5282C23.9385 31.1333 23.9507 29.9241 23.9873 27.9003L24.0874 21.4775C24.1583 15.5729 24.1436 12.5404 24.0533 12.38Z" fill="#231F20"/>
<path d="M34.2128 8.15967L38.7016 8.17201C37.8883 11.0256 37.3071 13.2436 36.9578 14.8293C36.484 17.0011 36.1153 19.3179 35.8515 21.7858L32.9258 22.2332L34.2128 8.15967ZM34.0003 25.0065C34.4766 24.8183 34.9186 24.8153 35.3289 25.0003C35.8124 25.1885 36.0933 25.5803 36.1714 26.1757C36.2765 26.984 36.0322 27.7922 35.4363 28.5974C34.9772 29.236 34.4399 29.6709 33.8269 29.9054C33.336 30.0967 32.8965 30.1183 32.5033 29.964C32.0344 29.7758 31.7608 29.381 31.6827 28.7856C31.5777 27.9804 31.8072 27.166 32.3714 26.3454C32.8281 25.6914 33.3727 25.2471 34.0003 25.0065Z" fill="#231F20"/>
<path d="M8.69668 19.5033C8.66493 20.0154 8.63807 20.5244 8.61853 21.0334L8.57946 22.5265C9.76881 21.4529 10.4941 20.4288 10.753 19.4539C10.7896 19.3027 10.8019 19.1855 10.7921 19.0961C10.753 18.7999 10.5576 18.6858 10.2108 18.7567C9.87627 18.8277 9.37073 19.0775 8.69668 19.5033ZM5.51205 15.8445C7.5635 14.5705 9.27793 13.79 10.6578 13.5031C12.5383 13.1144 13.5738 13.7468 13.7618 15.4003C14.155 18.7197 12.3893 22.6098 8.46712 27.0614C8.44025 29.264 8.47689 31.2939 8.57702 33.1449L5.40704 34.9927C5.39727 34.5979 5.40948 33.3886 5.44611 31.3649L5.54624 24.942C5.61463 19.0374 5.60241 16.0049 5.51205 15.8445Z" fill="#ED1C24"/>
<path d="M18.8587 17.7416C18.0918 17.9021 17.4153 18.8522 16.8292 20.5952C16.3505 21.9742 16.0648 23.2853 15.972 24.5285C15.928 25.1856 15.9402 25.7687 16.0062 26.2777C16.1014 26.9965 16.3188 27.5548 16.6583 27.9528C17.0441 28.3939 17.5228 28.5574 18.0943 28.4371C18.8758 28.2736 19.5107 27.6134 20.0016 26.4473C20.3948 25.5188 20.6293 24.4699 20.705 23.3038C20.7978 21.931 20.683 20.623 20.3606 19.3767C20.0285 18.1489 19.5278 17.6028 18.8587 17.7416ZM18.7561 11.0658C20.2312 10.7573 21.4132 11.5749 22.2973 13.5153C22.7589 14.5179 23.0739 15.6593 23.2424 16.9396C23.4036 18.1674 23.4305 19.5309 23.3279 21.0271C23.135 23.5907 22.5391 26.037 21.5427 28.3693C20.3289 31.2136 18.8562 32.8177 17.1272 33.1756C15.6374 33.4872 14.4432 32.6727 13.5444 30.7354C13.1049 29.7822 12.7996 28.6747 12.6359 27.4129C12.4723 26.1666 12.4479 24.7846 12.5627 23.2668C12.7532 20.6878 13.3393 18.2322 14.3235 15.903C15.5348 13.0402 17.0124 11.4268 18.7561 11.0658Z" fill="#ED1C24"/>
<path d="M26.7372 15.7552C26.703 16.2673 26.6761 16.7763 26.6566 17.2823L26.6175 18.7784C27.8069 17.7018 28.5322 16.6776 28.7911 15.7058C28.8277 15.5547 28.8424 15.4344 28.8302 15.3449C28.7911 15.0488 28.5957 14.9346 28.2489 15.0087C27.9143 15.0765 27.4112 15.3264 26.7372 15.7552ZM23.5501 12.0934C25.6016 10.8224 27.316 10.0419 28.6958 9.755C30.5788 9.36322 31.6118 9.99563 31.8023 11.6492C32.1955 14.9716 30.4298 18.8587 26.5052 23.3133C26.4783 25.516 26.5174 27.5428 26.6175 29.3937L23.4451 31.2416C23.4353 30.8467 23.45 29.6374 23.4842 27.6137L23.5843 21.1909C23.6551 15.2863 23.6429 12.2569 23.5501 12.0934Z" fill="#ED1C24"/>
<path d="M33.7097 7.87598L38.2009 7.88832C37.3876 10.7388 36.804 12.96 36.4547 14.5456C35.9809 16.7143 35.6122 19.0342 35.3508 21.4991L32.4226 21.9464L33.7097 7.87598ZM33.4972 24.7228C33.9734 24.5346 34.4179 24.5316 34.8282 24.7167C35.3093 24.9048 35.5902 25.2966 35.6683 25.892C35.7758 26.6972 35.5291 27.5054 34.9357 28.3137C34.4741 28.9492 33.9368 29.3842 33.3238 29.6217C32.8354 29.813 32.3933 29.8315 32.0001 29.6803C31.5312 29.4891 31.2577 29.0973 31.1796 28.4988C31.0746 27.6936 31.3041 26.8792 31.8683 26.0617C32.3274 25.4077 32.8696 24.9604 33.4972 24.7228Z" fill="#ED1C24"/>
</svg>
