<svg width="45" height="45" viewBox="0 0 45 45" fill="none" xmlns="http://www.w3.org/2000/svg">
<mask id="mask0_10_226" style="mask-type:luminance" maskUnits="userSpaceOnUse" x="0" y="0" width="45" height="45">
<path d="M0 0H45V45H0V0Z" fill="white"/>
</mask>
<g mask="url(#mask0_10_226)">
<path d="M44.8079 18.2443C44.4381 16.9887 44.0195 15.7918 43.6253 14.5701C43.2354 13.3516 42.8427 12.1361 42.4528 10.9206C41.6529 8.43418 40.853 5.94772 40.0532 3.46434C39.8711 2.8998 39.6963 2.31983 39.507 1.76763C39.2619 1.04884 38.9623 1.02724 38.5753 0.993308C37.8844 0.937779 37.1935 0.879165 36.504 0.820551C35.1408 0.706409 33.7804 0.595351 32.4187 0.425679C31.6389 0.330047 30.8591 0.231329 30.0779 0.135695C29.9317 0.117186 29.7811 0.0739966 29.6349 0.0801661C29.4443 0.0863364 29.2651 0.225158 29.0845 0.339302C28.7046 0.576842 28.3262 0.814382 27.9463 1.05192C28.1198 1.26478 28.2932 1.47456 28.4652 1.68433C28.4251 1.10745 28.3563 0.626201 28.0983 0.326961C27.8288 0.0153826 27.4618 0.16346 27.1665 0.175799C26.5946 0.197394 26.0284 0.154205 25.4565 0.175799C24.8831 0.197394 24.3097 0.218989 23.7363 0.240584C23.474 0.249838 23.2375 0.256008 22.9952 0.481209C22.7243 0.731088 22.4563 0.990223 22.1868 1.24627C21.9316 1.4869 21.6765 1.73061 21.4213 1.97123C21.202 2.17792 20.9425 2.34451 20.7548 2.66535C20.5484 3.01703 20.4466 3.58157 20.3305 4.07208C20.1871 4.67981 20.0395 5.28137 19.8933 5.88602C19.3371 8.17196 18.7824 10.4579 18.2276 12.7438C17.6012 15.3228 16.9748 17.9019 16.3498 20.4809C16.6064 20.7122 16.8644 20.9467 17.1224 21.1781C17.1869 20.2372 17.3245 19.3518 17.0594 18.5003C16.7927 17.6427 16.5161 16.7944 16.248 15.9398C15.6947 14.1753 15.1414 12.4138 14.5867 10.6492C14.0391 8.90309 13.4901 7.15393 12.9425 5.40785C12.6659 4.52865 12.3906 3.64944 12.114 2.77023C11.9835 2.35377 11.8574 1.92804 11.7212 1.51775C11.5607 1.0365 11.3629 0.823637 11.0891 0.783533C10.0928 0.63237 9.088 0.610776 8.09032 0.527483C7.10412 0.441105 6.11934 0.357811 5.13457 0.271433C4.1756 0.191225 3.21662 0.117186 2.25909 0.0215529C2.0412 0.00304283 1.86489 0.0184681 1.65991 0.206649C1.44346 0.40717 1.23848 0.67556 1.02776 0.90693C0.622097 1.35116 0.054455 1.70593 0.0315199 2.86587C0.0200524 3.44275 0.0573219 4.04123 0.0702228 4.6212C0.0859907 5.24744 0.101759 5.87677 0.116093 6.50609C0.146195 7.69996 0.174864 8.89384 0.203533 10.0877C0.217867 10.6831 0.219301 11.2692 0.428583 11.7258C0.60203 12.1053 0.848581 12.2472 1.08653 12.0991C1.35602 11.9325 1.62264 11.6333 1.88353 11.405C2.14871 11.1736 2.41533 10.9422 2.68052 10.7109C2.50277 10.4209 2.32359 10.1278 2.14584 9.83783C2.32646 13.4565 2.50707 17.0782 2.68912 20.6999C2.73356 21.6007 2.77943 22.5046 2.82386 23.4085C2.8468 23.8404 2.8683 24.2753 2.8898 24.7072C2.9113 25.1422 2.97724 25.6666 2.95861 26.1016C2.94427 26.4749 2.81526 26.9222 2.74932 27.2646C2.66618 27.7027 2.58304 28.1377 2.49847 28.5727C2.33793 29.4148 2.17595 30.257 2.01397 31.0992C1.92796 31.5558 1.82189 31.9846 1.83765 32.4905C1.85342 32.978 1.99677 33.4314 2.19602 33.669C2.41103 33.9219 2.65472 33.814 2.88693 33.7739C3.12058 33.7307 3.35423 33.6906 3.58789 33.6474C3.44598 33.3451 3.3055 33.0427 3.16502 32.7404C3.26393 34.7425 3.36284 36.7416 3.46174 38.7437C3.51191 39.7432 3.56065 40.7458 3.61082 41.7453C3.63089 42.1618 3.63806 42.5721 3.74556 42.933C3.87457 43.3711 4.07956 43.5254 4.29314 43.7043C4.70024 44.0436 5.11307 44.4879 5.53163 44.7439C5.96023 45.003 6.28849 44.2411 6.60384 43.7413C7.34493 42.5567 8.08602 41.3721 8.82854 40.1875C9.18117 39.6229 9.68574 39.0923 9.80185 38.1144C9.92656 37.0655 9.98676 35.9549 10.0785 34.8875C9.82192 34.9585 9.5639 35.0325 9.30731 35.1035C10.0083 37.1241 10.7078 39.1447 11.4087 41.1685C11.5664 41.6219 11.7255 42.0754 11.8818 42.532C11.962 42.7665 12.0337 43.0102 12.1384 43.1984C12.2831 43.4637 12.4422 43.5161 12.6243 43.5593C12.9812 43.6395 13.3381 43.6981 13.6951 43.7722C14.611 43.9696 15.5299 44.1609 16.4501 44.2503C16.9662 44.2997 17.4908 44.238 18.0054 44.3367C18.5688 44.4478 19.1307 44.5557 19.694 44.6637C20.0036 44.7223 20.2817 44.5989 20.448 43.9758C20.5727 43.5068 20.5785 42.859 20.4423 42.3963C20.286 41.8564 20.0208 41.3998 19.8173 40.9433C19.5808 40.4157 19.3443 39.8851 19.1092 39.3576C19.0088 39.8728 18.9099 40.388 18.8096 40.9032C19.1378 40.9032 19.4675 40.9062 19.7958 40.9062C20.0925 40.9062 20.3634 40.9062 20.577 40.3941C20.772 39.9221 20.9067 39.2805 21.0587 38.7437C21.2264 38.1514 21.3926 37.5591 21.5604 36.9699C21.7295 36.3683 21.9044 35.776 22.0692 35.1683C22.224 34.5945 22.2541 33.9713 22.0664 33.4129C21.8686 32.8206 21.5819 32.8175 21.2751 32.8761C20.9354 32.9378 20.5942 32.9995 20.2545 33.0612C20.3907 33.4438 20.5269 33.8263 20.6616 34.2088C21.1862 31.2473 21.7109 28.2827 22.2355 25.318C22.0993 25.5402 21.9646 25.7623 21.8284 25.9844C22.0492 25.9906 22.2713 25.9967 22.4935 26.006C22.3516 25.7037 22.2111 25.4013 22.0707 25.099C21.9761 28.3012 21.8829 31.5064 21.7897 34.7086C21.7668 35.4983 21.7438 36.2881 21.7195 37.0778C21.6994 37.8028 21.5948 38.6913 21.8241 39.3082C22.0406 39.8944 22.4591 40.0425 22.7731 40.2831C23.1156 40.5422 23.4539 40.826 23.7994 41.0667C24.0717 41.2548 24.3842 41.15 24.6681 41.1314C25.0422 41.1068 25.4163 41.0821 25.7904 41.0574C26.5401 41.0111 27.2884 40.9618 28.0366 40.9155C28.4122 40.8908 28.7849 40.8661 29.159 40.8415C29.4945 40.8199 29.9546 40.9618 30.257 40.6101C30.6211 40.1875 30.6183 39.4594 30.5738 38.6882C30.5265 37.8768 30.4792 37.0655 30.4319 36.2511C30.2226 32.6571 30.0119 29.0601 29.8026 25.463C29.7324 25.7253 29.6636 25.9844 29.5934 26.2466C29.9188 25.8579 30.247 25.4846 30.5695 25.0867C30.7659 24.8461 30.925 24.519 30.9623 24.0255C30.6856 23.9453 30.409 23.865 30.1323 23.7848C30.3674 29.5197 30.6039 35.2577 30.839 40.9926C30.8648 41.6374 30.8419 42.3994 31.0555 42.9145C31.2676 43.4266 31.6475 43.5655 31.9385 43.7845C32.2338 44.0066 32.5276 44.2256 32.8229 44.4478C33.1655 44.7038 33.4637 44.9784 33.7962 44.5218C34.3624 43.7506 34.8942 42.8127 35.4375 41.9644C35.9722 41.1314 36.5068 40.2985 37.0415 39.4656C37.1533 39.2928 37.2766 39.1293 37.3698 38.9103C37.506 38.5925 37.5404 38.2162 37.5748 37.809C37.6393 37.0316 37.7109 36.2603 37.7797 35.486C37.9159 33.9497 38.0507 32.4134 38.1868 30.874C38.1223 31.056 38.0578 31.235 37.9933 31.417C39.5844 29.7264 41.177 28.039 42.7681 26.3515C43.1465 25.9474 43.525 25.5463 43.9063 25.1576C44.2403 24.8152 44.5958 24.4975 44.6832 23.6429C44.7692 22.7915 44.7778 21.8722 44.8222 21.0053C44.8695 20.0922 44.9985 19.1081 44.8079 18.2443C44.7104 17.8001 44.4151 17.689 44.2302 17.9204C44.0195 18.1857 43.9808 18.7132 44.0783 19.1605C44.0568 19.0587 44.0697 19.2469 44.0697 19.2685C44.0697 19.3672 44.0582 19.469 44.0525 19.5677C44.0396 19.8022 44.0281 20.0335 44.0152 20.268C43.9908 20.7585 43.965 21.249 43.9392 21.7426C43.9163 22.1868 43.8633 22.6712 43.869 23.1185C43.8719 23.3313 43.826 23.245 43.9063 23.1277C43.8188 23.2511 43.7171 23.3437 43.6239 23.4424C42.8169 24.2969 42.007 25.1422 41.1999 25.9967C40.3671 26.879 39.5357 27.7613 38.7043 28.6436C38.495 28.8657 38.2857 29.0878 38.0765 29.31C37.87 29.529 37.5361 29.7326 37.4142 30.1768C37.3124 30.5532 37.3081 31.1208 37.2709 31.5435C37.2264 32.0463 37.182 32.5461 37.1376 33.0489C37.0544 33.9991 36.9698 34.9492 36.8867 35.8994C36.8466 36.3436 36.805 36.7909 36.7677 37.2383C36.7577 37.3462 36.7505 37.4604 36.7405 37.5683C36.7362 37.627 36.6803 37.883 36.7262 37.7596C36.7706 37.6455 36.6961 37.7658 36.7047 37.7627C36.6617 37.7843 36.5871 37.9447 36.5556 37.9941C35.8202 39.1417 35.0834 40.2862 34.3481 41.4338C34.1617 41.7238 33.9754 42.0137 33.789 42.3037C33.6959 42.4487 33.6027 42.5937 33.5095 42.7387C33.488 42.7726 33.4163 42.8528 33.4049 42.9022C33.3461 42.967 33.3604 42.9978 33.4493 43.0009C33.4221 42.9793 33.3963 42.9608 33.369 42.9392C32.9447 42.5937 32.5104 42.2976 32.0832 41.9767C31.9757 41.8965 31.8682 41.8163 31.7607 41.7361C31.8267 41.7855 31.6489 41.6497 31.6475 41.6528C31.6704 41.7052 31.6934 41.7577 31.7163 41.8101C31.7163 41.7824 31.7149 41.7577 31.7134 41.733C31.745 41.6528 31.6891 41.116 31.6833 40.9926C31.6719 40.715 31.6604 40.4404 31.6503 40.1628C31.6088 39.1756 31.5686 38.1884 31.5285 37.2012C31.345 32.7281 31.1615 28.258 30.9766 23.7848C30.9594 23.3344 30.8304 22.9488 30.6111 22.8933C30.4219 22.8439 30.1825 23.0938 30.1481 23.5442C30.1395 23.6491 30.0936 23.7972 30.1438 23.6368C30.1968 23.4702 30.161 23.5535 30.1495 23.5905C30.2269 23.3591 30.2112 23.4393 30.1051 23.5658C30.0435 23.6398 29.9804 23.7139 29.9173 23.7879C29.6679 24.0872 29.417 24.3833 29.1676 24.6795C29.0501 24.8183 28.9397 25.1638 28.9583 25.463C29.1261 28.3413 29.2938 31.2195 29.4615 34.0978C29.5489 35.5971 29.6364 37.0963 29.7238 38.5925C29.7324 38.756 29.7281 39.0059 29.7568 39.154C29.7582 39.1879 29.7596 39.2188 29.7611 39.2496C29.7654 39.4748 29.8041 39.3915 29.8772 38.9967C29.8127 38.8825 29.5045 39.009 29.4185 39.0121C29.073 39.0368 28.7276 39.0584 28.3835 39.08C27.0289 39.1663 25.6758 39.2527 24.3226 39.3391C24.2552 39.3453 24.1864 39.3607 24.1191 39.3545C24.0976 39.3545 24.0746 39.3576 24.0517 39.3576C24.066 39.3514 24.0703 39.3484 24.0631 39.3453C23.9313 39.299 23.7965 39.1509 23.6704 39.0522C23.3292 38.7807 22.9838 38.5247 22.6397 38.2625C22.6053 38.2378 22.5079 38.1329 22.4806 38.1421C22.472 38.136 22.462 38.1298 22.4534 38.1236C22.5107 38.4969 22.5365 38.5401 22.5308 38.2501C22.5752 37.9354 22.5523 37.4974 22.5623 37.1673C22.5838 36.4423 22.6053 35.7143 22.6268 34.9893C22.7229 31.6915 22.8189 28.3968 22.915 25.099C22.9293 24.6054 22.71 24.1982 22.4935 24.192C22.2713 24.1859 22.0492 24.1766 21.8284 24.1705C21.6277 24.1643 21.4873 24.4635 21.4213 24.8368C20.8967 27.8014 20.372 30.763 19.8474 33.7276C19.7542 34.252 19.9965 34.9215 20.2545 34.8752C20.4537 34.8382 20.6516 34.8012 20.8494 34.7672C21.0314 34.7333 21.2737 34.7765 21.4443 34.6562C21.4729 34.65 21.5016 34.6469 21.5303 34.6407C21.45 34.6191 21.3955 34.5389 21.3654 34.3939C21.4056 34.0484 21.3969 34.0022 21.3396 34.252C21.3253 34.3045 21.3095 34.3569 21.2952 34.4094C21.192 34.7734 21.0888 35.1405 20.9856 35.5045C20.7949 36.1801 20.6043 36.8526 20.415 37.5252C20.3161 37.8707 20.2187 38.2162 20.1212 38.5617C20.0538 38.7992 19.9979 39.1139 19.8961 39.2867C19.9578 39.2064 20.0194 39.1293 20.0825 39.0522C19.9248 39.191 19.6783 39.0923 19.5077 39.0923C19.2755 39.0923 19.0432 39.0923 18.8096 39.0923C18.4383 39.0892 18.2606 40.0764 18.5114 40.6379C18.7566 41.1901 19.0031 41.7392 19.2482 42.2914C19.3672 42.5567 19.4847 42.8189 19.6023 43.0842C19.6324 43.149 19.6611 43.2199 19.6912 43.2816C19.7714 43.4451 19.7112 43.4544 19.7055 43.2755C19.7041 43.2199 19.7012 43.1243 19.7127 43.075C19.7327 42.9855 19.803 42.9732 19.8216 42.9145C19.8531 42.8127 19.8574 42.8991 19.7786 42.8683C19.737 42.8498 19.6926 42.8528 19.651 42.8436C19.5664 42.8282 19.4833 42.8097 19.3987 42.7942C19.2153 42.7603 19.0318 42.7233 18.8497 42.6893C18.5028 42.6215 18.1502 42.5104 17.8019 42.495C16.5419 42.4302 15.2962 42.2976 14.0405 42.0353C13.8255 41.9891 13.6105 41.9397 13.3941 41.8965C13.1274 41.841 12.7949 41.9027 12.5483 41.6836C12.6114 41.7608 12.673 41.841 12.7347 41.9181C12.61 41.7052 12.5182 41.3474 12.4222 41.0728C12.319 40.7736 12.2158 40.4774 12.1126 40.1782C11.8803 39.5057 11.6467 38.8332 11.413 38.1606C10.9543 36.8372 10.4956 35.5138 10.0369 34.1903C9.93373 33.8911 9.79755 33.6967 9.6155 33.7554C9.46212 33.8047 9.29441 34.0515 9.26431 34.4063C9.18977 35.2639 9.11523 36.1246 9.04213 36.9853C9.02636 37.1642 9.01202 37.6084 8.98192 37.7041C8.92172 37.8953 8.6852 38.1699 8.57339 38.3457C7.92548 39.3823 7.27756 40.4157 6.62965 41.4523C6.47914 41.6929 6.32719 41.9335 6.17668 42.1742C6.02617 42.4148 5.80972 42.6461 5.68931 42.9546C5.68071 42.967 5.67211 42.9793 5.66351 42.9947C5.60187 43.078 5.63484 43.0811 5.76242 43.0009C5.76242 43.004 5.72515 42.9516 5.73948 42.9793C5.69218 42.8806 5.54167 42.8158 5.48146 42.7634C5.29511 42.606 5.10733 42.4487 4.91955 42.2914C4.83928 42.2266 4.75901 42.1587 4.67873 42.0909C4.6515 42.0662 4.45512 41.8471 4.42502 41.8749C4.37914 41.9181 4.47949 41.9088 4.46085 41.9767C4.45225 42.0107 4.46372 41.9335 4.46515 41.9335C4.49525 41.8379 4.43362 41.2949 4.42788 41.1839C4.38631 40.3386 4.34474 39.4933 4.30174 38.6512C4.20427 36.6799 4.10679 34.7117 4.00932 32.7404C3.98782 32.2869 3.83444 31.7903 3.58789 31.8334C3.40871 31.8674 3.22953 31.8982 3.05178 31.9322C2.96864 31.9476 2.88693 31.9599 2.80379 31.9753C2.76366 31.9846 2.72209 31.9908 2.68052 31.9969C2.54864 32.0216 2.4784 31.9291 2.59451 32.2283C2.73356 32.5892 2.64181 32.4257 2.69485 32.2777C2.71922 32.216 2.73212 32.0926 2.74502 32.0185C2.78516 31.8149 2.82386 31.6113 2.86256 31.4077C2.93567 31.0314 3.00734 30.6519 3.08045 30.2755C3.22953 29.492 3.38004 28.7053 3.53055 27.9217C3.60365 27.5454 3.67533 27.1659 3.74843 26.7896C3.83587 26.3361 3.79573 25.9289 3.77137 25.4507C3.60652 22.1498 3.44167 18.8489 3.27683 15.548C3.18079 13.6446 3.08618 11.7412 2.99014 9.83783C2.96434 9.32264 2.73642 8.71799 2.45547 8.9617C2.04407 9.32264 1.63267 9.68049 1.21984 10.0383C1.13527 10.1155 1.01343 10.1648 0.941755 10.2821C0.92742 10.2944 0.914519 10.3067 0.901618 10.3191C0.808445 10.3777 0.850015 10.4209 1.02489 10.4425C1.05213 10.4332 1.0378 10.5875 1.05643 10.4949C1.08223 10.3746 1.04783 10.0414 1.04353 9.89953C1.0378 9.61571 1.03063 9.3319 1.02346 9.05117C0.976157 7.13234 0.930287 5.21659 0.882984 3.30084C0.882984 3.25148 0.880117 2.93065 0.874383 2.92448C0.934588 2.97384 0.685169 3.1651 0.834247 3.14968C0.908785 3.14351 1.03493 2.93065 1.10517 2.85353C1.31158 2.62833 1.51943 2.40621 1.72441 2.17484C1.84482 2.0391 1.96093 1.82933 2.08851 1.82316C2.29349 1.81082 2.50134 1.86018 2.70489 1.8756C3.57212 1.94964 4.44078 2.02676 5.30801 2.1008C7.06111 2.24888 8.81421 2.40004 10.5673 2.5512C10.6691 2.56046 10.7709 2.56971 10.8712 2.57588C10.9601 2.58514 11.1077 2.68694 10.9959 2.44631C11.1507 2.77949 11.2625 3.29467 11.3844 3.68646C11.6281 4.46078 11.8717 5.23818 12.1154 6.0125C12.6071 7.58274 13.1002 9.14989 13.5933 10.7201C14.138 12.4569 14.6841 14.1968 15.2303 15.9337C15.5012 16.8005 15.7736 17.6674 16.0459 18.5343C16.1104 18.7379 16.1735 18.9446 16.2394 19.1451C16.2781 19.2654 16.3742 19.4597 16.3885 19.5955C16.3985 19.688 16.3699 19.8392 16.3613 19.9317C16.3412 20.1847 16.324 20.4408 16.3068 20.6968C16.2753 21.1441 16.3412 21.5853 16.5519 21.7673C16.7383 21.9277 16.9805 21.8012 17.0794 21.394C18.0972 17.1985 19.1163 13.003 20.1355 8.80746C20.3849 7.77709 20.6358 6.74363 20.8866 5.71326C21.0085 5.20733 21.1346 4.70757 21.2507 4.19547C21.2909 4.02272 21.2622 4.07208 21.3468 4.00421C21.4815 3.89624 21.6134 3.75741 21.7453 3.63402C22.214 3.18978 22.6813 2.74555 23.15 2.30441C23.355 2.10697 23.4726 2.0607 23.6991 2.05453C23.9614 2.04219 24.2237 2.03293 24.486 2.02368C24.7956 2.01134 25.1053 2.00208 25.4149 1.98974C25.5554 1.98666 25.6958 1.98049 25.8363 1.97432C25.9739 1.96815 26.0757 2.00517 26.2018 2.02368C26.5186 2.06995 26.8483 1.999 27.1665 1.98666C27.3128 1.98357 27.459 1.9774 27.6052 1.97123C27.7012 1.96815 27.8575 2.08846 27.6998 1.83241C27.6209 1.63806 27.5966 1.64732 27.6295 1.85401C27.6367 1.95889 27.6439 2.06378 27.6511 2.16867C27.6855 2.64683 27.9721 2.92448 28.1714 2.80108C28.4824 2.60365 28.7949 2.40929 29.1074 2.21186C29.2508 2.1224 29.3941 2.02059 29.5389 1.94038C29.6751 1.86635 29.8098 1.91262 29.9489 1.93113C30.6125 2.01751 31.2777 2.09772 31.9428 2.18101C33.2615 2.34451 34.5789 2.47408 35.8991 2.58205C36.5613 2.63758 37.2221 2.69311 37.8844 2.74864C37.9862 2.75789 38.8333 2.85353 38.8348 2.82885C38.8319 2.87512 38.7344 2.50493 38.8032 2.75789C38.8391 2.89055 38.8864 3.01703 38.9265 3.14351C39.0426 3.50445 39.1587 3.8623 39.2734 4.22324C40.0331 6.58322 40.7928 8.94319 41.5511 11.3032C41.9754 12.6204 42.3997 13.9377 42.8226 15.255C43.2411 16.5537 43.6855 17.8278 44.0783 19.1605C44.3693 20.1415 45.1003 19.2345 44.8079 18.2443Z" fill="white"/>
</g>
<path d="M30.8878 23.0138C30.5366 21.4652 30.1854 19.9165 29.8328 18.3648C29.7855 18.152 29.7368 17.9391 29.688 17.7262C29.6651 17.6244 29.6436 17.5226 29.6192 17.4208C29.5948 17.3221 29.5676 17.2265 29.5461 17.1247C29.5604 17.1956 29.5748 17.2697 29.5891 17.3406C29.5561 17.1648 29.5475 16.9673 29.5346 16.7792C29.5404 16.8594 29.5447 16.9396 29.5504 17.0198C29.4357 15.1842 29.2981 13.3549 29.1662 11.5224C29.1318 11.0196 29.096 10.5167 29.0602 10.0139C28.9613 10.3872 28.8624 10.7574 28.7649 11.1306C29.2064 10.9455 29.6479 10.7604 30.0894 10.5753C29.9116 10.2854 29.7325 9.99537 29.5547 9.7023C29.6292 11.5193 29.7038 13.3394 29.7783 15.1565C29.8529 16.9642 29.9274 18.7751 30.0005 20.5829C30.0421 21.5886 30.0836 22.5973 30.1252 23.603C30.4019 23.5228 30.6785 23.4426 30.9552 23.3624C30.9394 23.2421 30.915 23.1218 30.8878 23.0138C30.8376 22.8164 30.7344 22.656 30.6355 22.5973C30.5782 22.5603 30.5223 22.5542 30.4664 22.5819C30.4105 22.585 30.3574 22.622 30.3087 22.6868C30.2198 22.8133 30.1396 22.9984 30.1152 23.2298C30.0894 23.4704 30.1008 23.7079 30.1582 23.927C30.1639 23.9486 30.1682 23.9701 30.1725 23.9917C30.1582 23.9208 30.1439 23.8467 30.1295 23.7758C30.1338 23.7974 30.1367 23.8221 30.1396 23.8437C30.1682 24.0534 30.2428 24.2817 30.3345 24.3866C30.3675 24.4144 30.4019 24.4452 30.4348 24.4761C30.4907 24.5162 30.5481 24.5193 30.604 24.4915C30.6413 24.4915 30.6771 24.473 30.7101 24.4298C30.7631 24.3959 30.8075 24.3311 30.8462 24.2447C30.9179 24.075 30.9795 23.8406 30.9695 23.603C30.895 21.7922 30.8219 19.9844 30.7473 18.1735C30.6728 16.3658 30.5983 14.558 30.5251 12.7471C30.4821 11.7322 30.4406 10.7172 30.399 9.7023C30.399 9.5388 30.3804 9.38764 30.3417 9.24573C30.3159 9.14085 30.2786 9.05447 30.2327 8.99277C30.1926 8.91256 30.1439 8.85703 30.0894 8.82927C30.0148 8.78608 29.9389 8.78608 29.8643 8.82927C29.4228 9.01436 28.9813 9.19946 28.5398 9.38147C28.4854 9.40923 28.4366 9.46476 28.3965 9.54497C28.3506 9.60976 28.3133 9.69305 28.2875 9.79794C28.2732 9.87198 28.2589 9.94293 28.2445 10.0139C28.2245 10.1774 28.2245 10.3378 28.2445 10.4982C28.3607 12.1332 28.4782 13.7683 28.5943 15.4033C28.6273 15.866 28.6631 16.3288 28.6932 16.7915C28.6875 16.7113 28.6832 16.6311 28.6774 16.5509C28.6961 16.8624 28.7118 17.174 28.7362 17.4825C28.7448 17.5936 28.7534 17.7077 28.772 17.8126C28.8036 17.9792 28.838 18.1365 28.8781 18.2969C28.934 18.5129 28.9813 18.7381 29.0315 18.9602C29.0817 19.1854 29.1333 19.4137 29.1849 19.6389C29.3913 20.552 29.5991 21.4621 29.8056 22.3752C29.9231 22.8935 30.0406 23.4087 30.1582 23.927C30.184 24.0349 30.2213 24.1182 30.2671 24.183C30.3073 24.2632 30.356 24.3157 30.4105 24.3434C30.4664 24.3835 30.5223 24.3866 30.5782 24.3619C30.6355 24.3558 30.6871 24.3187 30.7359 24.254C30.8262 24.1275 30.905 23.9424 30.9294 23.711C30.9351 23.6308 30.9394 23.5506 30.9451 23.4704C30.9451 23.3069 30.9251 23.1557 30.8878 23.0138Z" fill="white"/>
<path d="M37.9145 18.1735C38.0091 18.5869 38.1037 19.0002 38.1983 19.4167C38.25 19.0033 38.3001 18.5899 38.3503 18.1766C38.2299 18.3123 38.1095 18.448 37.9891 18.5838C38.1998 18.8429 38.4119 19.1051 38.6241 19.3643C38.6499 18.8151 38.6757 18.266 38.7015 17.7169C38.7029 17.5904 38.6915 17.4763 38.6642 17.3683C38.6485 17.2542 38.6183 17.1585 38.5768 17.0752C38.5395 16.9858 38.4936 16.9241 38.442 16.8871C38.3904 16.8315 38.3374 16.8038 38.2786 16.8099C38.2414 16.8192 38.2041 16.8315 38.1668 16.8408C38.0951 16.884 38.0321 16.9642 37.9805 17.0752C37.9575 17.1369 37.936 17.1986 37.9145 17.2573C37.8758 17.3992 37.8572 17.5534 37.8558 17.7169C37.83 18.266 37.8042 18.8151 37.7798 19.3643C37.7798 19.5278 37.7984 19.682 37.8371 19.8239C37.8744 19.9597 37.9246 20.0676 37.9891 20.1478C38.055 20.2311 38.1252 20.2712 38.2012 20.2712C38.2772 20.2712 38.3489 20.2311 38.4148 20.1478C38.5352 20.0121 38.6556 19.8764 38.7775 19.7406C38.8262 19.682 38.8649 19.6049 38.895 19.5062C38.9323 19.4198 38.9581 19.318 38.971 19.1977C38.9753 19.1175 38.981 19.0373 38.9867 18.9571C38.9853 18.7936 38.9667 18.6424 38.928 18.5005C38.8334 18.0871 38.7388 17.6737 38.6441 17.2573C38.6169 17.1524 38.5811 17.0691 38.5352 17.0043C38.4936 16.9241 38.4463 16.8685 38.3904 16.8408C38.3345 16.8038 38.2786 16.7976 38.2227 16.8254C38.1668 16.8315 38.1138 16.8685 38.065 16.9333C38.0364 16.9796 38.0091 17.029 37.9805 17.0752C37.9274 17.1894 37.8916 17.322 37.8715 17.4763C37.8658 17.5565 37.8615 17.6367 37.8558 17.7169C37.8572 17.8804 37.8758 18.0316 37.9145 18.1735Z" fill="white"/>
<path d="M10.9529 17.2201C10.9644 16.9456 10.9773 16.671 10.9902 16.3964C10.7279 16.5507 10.4655 16.7018 10.2032 16.853C10.3437 17.4854 10.4842 18.1148 10.6261 18.7441C10.6648 18.923 10.7049 19.1019 10.7451 19.2778C10.7952 18.8644 10.8468 18.451 10.897 18.0376C10.6676 18.3029 10.4369 18.5682 10.2075 18.8335C10.4197 19.0958 10.6318 19.3549 10.844 19.6171C10.8712 18.994 10.8999 18.3739 10.9285 17.7507C10.9357 17.5749 10.9443 17.399 10.9529 17.2201C10.9543 17.0967 10.9429 16.9795 10.9156 16.8715C10.8984 16.7605 10.8698 16.6617 10.8282 16.5785C10.7909 16.4921 10.7451 16.4304 10.6934 16.3934C10.6418 16.3347 10.5888 16.3101 10.53 16.3131C10.4928 16.3255 10.4555 16.3347 10.4182 16.3471C10.3466 16.3903 10.2835 16.4674 10.2319 16.5785C10.2089 16.6401 10.1874 16.7018 10.1645 16.7635C10.1272 16.9055 10.1072 17.0566 10.1072 17.2201C10.0785 17.8433 10.0513 18.4633 10.0226 19.0834C10.014 19.2623 10.0068 19.4382 9.99823 19.6171C9.99823 19.7806 10.0183 19.9318 10.0556 20.0737C10.0928 20.2094 10.1444 20.3174 10.2075 20.3976C10.2735 20.4809 10.3451 20.521 10.4211 20.5241C10.4971 20.521 10.5687 20.4809 10.6347 20.3976C10.864 20.1323 11.0934 19.8701 11.3227 19.6048C11.3729 19.5462 11.4116 19.469 11.4417 19.3703C11.479 19.2839 11.5048 19.1791 11.5177 19.0618C11.522 18.9816 11.5277 18.9014 11.532 18.8212C11.532 18.6577 11.5134 18.5035 11.4747 18.3646C11.3342 17.7353 11.1937 17.106 11.0518 16.4766C11.0117 16.2977 10.973 16.1188 10.9328 15.9399C10.9099 15.8782 10.8884 15.8165 10.8669 15.7548C10.8282 15.6684 10.7823 15.6067 10.7307 15.5697C10.6977 15.5265 10.6619 15.508 10.6232 15.508C10.5673 15.4802 10.5114 15.4864 10.4555 15.5234C10.4211 15.5543 10.3881 15.5851 10.3537 15.6129C10.3265 15.6622 10.2978 15.7085 10.2692 15.7548C10.2276 15.8381 10.1989 15.9368 10.1817 16.0478C10.1545 16.1558 10.143 16.273 10.1444 16.3964C10.133 16.671 10.1201 16.9456 10.1072 17.2201C10.1057 17.3466 10.1172 17.4607 10.1444 17.5687C10.1616 17.6829 10.1903 17.7785 10.2319 17.8618C10.2692 17.9512 10.315 18.0129 10.3666 18.05C10.4182 18.1055 10.4713 18.1302 10.53 18.1271C10.5673 18.1148 10.6046 18.1055 10.6418 18.0932C10.7135 18.0531 10.7766 17.9728 10.8282 17.8618C10.8511 17.8001 10.8726 17.7384 10.8941 17.6767C10.9328 17.5379 10.9529 17.3836 10.9529 17.2201Z" fill="white"/>
<path d="M14.7544 29.6033C14.5537 29.156 14.3545 28.7056 14.1538 28.2583C13.9545 27.811 13.7553 27.3667 13.556 26.9194C13.4428 26.6634 13.3281 26.4104 13.2149 26.1574C13.1862 26.6294 13.159 27.1045 13.1303 27.5796C13.5331 27.1971 13.9359 26.8114 14.3387 26.4289C14.7401 26.0464 15.1414 25.6638 15.5428 25.2813C15.7693 25.0654 15.9943 24.8525 16.2194 24.6366C16.0273 24.2232 15.8338 23.8098 15.6417 23.3964C15.4396 24.2324 15.236 25.0654 15.0339 25.8983C14.8332 26.7281 14.6311 27.558 14.4304 28.3848C14.3172 28.8537 14.2039 29.3195 14.0907 29.7853C14.0592 29.8902 14.0434 30.0013 14.0405 30.1216C14.0276 30.245 14.0305 30.3653 14.0477 30.4856C14.0606 30.6028 14.0864 30.7046 14.1237 30.7941C14.1538 30.8897 14.1925 30.9699 14.2426 31.0255C14.2756 31.0563 14.31 31.0872 14.343 31.118C14.4175 31.1612 14.4921 31.1612 14.568 31.118C14.601 31.0872 14.6354 31.0563 14.6684 31.0255C14.7315 30.9453 14.7831 30.8373 14.8203 30.7015C15.0224 29.8686 15.2246 29.0388 15.4252 28.2058C15.6274 27.376 15.828 26.5461 16.0301 25.7163C16.1434 25.2474 16.2581 24.7815 16.3713 24.3126C16.3856 24.2386 16.4 24.1676 16.4143 24.0967C16.4315 23.9764 16.4344 23.8561 16.4215 23.7358C16.4215 23.6525 16.4114 23.5753 16.3928 23.5044C16.3756 23.3933 16.3469 23.2946 16.3054 23.2144C16.2767 23.1681 16.248 23.1188 16.2194 23.0725C16.1864 23.0416 16.152 23.0108 16.119 22.9799C16.0631 22.9429 16.0058 22.9368 15.9499 22.9645C15.894 22.9707 15.8409 23.0046 15.7936 23.0725C15.3908 23.455 14.9895 23.8376 14.5867 24.2201C14.1853 24.6026 13.7825 24.9852 13.3812 25.3677C13.1561 25.5836 12.9296 25.7996 12.7031 26.0155C12.6401 26.0957 12.5899 26.2037 12.5512 26.3394C12.5211 26.4443 12.5039 26.5554 12.501 26.6757C12.4896 26.796 12.491 26.9163 12.5096 27.0366C12.5297 27.1909 12.5655 27.3235 12.6186 27.4377C12.8192 27.8881 13.0199 28.3385 13.2206 28.7889C13.4199 29.2362 13.6191 29.6804 13.8198 30.1277C13.9316 30.3807 14.0434 30.6337 14.1566 30.8836C14.1953 30.973 14.2398 31.0347 14.2928 31.0717C14.343 31.1273 14.3975 31.155 14.4548 31.1489C14.5136 31.155 14.568 31.1273 14.6182 31.0717C14.6698 31.0347 14.7157 30.973 14.7544 30.8836C14.7759 30.8219 14.7974 30.7632 14.8203 30.7015C14.8576 30.5596 14.8777 30.4085 14.8777 30.245C14.8734 30.1617 14.8676 30.0815 14.8633 30.0013C14.8433 29.8501 14.806 29.7144 14.7544 29.6033Z" fill="white"/>
<path d="M36.6832 9.51387C37.4257 12.75 38.1682 15.9861 38.9093 19.2222C37.9676 20.2834 37.0244 21.3446 36.0811 22.4058C36.2818 18.1085 36.4825 13.8112 36.6832 9.51387ZM37.1992 2.5234C34.6649 2.20565 32.1292 1.89099 29.5934 1.57324C29.0415 1.92184 28.4882 2.26735 27.9363 2.61595C28.0223 5.02529 28.1084 7.43463 28.1958 9.84396C28.8638 9.56632 29.5318 9.28559 30.2012 9.00794C30.6513 19.978 31.1014 30.948 31.5515 41.9181C32.1679 42.3808 32.7842 42.8405 33.4006 43.3032C34.2119 38.9411 35.0218 34.5821 35.8332 30.2231C38.3876 27.5145 40.9419 24.8028 43.4963 22.0943C41.3978 15.5696 39.2978 9.04805 37.1992 2.5234Z" fill="#0C0C0C"/>
<path d="M37.1992 1.93117C35.9808 1.77692 34.761 1.62576 33.5411 1.4746C32.327 1.32344 31.1143 1.17227 29.9002 1.02111C29.8099 1.00877 29.7196 0.990263 29.6292 0.987178C29.5346 0.981009 29.4443 1.05505 29.3526 1.11058C29.192 1.21238 29.0301 1.31418 28.8695 1.41598C28.5355 1.62268 28.2015 1.83245 27.8675 2.04223C27.7658 2.10701 27.6697 2.35998 27.6783 2.61603C27.7658 5.02536 27.8518 7.4347 27.9378 9.84404C27.9521 10.2512 28.0897 10.4888 28.2646 10.4148C28.9326 10.1371 29.6006 9.85946 30.2686 9.57873C30.1611 9.38747 30.0521 9.1962 29.9432 9.00802C30.1195 13.2899 30.2944 17.5718 30.4707 21.8568C30.647 26.1387 30.8219 30.4237 30.9982 34.7056C31.0971 37.1087 31.196 39.515 31.2949 41.9181C31.3049 42.1927 31.3666 42.4025 31.4827 42.4889C32.0991 42.9516 32.7154 43.4143 33.3318 43.874C33.4293 43.948 33.5798 43.8308 33.6228 43.6025C34.2535 40.2122 34.8842 36.8187 35.515 33.4284C35.6956 32.4597 35.8747 31.4911 36.0554 30.5224C36.0253 30.5933 35.9937 30.6643 35.9636 30.7352C37.959 28.619 39.9529 26.5027 41.9482 24.3864C42.5073 23.7941 43.0663 23.1987 43.6254 22.6064C43.7429 22.483 43.7945 22.0357 43.7185 21.7951C42.8986 19.2469 42.0787 16.7019 41.2602 14.1537C40.4403 11.6055 39.6218 9.06046 38.8018 6.5123C38.3417 5.08398 37.8816 3.65257 37.4214 2.22424C37.3397 1.9651 37.1992 1.83554 37.0702 2.01138C36.9599 2.15945 36.8939 2.56358 36.9771 2.82272C37.797 5.37088 38.6169 7.91595 39.4354 10.4641C40.2553 13.0092 41.0738 15.5573 41.8938 18.1055C42.3539 19.5338 42.814 20.9652 43.2742 22.3936C43.3043 22.1221 43.3358 21.8537 43.3659 21.5822C41.6286 23.4239 39.8912 25.2687 38.1539 27.1135C37.721 27.5701 37.2881 28.0298 36.8538 28.4894C36.6345 28.7239 36.4166 28.9552 36.1973 29.1866C36.0926 29.2977 35.988 29.4087 35.8848 29.5198C35.8346 29.5722 35.7844 29.6185 35.7357 29.6771C35.6397 29.7882 35.6096 29.9362 35.568 30.1522C35.1939 32.1667 34.8197 34.1811 34.4442 36.1956C34.0227 38.4661 33.5999 40.7335 33.1784 43.004C33.2745 42.9115 33.372 42.822 33.4694 42.7295C32.8531 42.2698 32.2367 41.8071 31.6203 41.3474C31.6834 41.5356 31.7464 41.7269 31.8095 41.9181C31.6332 37.6363 31.4569 33.3513 31.282 29.0694C31.1057 24.7844 30.9294 20.5025 30.7545 16.2206C30.6556 13.8144 30.5567 11.4112 30.4578 9.00802C30.4406 8.60081 30.3073 8.36018 30.1324 8.43422C29.4644 8.71495 28.795 8.99259 28.127 9.27332C28.2359 9.46151 28.3449 9.65277 28.4524 9.84404C28.3664 7.4347 28.2804 5.02536 28.1929 2.61603C28.1313 2.80421 28.0682 2.99547 28.0052 3.18674C28.2918 3.00473 28.58 2.8258 28.8681 2.64379C29.0114 2.55433 29.1562 2.46486 29.2996 2.3754C29.3741 2.32604 29.4486 2.27977 29.5246 2.23349C29.5977 2.18722 29.645 2.17488 29.7196 2.18413C30.3202 2.25817 30.9222 2.33221 31.5228 2.40933C32.7298 2.5605 33.9382 2.70857 35.1451 2.85974C35.8303 2.94611 36.5155 3.02941 37.1992 3.11579C37.3383 3.1343 37.4573 2.83197 37.4573 2.52348C37.4573 2.18722 37.3397 1.94659 37.1992 1.93117Z" fill="#0C0C0C"/>
<path d="M36.4624 9.81637C36.752 11.0781 37.0401 12.3398 37.3311 13.6016C37.6192 14.8664 37.9088 16.1281 38.1983 17.3899C38.3618 18.0994 38.5252 18.809 38.6871 19.5216C38.7187 19.2501 38.7488 18.9786 38.7803 18.7072C38.045 19.537 37.3096 20.3638 36.5743 21.1905C36.3664 21.425 36.16 21.6594 35.9521 21.8939C36.0811 22.0636 36.2102 22.2332 36.3392 22.406C36.418 20.7278 36.4954 19.0527 36.5743 17.3745C36.6517 15.6993 36.7305 14.0211 36.8093 12.346C36.8538 11.402 36.8968 10.458 36.9412 9.51404C36.9484 9.37522 36.9082 9.19321 36.8652 9.09757C36.8208 8.99269 36.7477 8.91556 36.6832 8.92173C36.6173 8.9279 36.5484 8.98035 36.5026 9.09757C36.4524 9.21789 36.4338 9.35054 36.4266 9.51404C36.3478 11.1922 36.2704 12.8705 36.1915 14.5456C36.1127 16.2238 36.0353 17.8989 35.9564 19.5771C35.912 20.518 35.869 21.462 35.8246 22.406C35.8145 22.6065 35.8805 22.8194 35.9521 22.9181C36.0353 23.0292 36.127 23.0137 36.2116 22.9181C36.9469 22.0883 37.6823 21.2615 38.4177 20.4347C38.6241 20.2003 38.8319 19.9658 39.0398 19.7344C39.0928 19.6727 39.1444 19.5092 39.1573 19.3797C39.1731 19.2193 39.1659 19.0681 39.1315 18.92C38.842 17.6583 38.5524 16.3965 38.2628 15.1348C37.9733 13.87 37.6837 12.6082 37.3942 11.3465C37.2322 10.637 37.0688 9.92742 36.9054 9.2148C36.8437 8.94024 36.6674 8.83535 36.5542 9.00503C36.4323 9.18395 36.3936 9.52021 36.4624 9.81637Z" fill="#0C0C0C"/>
<mask id="mask1_10_226" style="mask-type:luminance" maskUnits="userSpaceOnUse" x="29" y="1" width="16" height="43">
<path d="M29.6177 1.74609H44.2374V43.3033H29.6177V1.74609Z" fill="white"/>
</mask>
<g mask="url(#mask1_10_226)">
<mask id="mask2_10_226" style="mask-type:luminance" maskUnits="userSpaceOnUse" x="29" y="1" width="16" height="43">
<path d="M38.399 9.51397C39.1415 12.7501 39.8826 15.9862 40.6251 19.2223C39.6819 20.2835 38.7402 21.3447 37.7969 22.4059C37.9976 18.1086 38.1983 13.8113 38.399 9.51397ZM38.915 2.5235C35.8159 2.26436 32.7168 2.00523 29.6177 1.74609C29.708 4.09065 29.7984 6.4352 29.8887 8.78284C30.5652 8.85688 31.2404 8.93092 31.9155 9.00804C32.4115 20.4377 32.906 31.8705 33.4006 43.3033C34.5574 41.4986 35.7142 39.697 36.8709 37.8923C37.0974 35.338 37.3225 32.7806 37.549 30.2232C39.7049 27.9372 41.8608 25.6482 44.0166 23.3623C44.0898 21.9308 44.1643 20.4994 44.2374 19.068C42.4642 13.5522 40.6896 8.03937 38.915 2.5235Z" fill="white"/>
</mask>
<g mask="url(#mask2_10_226)">
<mask id="mask3_10_226" style="mask-type:luminance" maskUnits="userSpaceOnUse" x="29" y="1" width="16" height="43">
<path d="M38.399 9.51397C39.1415 12.7501 39.8826 15.9862 40.6251 19.2223C39.6819 20.2835 38.7402 21.3447 37.7969 22.4059C37.9976 18.1086 38.1983 13.8113 38.399 9.51397ZM38.915 2.5235C35.8159 2.26436 32.7168 2.00523 29.6177 1.74609C29.708 4.09065 29.7984 6.4352 29.8887 8.78284C30.5652 8.85688 31.2404 8.93092 31.9155 9.00804C32.4115 20.4377 32.906 31.8705 33.4006 43.3033C34.5574 41.4986 35.7142 39.697 36.8709 37.8923C37.0974 35.338 37.3225 32.7806 37.549 30.2232C39.7049 27.9372 41.8608 25.6482 44.0166 23.3623C44.0898 21.9308 44.1643 20.4994 44.2374 19.068C42.4642 13.5522 40.6896 8.03937 38.915 2.5235Z" fill="white"/>
</mask>
<g mask="url(#mask3_10_226)">
<path d="M29.6177 43.3033H44.2374V1.74609H29.6177V43.3033Z" fill="url(#paint0_linear_10_226)"/>
</g>
</g>
</g>
<path d="M38.915 1.9311C37.7066 1.82929 36.4982 1.72749 35.2899 1.62569C34.0815 1.52388 32.8731 1.42517 31.6647 1.32336C30.9824 1.26475 30.3 1.20922 29.6177 1.15061C29.4873 1.14135 29.3497 1.43134 29.3611 1.746C29.4515 4.09055 29.5418 6.43511 29.6321 8.78275C29.645 9.11283 29.7396 9.35963 29.8887 9.37505C30.5652 9.44909 31.2404 9.52622 31.9155 9.60025C31.831 9.40282 31.745 9.20538 31.6589 9.00795C31.8525 13.4688 32.0445 17.9327 32.2381 22.3935C32.4316 26.8574 32.6251 31.3182 32.8172 35.7821C32.9261 38.2902 33.0351 40.7952 33.1426 43.3032C33.1526 43.5161 33.1856 43.7012 33.2701 43.8153C33.3461 43.9171 33.4551 43.9325 33.5296 43.8153C34.361 42.5196 35.1909 41.227 36.0223 39.9314C36.2302 39.6075 36.438 39.2835 36.6445 38.9596C36.7434 38.8054 36.8423 38.6511 36.9412 38.4969C37.02 38.3766 37.0888 38.2717 37.1189 38.0526C37.1404 37.8984 37.1476 37.7256 37.1619 37.5683C37.2623 36.4361 37.3612 35.307 37.4615 34.1749C37.5733 32.9101 37.6851 31.6452 37.7969 30.3804C37.7568 30.5007 37.7181 30.6179 37.6794 30.7352C38.7559 29.5907 39.8339 28.4492 40.9118 27.3047C41.4465 26.7402 41.9797 26.1725 42.513 25.608C42.7853 25.318 43.0577 25.028 43.33 24.7411C43.5895 24.4635 43.8604 24.2167 44.1141 23.9082C44.2317 23.7632 44.2618 23.575 44.2775 23.282C44.2861 23.1185 44.2947 22.958 44.3033 22.7945C44.3205 22.4429 44.3392 22.0912 44.3578 21.7426C44.3922 21.067 44.4266 20.3914 44.461 19.7158C44.4796 19.3733 44.5255 19.0093 44.4381 18.7008C44.3535 18.4016 44.2517 18.1209 44.16 17.834C43.9808 17.2787 43.8016 16.7234 43.6224 16.165C42.9215 13.987 42.2205 11.8091 41.5196 9.62802C40.7255 7.16007 39.9313 4.69212 39.1372 2.22416C39.0541 1.96503 38.915 1.83546 38.786 2.0113C38.6756 2.15938 38.6097 2.56351 38.6928 2.82264C40.0732 7.11379 41.4551 11.4049 42.8355 15.6992C43.2282 16.9208 43.6224 18.1455 44.0152 19.3672C44.0037 19.2685 43.9923 19.1666 43.9808 19.0679C43.9063 20.4993 43.8332 21.9308 43.7586 23.3622C43.8016 23.1925 43.8446 23.0197 43.8862 22.8501C42.6291 24.1828 41.3719 25.5185 40.1134 26.8512C39.487 27.5176 38.862 28.1808 38.2356 28.8441C38.0779 29.0138 37.9202 29.1804 37.7611 29.3469C37.6851 29.4272 37.6092 29.5104 37.5332 29.5907C37.4128 29.7171 37.3282 29.8282 37.2938 30.1459C37.2092 30.9141 37.1548 31.71 37.0874 32.4874C36.9326 34.2366 36.7778 35.9857 36.623 37.7349C36.6631 37.6177 36.7018 37.5004 36.7419 37.3801C35.5837 39.1848 34.4269 40.9864 33.2701 42.7911C33.3991 42.9608 33.5282 43.1305 33.6572 43.3032C33.4651 38.8393 33.2716 34.3785 33.0781 29.9146C32.8845 25.4507 32.6925 20.9898 32.4989 16.5259C32.39 14.021 32.2825 11.5129 32.1736 9.00795C32.1592 8.67477 32.0675 8.43106 31.9155 8.41255C31.2404 8.33851 30.5652 8.26448 29.8887 8.19044C29.9747 8.38787 30.0607 8.58531 30.1467 8.78275C30.0564 6.43511 29.9661 4.09055 29.8757 1.746C29.7897 1.94344 29.7037 2.14087 29.6177 2.33831C30.8261 2.44011 32.0345 2.53883 33.2443 2.64063C34.4527 2.74243 35.6611 2.84424 36.8695 2.94604C37.5518 3.00157 38.2327 3.06018 38.915 3.11571C39.0541 3.12805 39.173 2.83498 39.173 2.5234C39.173 2.19332 39.0541 1.94035 38.915 1.9311Z" fill="#0C0C0C"/>
<path d="M38.1768 9.81637C38.4664 11.0781 38.756 12.3398 39.0455 13.6016C39.3351 14.8664 39.6246 16.1281 39.9142 17.3899C40.0776 18.0994 40.2396 18.809 40.403 19.5216C40.4331 19.2501 40.4646 18.9786 40.4947 18.7072C39.7608 19.537 39.0254 20.3638 38.2901 21.1905C38.0822 21.425 37.8744 21.6594 37.668 21.8939C37.797 22.0636 37.926 22.2332 38.055 22.406C38.1324 20.7278 38.2113 19.0527 38.2901 17.3745C38.3675 15.6993 38.4463 14.0211 38.5252 12.346C38.5682 11.402 38.6126 10.458 38.6571 9.51404C38.6628 9.37522 38.6226 9.19321 38.5811 9.09757C38.5366 8.99269 38.4635 8.91556 38.399 8.92173C38.3331 8.9279 38.2643 8.98035 38.217 9.09757C38.1682 9.21789 38.1496 9.35054 38.1424 9.51404C38.0636 11.1922 37.9862 12.8705 37.9074 14.5456C37.8285 16.2238 37.7511 17.8989 37.6723 19.5771C37.6278 20.518 37.5834 21.462 37.5404 22.406C37.5304 22.6065 37.5949 22.8194 37.668 22.9181C37.7511 23.0292 37.8429 23.0137 37.9274 22.9181C38.6628 22.0883 39.3967 21.2615 40.1321 20.4347C40.3399 20.2003 40.5478 19.9658 40.7556 19.7344C40.8086 19.6727 40.8603 19.5092 40.8732 19.3797C40.8889 19.2193 40.8803 19.0681 40.8473 18.92C40.5578 17.6583 40.2682 16.3965 39.9787 15.1348C39.6891 13.87 39.3996 12.6082 39.11 11.3465C38.9466 10.637 38.7846 9.92742 38.6212 9.2148C38.5581 8.94024 38.3833 8.83535 38.27 9.00503C38.1482 9.18395 38.1095 9.52021 38.1768 9.81637Z" fill="#0C0C0C"/>
<path d="M37.9833 14.2805C37.2809 15.4096 36.5771 16.5417 35.8733 17.6708C35.168 18.803 34.4628 19.9383 33.7575 21.0704C33.3605 21.7059 32.9648 22.3445 32.5692 22.98C32.5233 23.0541 32.5018 23.1867 32.5319 23.3039C32.5577 23.4088 32.6266 23.4643 32.6724 23.3903C33.3762 22.2612 34.0786 21.1291 34.7824 20C35.4877 18.8678 36.193 17.7325 36.8996 16.6004C37.2953 15.9649 37.6909 15.3263 38.088 14.6908C38.1324 14.6167 38.1539 14.4841 38.1238 14.3669C38.098 14.262 38.0292 14.2064 37.9833 14.2805Z" fill="#0B0C0C"/>
<path d="M42.0571 25.5742C41.4078 24.2569 40.7584 22.9366 40.1076 21.6162C39.9242 21.2429 39.7407 20.8727 39.5572 20.4995C39.5156 20.4131 39.4526 20.4038 39.411 20.4995C39.3737 20.5858 39.3694 20.7493 39.411 20.8326C40.0603 22.153 40.7111 23.4702 41.3605 24.7906C41.544 25.1639 41.7274 25.5372 41.9109 25.9104C41.9539 25.9937 42.0156 26.003 42.0571 25.9104C42.0944 25.8241 42.0987 25.6606 42.0571 25.5742Z" fill="#0B0C0C"/>
<path d="M23.0498 17.9732C22.3445 18.041 21.6407 18.1089 20.9369 18.1737C21.6565 14.7648 22.376 11.356 23.0956 7.94404C23.0799 11.2881 23.0641 14.6291 23.0498 17.9732ZM28.6072 23.7451C28.1485 21.7214 27.6898 19.6946 27.2297 17.6678C26.8484 12.3123 26.4671 6.95995 26.0843 1.60449C25.177 1.63534 24.271 1.66928 23.3637 1.70321C22.6283 2.40041 21.893 3.0976 21.1576 3.79171C18.6004 14.3268 16.0431 24.8588 13.4858 35.3938C13.6392 36.3039 13.7926 37.217 13.9445 38.1271C14.4964 38.5682 15.0483 39.0094 15.5987 39.4505C16.5233 39.4536 17.4464 39.4536 18.371 39.4567C18.8584 37.7322 19.3457 36.0046 19.8345 34.2802C19.2827 34.3789 18.7308 34.4807 18.1804 34.5825C18.7767 31.2137 19.373 27.8419 19.9693 24.4731C20.8982 24.504 21.8285 24.5348 22.7573 24.5626C22.6226 29.1869 22.4864 33.8082 22.3517 38.4325C22.9164 38.8613 23.4812 39.2901 24.046 39.7189C25.445 39.5955 26.8426 39.469 28.2402 39.3425C27.965 34.6164 27.6898 29.8903 27.4131 25.1642C27.8116 24.6922 28.2101 24.2171 28.6072 23.7451Z" fill="#0C0C0C"/>
<path d="M28.8265 23.4702C28.5226 22.1283 28.2173 20.7863 27.9134 19.4413C27.8389 19.1112 27.7629 18.7811 27.6883 18.451C27.6496 18.2814 27.6109 18.1117 27.5722 17.9389C27.5378 17.7878 27.4834 17.6119 27.4662 17.4546C27.4318 17.1152 27.4189 16.7451 27.3945 16.3965C27.3673 16.0232 27.34 15.6468 27.3142 15.2705C27.1049 12.3305 26.8942 9.39056 26.6849 6.45062C26.566 4.78784 26.4484 3.12197 26.3294 1.45919C26.3137 1.2309 26.1861 1.05506 26.0843 1.05815C25.5783 1.07665 25.0723 1.09516 24.5649 1.11367C24.3112 1.12293 24.0589 1.13218 23.8052 1.14144C23.6819 1.14761 23.5572 1.15069 23.4339 1.15686C23.3479 1.15995 23.2819 1.1908 23.2031 1.26484C23.1372 1.32654 23.0727 1.38823 23.0082 1.44685C22.548 1.88491 22.0893 2.31988 21.6292 2.75486C21.5159 2.86283 21.4027 2.97081 21.288 3.07569C21.1504 3.20835 21.0013 3.28856 20.9211 3.58471C20.7978 4.04437 20.6917 4.53179 20.577 5.00378C19.6439 8.85379 18.7093 12.7007 17.7747 16.5507C16.8401 20.3976 15.9055 24.2476 14.9709 28.0945C14.5021 30.0319 14.032 31.9661 13.5618 33.9035C13.5073 34.1287 13.4528 34.3539 13.3984 34.5791C13.3296 34.8598 13.2034 35.2084 13.2407 35.5385C13.2679 35.776 13.321 36.0074 13.3597 36.2388C13.4027 36.4948 13.4457 36.754 13.4887 37.01C13.5317 37.2661 13.5747 37.5252 13.6177 37.7813C13.675 38.1206 13.7066 38.5062 13.8771 38.6512C14.1065 38.8486 14.3416 39.0214 14.5724 39.2065C14.8089 39.3978 15.0468 39.5859 15.2833 39.7772C15.4124 39.879 15.5299 39.9932 15.6704 39.9932C15.8008 39.9962 15.9298 39.9962 16.0603 39.9962C16.5634 39.9962 17.068 39.9993 17.5711 39.9993C17.8248 39.9993 18.0814 40.0178 18.3351 39.9993C18.4455 39.9932 18.5229 39.9376 18.5889 39.7309C18.6218 39.6291 18.6505 39.515 18.6806 39.407C18.748 39.1695 18.8153 38.9319 18.8827 38.6944C19.1436 37.7689 19.4059 36.8403 19.6682 35.9118C19.7973 35.4583 19.9248 35.0048 20.0524 34.5544C20.147 34.2212 20.028 33.6999 19.8345 33.7338C19.2826 33.8356 18.7308 33.9374 18.1803 34.0392C18.262 34.2675 18.3437 34.4989 18.4254 34.7272C18.8885 32.105 19.3529 29.4828 19.8173 26.8606C19.9492 26.1109 20.0811 25.3644 20.2144 24.6178C20.1327 24.7505 20.051 24.8831 19.9693 25.0158C20.8981 25.0466 21.8284 25.0775 22.7573 25.1083C22.6727 24.9263 22.5882 24.7443 22.5036 24.5623C22.3975 28.1624 22.2929 31.7625 22.1882 35.3627C22.1581 36.3838 22.128 37.408 22.0979 38.4322C22.0908 38.6821 22.1825 38.8795 22.2843 38.9566C22.6555 39.2373 23.0268 39.5212 23.3981 39.8019C23.5801 39.9407 23.7607 40.1011 23.9456 40.2184C24.0474 40.2831 24.152 40.2554 24.2581 40.2461C24.3642 40.2369 24.4688 40.2245 24.5749 40.2153C25.3504 40.1474 26.1259 40.0764 26.9014 40.0086C27.3472 39.9685 27.7944 39.9253 28.2402 39.8852C28.3649 39.8759 28.5111 39.6446 28.4939 39.3422C28.2789 35.6588 28.0639 31.9754 27.8489 28.292C27.7887 27.2493 27.7285 26.2066 27.6668 25.1639C27.6253 25.3212 27.5837 25.4754 27.5407 25.6328C27.9392 25.1608 28.3377 24.6888 28.7362 24.2137C28.8552 24.0718 28.8953 23.7201 28.8265 23.4702C28.7563 23.2111 28.6 23.134 28.4796 23.2759C28.0811 23.7479 27.684 24.2199 27.2855 24.6919C27.2153 24.7782 27.1494 24.9818 27.1594 25.1639C27.3744 28.8473 27.5894 32.5307 27.8045 36.2141C27.8647 37.2568 27.9263 38.2995 27.9865 39.3422C28.0711 39.1602 28.1556 38.9813 28.2402 38.7993C27.4647 38.8672 26.6892 38.9381 25.9137 39.0091C25.5267 39.043 25.1383 39.0769 24.7512 39.1139C24.5634 39.1294 24.3757 39.1448 24.1879 39.1633C24.1549 39.1664 24.1119 39.1787 24.0804 39.1695C24.0374 39.1571 23.9886 39.1016 23.9471 39.0677C23.8482 38.9936 23.7478 38.9165 23.6489 38.8425C23.2389 38.5309 22.829 38.2193 22.419 37.9077C22.4807 38.0805 22.5437 38.2563 22.6054 38.4322C22.71 34.8321 22.8161 31.2319 22.9207 27.6318C22.9508 26.6107 22.9809 25.5865 23.011 24.5623C23.0196 24.2661 22.8878 24.0224 22.7573 24.0193C21.8284 23.9885 20.8981 23.9576 19.9693 23.9299C19.8489 23.9237 19.7643 24.1026 19.7241 24.3278C19.2611 26.95 18.7967 29.5722 18.3323 32.1944C18.2004 32.9441 18.0685 33.6906 17.9352 34.4372C17.8793 34.7518 18.0255 35.156 18.1803 35.1251C18.7308 35.0264 19.2826 34.9246 19.8345 34.8228C19.7614 34.5482 19.6883 34.2768 19.6152 34.0053C19.1278 35.7298 18.639 37.4573 18.1517 39.1818C18.2248 39.0924 18.2979 39.0029 18.371 38.9134C17.6184 38.9103 16.8659 38.9103 16.1147 38.9073C16.0259 38.9073 15.937 38.9073 15.8481 38.9073C15.7664 38.9073 15.6732 38.9381 15.6001 38.8733C15.4267 38.716 15.2461 38.5895 15.0712 38.4507C14.7186 38.1669 14.3659 37.8861 14.0119 37.6023C14.0721 37.7288 14.1309 37.8553 14.1896 37.9818C14.0363 37.0717 13.8829 36.1586 13.7309 35.2485C13.7223 35.3873 13.7137 35.5262 13.7051 35.6681C14.7042 31.5497 15.7048 27.4282 16.7039 23.3098C17.6987 19.213 18.6935 15.1193 19.6883 11.0225C20.2502 8.70262 20.8136 6.38583 21.3755 4.06596C21.3454 4.13074 21.3153 4.19861 21.2852 4.2634C22.0205 3.5662 22.7559 2.869 23.4912 2.17181C23.4482 2.19649 23.4052 2.22117 23.3637 2.24585C24.271 2.215 25.177 2.18106 26.0843 2.14713C26.0026 2.01448 25.9223 1.88182 25.8406 1.74609C26.0514 4.7138 26.2635 7.67842 26.4742 10.643C26.5803 12.1331 26.6864 13.62 26.7924 15.11C26.8455 15.8473 26.8985 16.5877 26.9501 17.325C26.963 17.507 26.9673 17.7076 26.9974 17.8772C27.0318 18.0747 27.0834 18.2659 27.1264 18.4541C27.2024 18.7842 27.2769 19.1143 27.3515 19.4444C27.6969 20.9714 28.0424 22.4954 28.3893 24.0193C28.4481 24.2846 28.6244 24.3556 28.7362 24.2137C28.8609 24.0564 28.8867 23.7355 28.8265 23.4702Z" fill="#0C0C0C"/>
<path d="M23.0497 17.4271C22.3444 17.4949 21.6406 17.5628 20.9368 17.6307C21.0099 17.9052 21.0816 18.1767 21.1547 18.4482C21.4356 17.1186 21.7166 15.789 21.9975 14.4563C22.2785 13.1267 22.5595 11.794 22.8404 10.4644C22.9981 9.71471 23.1558 8.96816 23.3149 8.21851C23.1572 8.12905 22.9995 8.0365 22.8418 7.94396C22.8361 9.24888 22.8304 10.5507 22.8232 11.8557C22.8175 13.1575 22.8117 14.4624 22.806 15.7643C22.8031 16.5016 22.7988 17.2358 22.796 17.9731C22.7945 18.2569 22.9135 18.5284 23.0497 18.516C23.1873 18.5037 23.302 18.2785 23.3034 17.9731C23.3091 16.6682 23.3149 15.3663 23.3206 14.0614C23.3263 12.7595 23.3335 11.4577 23.3392 10.1528C23.3421 9.41856 23.345 8.68126 23.3493 7.94396C23.3507 7.71567 23.2704 7.47196 23.1629 7.41952C23.1185 7.39792 23.0726 7.39792 23.0282 7.41952C22.9737 7.44728 22.9006 7.55834 22.8762 7.6694C22.5953 9.00209 22.3143 10.3317 22.0334 11.6644C21.7524 12.994 21.4715 14.3267 21.1905 15.6563C21.0328 16.4029 20.8752 17.1525 20.7175 17.8991C20.6788 18.0841 20.6673 18.2692 20.7175 18.4482C20.7605 18.6086 20.8479 18.7289 20.9368 18.7196C21.6406 18.6518 22.3444 18.5839 23.0497 18.516C23.1816 18.5037 23.3091 18.2754 23.3034 17.9731C23.2977 17.6893 23.1916 17.4147 23.0497 17.4271Z" fill="#0C0C0C"/>
<mask id="mask4_10_226" style="mask-type:luminance" maskUnits="userSpaceOnUse" x="15" y="1" width="16" height="39">
<path d="M15.1242 1.60449H30.2986V39.7189H15.1242V1.60449Z" fill="white"/>
</mask>
<g mask="url(#mask4_10_226)">
<mask id="mask5_10_226" style="mask-type:luminance" maskUnits="userSpaceOnUse" x="15" y="1" width="16" height="39">
<path d="M24.7397 17.9732C24.0359 18.041 23.3321 18.1089 22.6268 18.1737C23.3464 14.7648 24.066 11.356 24.7856 7.94404C24.7713 11.2881 24.7555 14.6291 24.7397 17.9732ZM30.2986 23.7451C29.8385 21.7214 29.3798 19.6946 28.9196 17.6678C28.5383 12.3123 28.157 6.95995 27.7758 1.60449C26.2893 1.65694 24.8028 1.71247 23.3163 1.76799C20.5856 13.3427 17.8549 24.9174 15.1242 36.4921C15.2819 37.4792 15.441 38.4633 15.5987 39.4474C17.0866 39.4505 18.5731 39.4536 20.061 39.4567C20.5483 37.7322 21.0371 36.0046 21.5245 34.2802C20.9741 34.3789 20.4222 34.4807 19.8703 34.5825C20.4666 31.2137 21.063 27.8419 21.6593 24.4731C22.5896 24.504 23.5184 24.5348 24.4473 24.5626C24.314 29.6157 24.1807 34.6689 24.0459 39.7189C26.0083 39.5955 27.9693 39.469 29.9316 39.3425C29.655 34.6164 29.3798 29.8903 29.1046 25.1642C29.5016 24.6922 29.9001 24.2171 30.2986 23.7451Z" fill="white"/>
</mask>
<g mask="url(#mask5_10_226)">
<mask id="mask6_10_226" style="mask-type:luminance" maskUnits="userSpaceOnUse" x="15" y="1" width="16" height="39">
<path d="M24.7397 17.9732C24.0359 18.041 23.3321 18.1089 22.6268 18.1737C23.3464 14.7648 24.066 11.356 24.7856 7.94404C24.7713 11.2881 24.7555 14.6291 24.7397 17.9732ZM30.2986 23.7451C29.8385 21.7214 29.3798 19.6946 28.9196 17.6678C28.5383 12.3123 28.157 6.95995 27.7758 1.60449C26.2893 1.65694 24.8028 1.71247 23.3163 1.76799C20.5856 13.3427 17.8549 24.9174 15.1242 36.4921C15.2819 37.4792 15.441 38.4633 15.5987 39.4474C17.0866 39.4505 18.5731 39.4536 20.061 39.4567C20.5483 37.7322 21.0371 36.0046 21.5245 34.2802C20.9741 34.3789 20.4222 34.4807 19.8703 34.5825C20.4666 31.2137 21.063 27.8419 21.6593 24.4731C22.5896 24.504 23.5184 24.5348 24.4473 24.5626C24.314 29.6157 24.1807 34.6689 24.0459 39.7189C26.0083 39.5955 27.9693 39.469 29.9316 39.3425C29.655 34.6164 29.3798 29.8903 29.1046 25.1642C29.5016 24.6922 29.9001 24.2171 30.2986 23.7451Z" fill="white"/>
</mask>
<g mask="url(#mask6_10_226)">
<path d="M15.1242 39.7189H30.2986V1.60449H15.1242V39.7189Z" fill="url(#paint1_linear_10_226)"/>
</g>
</g>
</g>
<path d="M30.518 23.4702C30.2126 22.1283 29.9088 20.7863 29.6034 19.4413C29.5289 19.1112 29.4544 18.7811 29.3798 18.451C29.3411 18.2814 29.3024 18.1117 29.2637 17.9389C29.2293 17.7878 29.1734 17.6119 29.1576 17.4546C29.1218 17.1153 29.1089 16.7451 29.0845 16.3965C29.0573 16.0232 29.0315 15.6468 29.0043 15.2705C28.795 12.3305 28.5857 9.39056 28.3764 6.45062C28.2574 4.78784 28.1385 3.12197 28.0209 1.45919C28.0037 1.2309 27.8776 1.05506 27.7758 1.05815C26.2893 1.11367 24.8028 1.1692 23.3164 1.22165C23.2304 1.22473 23.1372 1.32345 23.0971 1.49312C22.5179 3.94873 21.9374 6.40743 21.3583 8.86612C20.7806 11.3125 20.2029 13.7588 19.6267 16.2052C19.0461 18.6639 18.467 21.1195 17.8865 23.5782C17.3088 26.0246 16.7326 28.4709 16.1549 30.9173C15.8639 32.1512 15.5729 33.3852 15.2819 34.6223C15.2088 34.9277 15.1372 35.2331 15.0655 35.5385C14.9881 35.8686 14.8376 36.2974 14.8849 36.6738C14.9264 37.0008 14.9895 37.3247 15.0411 37.6455C15.0942 37.9694 15.1458 38.2934 15.1974 38.6173C15.2504 38.9443 15.302 39.2682 15.3536 39.5921C15.3909 39.8204 15.4826 39.9901 15.5987 39.9901C16.5663 39.9932 17.5353 39.9962 18.5029 39.9962C18.9874 39.9993 19.4704 39.9993 19.9549 39.9993C20.0352 39.9993 20.1169 40.0178 20.1886 39.9253C20.2588 39.8389 20.2947 39.6785 20.3348 39.5366C20.3964 39.3206 20.4567 39.1047 20.5183 38.8887C20.6459 38.4353 20.7734 37.9849 20.9025 37.5314C21.182 36.538 21.4629 35.5447 21.7439 34.5544C21.8371 34.2212 21.7195 33.6999 21.5246 33.7338C20.9741 33.8356 20.4223 33.9374 19.8704 34.0392C19.9521 34.2675 20.0338 34.4989 20.1155 34.7272C20.5799 32.105 21.0429 29.4828 21.5074 26.8606C21.6407 26.1109 21.7726 25.3644 21.9044 24.6178C21.8227 24.7505 21.741 24.8831 21.6593 25.0158C22.5896 25.0466 23.5185 25.0775 24.4474 25.1083C24.3628 24.9263 24.2782 24.7443 24.1936 24.5623C24.0904 28.5048 23.9858 32.4443 23.8811 36.3869C23.851 37.4974 23.8224 38.608 23.7923 39.7186C23.7851 40.0086 23.9155 40.2739 24.046 40.2646C25.5769 40.1659 27.1064 40.0672 28.6373 39.9685C29.0688 39.9407 29.5002 39.9129 29.9317 39.8852C30.055 39.879 30.2026 39.6415 30.184 39.3422C29.9704 35.6588 29.7554 31.9754 29.5404 28.292C29.4802 27.2493 29.4185 26.2066 29.3583 25.1639C29.3153 25.3212 29.2737 25.4754 29.2322 25.6328C29.6307 25.1608 30.0277 24.6888 30.4262 24.2137C30.5466 24.0718 30.5853 23.7201 30.518 23.4702C30.4463 23.2111 30.2901 23.134 30.1711 23.2759C29.7726 23.7479 29.3741 24.2199 28.9756 24.6919C28.9054 24.7782 28.8394 24.9818 28.8509 25.1639C29.0659 28.8473 29.2795 32.5307 29.4945 36.2141C29.5561 37.2568 29.6163 38.2995 29.678 39.3422C29.7625 39.1602 29.8471 38.9813 29.9317 38.7993C28.4008 38.898 26.8699 38.9936 25.3404 39.0924C24.9089 39.1201 24.4775 39.1479 24.046 39.1756C24.1306 39.3577 24.2151 39.5397 24.2997 39.7186C24.4043 35.7791 24.509 31.8397 24.6136 27.8971C24.6423 26.7865 24.6724 25.676 24.7011 24.5623C24.7097 24.2661 24.5792 24.0224 24.4474 24.0193C23.5185 23.9885 22.5896 23.9576 21.6593 23.9299C21.5403 23.9237 21.4558 24.1026 21.4156 24.3278C20.9512 26.95 20.4868 29.5722 20.0238 32.1944C19.8904 32.9441 19.7586 33.6906 19.6267 34.4372C19.5708 34.7518 19.7156 35.156 19.8704 35.1251C20.4223 35.0264 20.9741 34.9246 21.5246 34.8228C21.4515 34.5482 21.3784 34.2768 21.3052 34.0053C20.8179 35.7298 20.3305 37.4573 19.8417 39.1818C19.9148 39.0924 19.9879 39.0029 20.061 38.9134C18.5731 38.9103 17.0866 38.9073 15.5987 38.9011C15.6804 39.0368 15.7621 39.1695 15.8438 39.3021C15.6847 38.318 15.5271 37.3339 15.3679 36.3498C15.3593 36.4887 15.3507 36.6275 15.3421 36.7663C16.4115 32.2376 17.4808 27.7058 18.5487 23.1772C19.6124 18.667 20.676 14.1599 21.7396 9.65278C22.3388 7.11697 22.9365 4.57806 23.5357 2.04224C23.4626 2.1317 23.3895 2.22117 23.3164 2.31063C24.8028 2.2551 26.2893 2.20266 27.7758 2.14713C27.6941 2.01448 27.6124 1.88182 27.5307 1.74609C27.7428 4.7138 27.9535 7.67842 28.1657 10.643C28.2718 12.1331 28.3778 13.62 28.4839 15.11C28.5355 15.8473 28.5886 16.5877 28.6416 17.325C28.6545 17.507 28.6588 17.7076 28.6889 17.8772C28.7233 18.0747 28.7749 18.2659 28.8179 18.4541C28.8924 18.7842 28.967 19.1143 29.0415 19.4444C29.3884 20.9714 29.7339 22.4954 30.0793 24.0193C30.1395 24.2846 30.3144 24.3556 30.4262 24.2137C30.5524 24.0564 30.5782 23.7355 30.518 23.4702Z" fill="#0C0C0C"/>
<path d="M24.7397 17.4271C24.0359 17.4949 23.3321 17.5628 22.6268 17.6307C22.6999 17.9052 22.773 18.1767 22.8461 18.4482C23.1271 17.1186 23.4081 15.789 23.689 14.4563C23.97 13.1267 24.2509 11.794 24.5319 10.4644C24.6896 9.71471 24.8472 8.96816 25.0049 8.21851C24.8472 8.12905 24.6896 8.0365 24.5319 7.94396C24.5261 9.24888 24.5204 10.5507 24.5147 11.8557C24.5089 13.1575 24.5032 14.4624 24.496 15.7643C24.4932 16.5016 24.4903 17.2358 24.486 17.9731C24.486 18.2569 24.6035 18.5284 24.7397 18.516C24.8788 18.5037 24.992 18.2785 24.9934 17.9731C24.9992 16.6682 25.0063 15.3663 25.0121 14.0614C25.0178 12.7595 25.0235 11.4577 25.0293 10.1528C25.0336 9.41856 25.0364 8.68126 25.0393 7.94396C25.0407 7.71567 24.9605 7.47196 24.853 7.41952C24.8085 7.39792 24.7627 7.39792 24.7182 7.41952C24.6638 7.44728 24.5906 7.55834 24.5677 7.6694C24.2868 9.00209 24.0058 10.3317 23.7248 11.6644C23.4439 12.994 23.1629 14.3267 22.882 15.6563C22.7243 16.4029 22.5666 17.1525 22.4075 17.8991C22.3702 18.0841 22.3588 18.2692 22.4075 18.4482C22.452 18.6086 22.5394 18.7289 22.6268 18.7196C23.3321 18.6518 24.0359 18.5839 24.7397 18.516C24.873 18.5037 25.0006 18.2754 24.9934 17.9731C24.9877 17.6893 24.8816 17.4147 24.7397 17.4271Z" fill="#0C0C0C"/>
<path d="M29.1677 27.416C28.5312 28.4309 27.8933 29.4428 27.2569 30.4577C26.619 31.4696 25.9826 32.4845 25.3447 33.4964C24.9877 34.064 24.6308 34.6317 24.2739 35.1993C24.2309 35.2702 24.208 35.3875 24.2381 35.4985C24.2639 35.5911 24.3327 35.6466 24.3771 35.5756C25.0135 34.5638 25.6514 33.5488 26.2879 32.537C26.9258 31.522 27.5622 30.5102 28.2001 29.4952C28.557 28.9276 28.9139 28.36 29.2709 27.7923C29.3153 27.7214 29.3368 27.6042 29.3067 27.4931C29.2823 27.4006 29.2121 27.345 29.1677 27.416Z" fill="#0B0C0C"/>
<path d="M21.9188 8.00248C22.2227 9.61282 22.528 11.2232 22.8333 12.8304C22.9207 13.2901 23.0068 13.7497 23.0942 14.2063C23.1143 14.3143 23.1616 14.3914 23.2189 14.3575C23.2676 14.3297 23.3106 14.2001 23.2891 14.0921C22.9852 12.4818 22.6799 10.8715 22.3746 9.26113C22.2872 8.80456 22.2012 8.34491 22.1137 7.88834C22.0937 7.77728 22.0463 7.70324 21.989 7.73409C21.9403 7.76494 21.8973 7.89451 21.9188 8.00248Z" fill="#0B0C0C"/>
<path d="M9.27437 9.32001C10.0026 12.5746 10.7307 15.8292 11.4589 19.0808C10.5329 20.1481 9.60836 21.2155 8.68379 22.2829C8.88018 17.964 9.07799 13.642 9.27437 9.32001ZM9.78038 2.28943C7.18872 2.02721 4.59706 1.76808 2.00396 1.50586C1.5725 1.98094 1.14246 2.45294 0.710999 2.92493C0.77407 5.50085 0.835708 8.07678 0.898779 10.6527C1.52806 10.1036 2.15591 9.55755 2.78519 9.00843C3.07474 14.7989 3.3643 20.5862 3.65385 26.3766C3.27256 28.3633 2.89269 30.35 2.5114 32.3398C2.94573 32.2596 3.38006 32.1825 3.8144 32.1054C3.97924 35.4433 4.14552 38.7812 4.31037 42.1222C4.7791 42.5139 5.24784 42.9057 5.71514 43.3006C6.62394 38.9138 7.53131 34.5301 8.44011 30.1464C9.81478 34.1137 11.1894 38.0809 12.5641 42.0481C14.5466 42.4307 16.529 42.8132 18.5115 43.1957C16.0402 37.6613 13.5704 32.13 11.1006 26.5987C12.3864 25.374 13.6722 24.1493 14.958 22.9246C15.0368 21.7955 15.1156 20.6664 15.1945 19.5373C13.3898 13.787 11.5851 8.03976 9.78038 2.28943Z" fill="#0C0C0C"/>
<path d="M9.78036 1.69406C7.36072 1.45035 4.94107 1.20664 2.51999 0.962933C2.36088 0.947509 2.20033 0.913574 2.04122 0.913574C1.85917 0.913574 1.66852 1.2159 1.50655 1.39174C1.19692 1.73108 0.8873 2.07043 0.577676 2.40977C0.498837 2.49615 0.4415 2.7306 0.447233 2.92495C0.508871 5.50088 0.571943 8.0768 0.635014 10.6527C0.643615 11.0013 0.798426 11.3746 0.969006 11.2265C1.59829 10.6774 2.22613 10.1314 2.85541 9.58225C2.7436 9.39099 2.63323 9.19972 2.52142 9.00845C2.74791 13.531 2.97439 18.0504 3.19944 22.5729C3.26394 23.8408 3.32702 25.1087 3.39009 26.3767C3.40299 26.2779 3.41446 26.1761 3.42592 26.0774C3.04463 28.0641 2.66477 30.0508 2.28347 32.0375C2.24477 32.2411 2.23043 32.4386 2.28347 32.6391C2.32791 32.8088 2.42108 32.9507 2.51139 32.9352C2.94572 32.855 3.38005 32.7779 3.81439 32.7008C3.72695 32.5003 3.63807 32.3028 3.55063 32.1054C3.71548 35.4433 3.88176 38.7812 4.0466 42.1222C4.06094 42.406 4.12114 42.5942 4.24012 42.696C4.70885 43.0878 5.17759 43.4796 5.64489 43.8744C5.74523 43.9577 5.89717 43.822 5.94304 43.5999C6.65116 40.1848 7.35785 36.7729 8.06454 33.3579C8.26522 32.3861 8.46733 31.4174 8.66801 30.4488C8.52897 30.4889 8.39136 30.529 8.25232 30.5691C9.27866 33.5275 10.3036 36.486 11.3299 39.4445C11.5879 40.1879 11.846 40.9345 12.104 41.678C12.1656 41.8538 12.2258 42.0296 12.2875 42.2055C12.3161 42.2919 12.3448 42.3906 12.3778 42.4677C12.4451 42.6189 12.5311 42.6374 12.62 42.6528C12.8279 42.6929 13.0357 42.733 13.2436 42.7731C13.6664 42.8564 14.4792 43.0538 15.7205 43.2513C17.1999 43.4888 18.9902 43.4549 19.0031 43.097C19.0089 42.9705 18.7838 42.8317 18.6978 42.7731C17.531 41.9957 16.9805 38.9293 15.8065 36.3009C14.8433 34.1414 13.88 31.9851 12.9167 29.8256C12.3735 28.6102 11.8302 27.3916 11.2883 26.1761C11.2697 26.4877 11.2525 26.7993 11.2339 27.1109C12.1484 26.2409 13.0615 25.371 13.9746 24.501C14.2068 24.282 14.4376 24.063 14.6684 23.8408C14.7759 23.739 14.8834 23.6372 14.9909 23.5354C15.0683 23.4614 15.14 23.4028 15.1859 23.2239C15.2274 23.0696 15.2289 22.8537 15.2418 22.6778C15.279 22.141 15.3163 21.6043 15.3536 21.0675C15.3708 20.8114 15.3894 20.5554 15.4066 20.2993C15.4296 19.9754 15.4969 19.5404 15.4224 19.235C15.3636 18.9975 15.279 18.7785 15.2088 18.5533C15.1371 18.3281 15.0655 18.0998 14.9938 17.8715C14.849 17.4057 14.7028 16.9398 14.5552 16.474C14.267 15.5547 13.9775 14.6354 13.6894 13.713C13.1117 11.8744 12.534 10.0327 11.9563 8.19094C11.307 6.12404 10.6576 4.05713 10.0083 1.99022C9.92658 1.728 9.7775 1.60152 9.64705 1.77427C9.53238 1.92543 9.46931 2.32648 9.55245 2.5887C10.9572 7.06494 12.3634 11.5443 13.7682 16.0205C14.1681 17.2915 14.5666 18.5656 14.9666 19.8366C14.958 19.6854 14.9494 19.5312 14.9393 19.38C14.8619 20.5091 14.7831 21.6382 14.7042 22.7642C14.7444 22.647 14.7845 22.5297 14.8261 22.4094C13.5388 23.6341 12.2531 24.8589 10.9673 26.0836C10.8081 26.2348 10.8067 26.7777 10.9142 27.0183C11.8775 29.1778 12.8408 31.3342 13.804 33.4936C14.6899 35.4741 14.4591 35.178 16.6953 39.9689C17.326 41.317 17.8535 42.4091 18.2119 43.1402C18.3122 42.9582 18.4111 42.7793 18.5115 42.6004C16.9691 42.3011 15.4281 42.005 13.8857 41.7057C13.4457 41.6224 13.0056 41.536 12.5641 41.4528C12.6272 41.5083 12.6888 41.5669 12.7519 41.6255C11.6797 38.5344 10.6089 35.4464 9.53811 32.3553C9.23422 31.4791 8.93033 30.603 8.62645 29.7269C8.5261 29.4369 8.27812 29.5233 8.21218 29.8472C7.50406 33.2592 6.79738 36.6742 6.09069 40.0892C5.89001 41.0579 5.68933 42.0296 5.48721 42.9983C5.58755 42.9088 5.68646 42.8163 5.78537 42.7237C5.31806 42.332 4.84933 41.9402 4.38059 41.5484C4.4451 41.7397 4.5096 41.9309 4.57411 42.1222C4.40926 38.7812 4.24442 35.4433 4.07814 32.1054C4.0638 31.8031 3.9692 31.4791 3.81439 31.51C3.38005 31.5871 2.94572 31.6642 2.51139 31.7445C2.58736 32.0406 2.66333 32.3398 2.7393 32.6391C3.01453 31.2015 3.29118 29.7608 3.56783 28.3202C3.63807 27.95 3.70831 27.5829 3.77998 27.2127C3.81152 27.0461 3.84305 26.8826 3.87459 26.716C3.92619 26.4476 3.91186 26.2409 3.89753 25.9633C3.85882 25.192 3.82012 24.4208 3.78142 23.6465C3.6266 20.5338 3.47036 17.418 3.31411 14.3022C3.22667 12.5376 3.1378 10.773 3.04893 9.00845C3.03173 8.66603 2.89268 8.28041 2.71494 8.43466C2.08566 8.98069 1.45781 9.52981 0.828529 10.0789C0.940337 10.2702 1.05071 10.4615 1.16252 10.6527C1.09945 8.0768 1.03781 5.50088 0.974739 2.92495C0.931736 3.09771 0.887299 3.26738 0.844296 3.44014C1.27576 2.96506 1.70579 2.49306 2.13726 2.02107C2.09282 2.04883 2.04839 2.0766 2.00395 2.10128C4.0251 2.30488 6.04625 2.50849 8.0674 2.71209C8.63791 2.77071 9.20986 2.82624 9.78036 2.88485C9.92371 2.90027 10.0441 2.60104 10.0441 2.28946C10.0441 1.95628 9.92371 1.70949 9.78036 1.69406Z" fill="#0C0C0C"/>
<path d="M9.04643 9.6217C9.33026 10.8896 9.61408 12.1544 9.89646 13.4223C10.1803 14.6902 10.4641 15.9582 10.7479 17.223C10.9085 17.9449 11.069 18.6637 11.231 19.3824C11.2625 19.111 11.2941 18.8395 11.3256 18.568C10.6032 19.401 9.8807 20.2339 9.15824 21.0668C8.95613 21.3013 8.75258 21.5357 8.55046 21.7702C8.68234 21.9399 8.81565 22.1126 8.94753 22.2823C9.02493 20.5948 9.10091 18.9074 9.17831 17.2199C9.25428 15.5386 9.33169 13.8573 9.40766 12.176C9.4521 11.2259 9.4951 10.2726 9.5381 9.31937C9.54527 9.17746 9.5037 8.99854 9.4607 8.89982C9.41483 8.79493 9.34029 8.71781 9.27435 8.72398C9.20555 8.73323 9.13531 8.78259 9.088 8.89982C9.03783 9.02322 9.01777 9.15587 9.0106 9.31937C8.93319 11.0099 8.85579 12.6974 8.77981 14.3848C8.70241 16.0661 8.62644 17.7443 8.54903 19.4256C8.50603 20.3789 8.46302 21.3321 8.42002 22.2823C8.40999 22.4859 8.47592 22.6988 8.55046 22.7975C8.63504 22.9085 8.73108 22.8962 8.81708 22.7975C9.53954 21.9645 10.262 21.1316 10.983 20.2956C11.1866 20.0642 11.3887 19.8298 11.5922 19.5953C11.6467 19.5336 11.6997 19.3732 11.7126 19.2405C11.7298 19.077 11.7198 18.929 11.6868 18.7809C11.403 17.513 11.1192 16.2451 10.8354 14.9802C10.5515 13.7123 10.2692 12.4444 9.98534 11.1765C9.82479 10.4577 9.66281 9.73892 9.50227 9.02013C9.44063 8.74249 9.25572 8.64068 9.14104 8.80727C9.0149 8.98928 8.97906 9.32246 9.04643 9.6217Z" fill="#0C0C0C"/>
<mask id="mask7_10_226" style="mask-type:luminance" maskUnits="userSpaceOnUse" x="2" y="1" width="18" height="43">
<path d="M2.00397 1.50586H19.8575V43.3006H2.00397V1.50586Z" fill="white"/>
</mask>
<g mask="url(#mask7_10_226)">
<mask id="mask8_10_226" style="mask-type:luminance" maskUnits="userSpaceOnUse" x="2" y="1" width="18" height="43">
<path d="M10.6218 9.32001C11.3486 12.5746 12.0768 15.8292 12.8049 19.0808C11.8804 20.1481 10.9558 21.2155 10.0298 22.2829C10.2276 17.964 10.424 13.642 10.6218 9.32001ZM11.1278 2.28943C8.08606 2.02721 5.04573 1.76808 2.00397 1.50586C2.09284 3.86584 2.18171 6.22582 2.27059 8.58271C2.9185 8.11688 3.56642 7.64797 4.21433 7.18215C4.47665 13.5803 4.73897 19.9785 5.00129 26.3766C4.663 28.2955 4.32471 30.2112 3.98642 32.13C4.40211 32.056 4.81781 31.982 5.23494 31.9079C5.39549 35.7055 5.55603 39.503 5.71514 43.3006C6.85043 41.4867 7.98571 39.6727 9.121 37.8619C9.34318 35.289 9.56537 32.7193 9.78612 30.1464C11.1608 34.1137 12.5369 38.0809 13.9116 42.0481C15.894 42.4307 17.875 42.8132 19.8575 43.1957C17.3877 37.6613 14.9178 32.13 12.448 26.5987C13.7338 25.374 15.0196 24.1493 16.3054 22.9246C16.3842 21.7955 16.4631 20.6664 16.5419 19.5373C14.7372 13.787 12.9325 8.03976 11.1278 2.28943Z" fill="white"/>
</mask>
<g mask="url(#mask8_10_226)">
<mask id="mask9_10_226" style="mask-type:luminance" maskUnits="userSpaceOnUse" x="2" y="1" width="18" height="43">
<path d="M10.6218 9.32001C11.3486 12.5746 12.0768 15.8292 12.8049 19.0808C11.8804 20.1481 10.9558 21.2155 10.0298 22.2829C10.2276 17.964 10.424 13.642 10.6218 9.32001ZM11.1278 2.28943C8.08606 2.02721 5.04573 1.76808 2.00397 1.50586C2.09284 3.86584 2.18171 6.22582 2.27059 8.58271C2.9185 8.11688 3.56642 7.64797 4.21433 7.18215C4.47665 13.5803 4.73897 19.9785 5.00129 26.3766C4.663 28.2955 4.32471 30.2112 3.98642 32.13C4.40211 32.056 4.81781 31.982 5.23494 31.9079C5.39549 35.7055 5.55603 39.503 5.71514 43.3006C6.85043 41.4867 7.98571 39.6727 9.121 37.8619C9.34318 35.289 9.56537 32.7193 9.78612 30.1464C11.1608 34.1137 12.5369 38.0809 13.9116 42.0481C15.894 42.4307 17.875 42.8132 19.8575 43.1957C17.3877 37.6613 14.9178 32.13 12.448 26.5987C13.7338 25.374 15.0196 24.1493 16.3054 22.9246C16.3842 21.7955 16.4631 20.6664 16.5419 19.5373C14.7372 13.787 12.9325 8.03976 11.1278 2.28943Z" fill="white"/>
</mask>
<g mask="url(#mask9_10_226)">
<path d="M2.00397 43.3006H19.8575V1.50586H2.00397V43.3006Z" fill="url(#paint2_linear_10_226)"/>
</g>
</g>
</g>
<path d="M11.1278 1.69361C8.75117 1.49001 6.37453 1.2864 3.99932 1.0828C3.3342 1.02418 2.66908 0.968654 2.00397 0.910041C1.87066 0.897701 1.72875 1.19385 1.74021 1.50543C1.82909 3.86541 1.91796 6.22539 2.00683 8.58228C2.01974 8.94939 2.16451 9.28565 2.34083 9.15917C2.98874 8.69026 3.63666 8.22443 4.28457 7.75552C4.1742 7.56425 4.06239 7.37299 3.95058 7.18172C4.08532 10.4764 4.2215 13.7742 4.35624 17.0689C4.42362 18.7163 4.49099 20.3667 4.55836 22.0141C4.59133 22.8316 4.62573 23.6491 4.6587 24.4666C4.6759 24.88 4.6931 25.2965 4.7103 25.7129C4.71317 25.8086 4.71747 25.9042 4.72177 26.0029C4.72464 26.0862 4.74041 26.2096 4.73324 26.2929C4.72034 26.4688 4.6673 26.6662 4.63863 26.8328C4.33618 28.5449 4.03372 30.2571 3.73126 31.9723C3.67106 32.3178 3.8273 32.7528 3.98642 32.725C4.40211 32.651 4.81781 32.5769 5.23494 32.5029C5.14607 32.3055 5.05863 32.108 4.97119 31.9075C5.0959 34.8598 5.22061 37.8121 5.34532 40.7644C5.37972 41.6096 5.41556 42.4549 5.45139 43.3002C5.46143 43.513 5.49583 43.6981 5.58184 43.8123C5.65781 43.9141 5.77392 43.9326 5.84846 43.8123C6.67842 42.4888 7.50695 41.1654 8.33547 39.842C8.54189 39.515 8.74687 39.1849 8.95329 38.8548C9.05363 38.6944 9.1554 38.5401 9.25431 38.3735C9.39335 38.1422 9.39765 37.7658 9.42919 37.411C9.5238 36.3005 9.61984 35.1899 9.71588 34.0793C9.82339 32.8206 9.93233 31.562 10.0413 30.3033C9.89362 30.3928 9.74741 30.4792 9.59977 30.5686C10.6247 33.5271 11.651 36.4856 12.6759 39.444C12.9354 40.1875 13.1934 40.934 13.4514 41.6775C13.5116 41.8533 13.5733 42.0292 13.6335 42.205C13.6636 42.2914 13.6908 42.3901 13.7252 42.4673C13.7911 42.6184 13.8786 42.6369 13.966 42.6523C14.1739 42.6925 14.3832 42.7326 14.591 42.7727C15.4167 42.9331 16.2423 43.0935 17.068 43.2508C17.9983 43.4328 18.9272 43.6118 19.8575 43.7907C20.0926 43.837 20.1972 43.1151 20.0438 42.7727C19.0805 40.6163 18.1173 38.4568 17.154 36.3005C16.1907 34.141 15.2275 31.9846 14.2642 29.8252C13.7209 28.6097 13.1776 27.3912 12.6344 26.1757C12.6172 26.4873 12.5985 26.7988 12.5813 27.1104C13.4944 26.2405 14.409 25.3705 15.3221 24.5006C15.5528 24.2815 15.7851 24.0625 16.0158 23.8404C16.1234 23.7386 16.2294 23.6368 16.3369 23.535C16.4158 23.4609 16.4875 23.4023 16.5333 23.2234C16.5735 23.0692 16.5763 22.8532 16.5878 22.6774C16.6251 22.1406 16.6623 21.6038 16.6996 21.067C16.7182 20.811 16.7354 20.5549 16.7541 20.2989C16.777 19.975 16.8429 19.54 16.7698 19.2346C16.7111 18.997 16.6251 18.778 16.5548 18.5528C16.4846 18.3276 16.4129 18.0993 16.3412 17.871C16.195 17.4052 16.0488 16.9394 15.9026 16.4736C15.6131 15.5542 15.3249 14.6349 15.0354 13.7125C14.4577 11.8739 13.88 10.0322 13.3023 8.1905C12.653 6.12359 12.0051 4.05668 11.3557 1.98977C11.2726 1.72755 11.1249 1.60107 10.9945 1.77382C10.8798 1.92499 10.8168 2.32603 10.8999 2.58825C12.3047 7.06449 13.7094 11.5438 15.1156 16.0201C15.5141 17.2911 15.9141 18.5651 16.314 19.8361C16.304 19.685 16.2954 19.5307 16.2868 19.3796C16.2079 20.5087 16.1291 21.6377 16.0503 22.7637C16.0918 22.6465 16.132 22.5293 16.1721 22.409C14.8863 23.6337 13.6005 24.8584 12.3147 26.0831C12.1542 26.2343 12.1527 26.7773 12.2617 27.0179C13.2249 29.1773 14.1882 31.3337 15.1515 33.4932C16.1148 35.6495 17.078 37.809 18.0413 39.9685C18.5846 41.1839 19.1278 42.3994 19.6711 43.6148C19.7328 43.2786 19.7958 42.9392 19.8575 42.5999C18.3165 42.3007 16.7741 42.0045 15.2332 41.7053C14.7917 41.622 14.3516 41.5356 13.9116 41.4523C13.9732 41.5078 14.0363 41.5664 14.0979 41.6251C13.0271 38.534 11.9563 35.4459 10.8841 32.3548C10.5802 31.4787 10.2764 30.6026 9.97246 29.7265C9.85349 29.3779 9.5668 29.5753 9.5324 29.9887C9.31021 32.5584 9.08803 35.1313 8.86728 37.701C8.90742 37.5838 8.94755 37.4635 8.98769 37.3463C7.8524 39.1602 6.71712 40.9711 5.58184 42.785C5.71514 42.9578 5.84702 43.1274 5.98033 43.3002C5.85562 40.3479 5.73091 37.3956 5.6062 34.4433C5.57037 33.5981 5.53453 32.7528 5.4987 31.9075C5.48579 31.6083 5.38832 31.2843 5.23494 31.3121C4.81781 31.3862 4.40211 31.4602 3.98642 31.5342C4.07099 31.7841 4.15556 32.0371 4.24013 32.287C4.51106 30.7537 4.78198 29.2205 5.0529 27.6842C5.08443 27.5053 5.11597 27.3264 5.1475 27.1474C5.18191 26.95 5.23208 26.7433 5.25501 26.5335C5.27938 26.3299 5.25358 26.0862 5.24498 25.8764C5.23494 25.6574 5.22634 25.4353 5.21774 25.2132C5.18334 24.3833 5.14894 23.5504 5.11597 22.7206C4.97979 19.4104 4.84361 16.1003 4.70887 12.7901C4.63146 10.9207 4.55549 9.05119 4.47952 7.18172C4.46375 6.81461 4.32184 6.47836 4.14409 6.60792C3.49618 7.07375 2.84826 7.54266 2.20035 8.00848C2.31072 8.19975 2.42253 8.39102 2.53434 8.58228C2.44547 6.22539 2.35659 3.86541 2.26772 1.50543C2.18028 1.70595 2.09284 1.90339 2.00397 2.10083C4.38061 2.30443 6.75726 2.50804 9.13247 2.71473C9.79758 2.77026 10.4627 2.82887 11.1278 2.8844C11.2697 2.89674 11.3916 2.60059 11.3916 2.28901C11.3916 1.95583 11.2697 1.70595 11.1278 1.69361Z" fill="#0C0C0C"/>
<path d="M10.3939 9.6217C10.6763 10.8896 10.9601 12.1544 11.2439 13.4223C11.5277 14.6902 11.8115 15.9582 12.0939 17.223C12.2559 17.9449 12.4164 18.6637 12.577 19.3824C12.6085 19.111 12.6401 18.8395 12.6716 18.568C11.9491 19.401 11.2267 20.2339 10.5042 21.0668C10.3021 21.3013 10.1 21.5357 9.89646 21.7702C10.0298 21.9399 10.1616 22.1126 10.2935 22.2823C10.3709 20.5948 10.4483 18.9074 10.5243 17.2199C10.6017 15.5386 10.6777 13.8573 10.7551 12.176C10.7981 11.2259 10.8411 10.2726 10.8855 9.31937C10.8913 9.17746 10.8511 8.99854 10.8081 8.89982C10.7623 8.79493 10.6863 8.71781 10.6218 8.72398C10.553 8.73323 10.4827 8.78259 10.434 8.89982C10.3838 9.02322 10.3652 9.15587 10.3566 9.31937C10.2806 11.0099 10.2032 12.6974 10.1258 14.3848C10.0498 16.0661 9.97243 17.7443 9.89646 19.4256C9.85346 20.3789 9.80902 21.3321 9.76602 22.2823C9.75742 22.4859 9.82335 22.6988 9.89646 22.7975C9.98247 22.9085 10.0785 22.8962 10.1631 22.7975C10.8855 21.9645 11.608 21.1316 12.3304 20.2956C12.5326 20.0642 12.7361 19.8298 12.9382 19.5953C12.9927 19.5336 13.0457 19.3732 13.0601 19.2405C13.0758 19.077 13.0658 18.929 13.0328 18.7809C12.749 17.513 12.4666 16.2451 12.1828 14.9802C11.899 13.7123 11.6152 12.4444 11.3313 11.1765C11.1708 10.4577 11.0102 9.73892 10.8497 9.02013C10.7866 8.74249 10.6031 8.64068 10.4885 8.80727C10.3623 8.98928 10.3265 9.32246 10.3939 9.6217Z" fill="#0C0C0C"/>
<path d="M10.1688 19.9721C9.47791 18.8338 8.78699 17.6955 8.09464 16.5571C7.40372 15.4188 6.7128 14.2804 6.02045 13.1421C5.63199 12.5004 5.24352 11.8618 4.8565 11.2233C4.80919 11.1461 4.73752 11.2048 4.71172 11.3096C4.68018 11.43 4.70312 11.5595 4.74899 11.6336C5.44134 12.7719 6.13226 13.9102 6.82318 15.0486C7.51553 16.1869 8.20645 17.3253 8.89736 18.4636C9.28583 19.1022 9.67429 19.7439 10.0628 20.3824C10.1086 20.4596 10.1803 20.401 10.2075 20.2961C10.2376 20.1758 10.2147 20.0462 10.1688 19.9721Z" fill="#0B0C0C"/>
<path d="M15.1844 33.1877C14.5465 34.5142 13.9101 35.8408 13.2722 37.1642C13.0916 37.5406 12.911 37.9169 12.7304 38.2933C12.6888 38.3828 12.6917 38.5432 12.7304 38.6296C12.7719 38.7252 12.8379 38.719 12.8794 38.6296C13.5173 37.3061 14.1538 35.9796 14.7902 34.6562C14.9723 34.2798 15.1529 33.9034 15.3335 33.5271C15.3751 33.4376 15.3722 33.2772 15.3335 33.1877C15.2919 33.0952 15.226 33.1013 15.1844 33.1877Z" fill="#0B0C0C"/>
<defs>
<linearGradient id="paint0_linear_10_226" x1="36.928" y1="43.3021" x2="36.928" y2="1.74493" gradientUnits="userSpaceOnUse">
<stop stop-color="#979796"/>
<stop offset="0.0078125" stop-color="#979796"/>
<stop offset="0.015625" stop-color="#979796"/>
<stop offset="0.0195313" stop-color="#999997"/>
<stop offset="0.0234375" stop-color="#999998"/>
<stop offset="0.03125" stop-color="#9A9A99"/>
<stop offset="0.0390625" stop-color="#9B9B9A"/>
<stop offset="0.046875" stop-color="#9C9C9B"/>
<stop offset="0.0546875" stop-color="#9D9D9C"/>
<stop offset="0.0625" stop-color="#9E9E9D"/>
<stop offset="0.0664063" stop-color="#9F9F9E"/>
<stop offset="0.0703125" stop-color="#9F9F9E"/>
<stop offset="0.078125" stop-color="#A0A09F"/>
<stop offset="0.0859375" stop-color="#A0A0A0"/>
<stop offset="0.09375" stop-color="#A1A1A0"/>
<stop offset="0.101563" stop-color="#A2A2A1"/>
<stop offset="0.105469" stop-color="#A3A3A2"/>
<stop offset="0.109375" stop-color="#A4A4A3"/>
<stop offset="0.117188" stop-color="#A5A5A4"/>
<stop offset="0.125" stop-color="#A6A6A5"/>
<stop offset="0.132812" stop-color="#A7A7A6"/>
<stop offset="0.140625" stop-color="#A7A7A7"/>
<stop offset="0.144531" stop-color="#A8A8A8"/>
<stop offset="0.148438" stop-color="#A8A8A8"/>
<stop offset="0.15625" stop-color="#A9A9A9"/>
<stop offset="0.164062" stop-color="#AAAAAA"/>
<stop offset="0.171875" stop-color="#ABABAB"/>
<stop offset="0.179688" stop-color="#ACACAC"/>
<stop offset="0.1875" stop-color="#ACACAC"/>
<stop offset="0.191406" stop-color="#ADADAD"/>
<stop offset="0.195312" stop-color="#AEAEAD"/>
<stop offset="0.203125" stop-color="#AEAEAD"/>
<stop offset="0.210937" stop-color="#AFAFAE"/>
<stop offset="0.21875" stop-color="#B0B0AF"/>
<stop offset="0.226562" stop-color="#B1B1B0"/>
<stop offset="0.230469" stop-color="#B3B3B2"/>
<stop offset="0.234375" stop-color="#B3B3B2"/>
<stop offset="0.242187" stop-color="#B4B4B3"/>
<stop offset="0.25" stop-color="#B5B5B4"/>
<stop offset="0.257812" stop-color="#B6B6B5"/>
<stop offset="0.265625" stop-color="#B7B7B6"/>
<stop offset="0.269531" stop-color="#B8B8B7"/>
<stop offset="0.273437" stop-color="#B8B8B7"/>
<stop offset="0.28125" stop-color="#B9B9B8"/>
<stop offset="0.289062" stop-color="#B9B9B9"/>
<stop offset="0.296875" stop-color="#BABAB9"/>
<stop offset="0.304687" stop-color="#BBBBBA"/>
<stop offset="0.3125" stop-color="#BBBBBB"/>
<stop offset="0.316406" stop-color="#BCBCBC"/>
<stop offset="0.320312" stop-color="#BDBDBD"/>
<stop offset="0.328125" stop-color="#BEBEBE"/>
<stop offset="0.335937" stop-color="#BFBFBF"/>
<stop offset="0.34375" stop-color="#C0C0C0"/>
<stop offset="0.351562" stop-color="#C1C1C1"/>
<stop offset="0.355469" stop-color="#C2C2C2"/>
<stop offset="0.359375" stop-color="#C2C2C2"/>
<stop offset="0.367188" stop-color="#C3C3C3"/>
<stop offset="0.375" stop-color="#C4C4C4"/>
<stop offset="0.382812" stop-color="#C5C5C5"/>
<stop offset="0.390625" stop-color="#C5C5C5"/>
<stop offset="0.394531" stop-color="#C6C6C6"/>
<stop offset="0.398438" stop-color="#C7C7C6"/>
<stop offset="0.40625" stop-color="#C7C7C6"/>
<stop offset="0.414063" stop-color="#C8C8C7"/>
<stop offset="0.421875" stop-color="#C9C9C8"/>
<stop offset="0.429688" stop-color="#CACAC9"/>
<stop offset="0.4375" stop-color="#CBCBCA"/>
<stop offset="0.441406" stop-color="#CDCDCC"/>
<stop offset="0.445312" stop-color="#CDCDCC"/>
<stop offset="0.453125" stop-color="#CECECD"/>
<stop offset="0.460938" stop-color="#CFCFCE"/>
<stop offset="0.46875" stop-color="#CFCFCF"/>
<stop offset="0.476562" stop-color="#D0D0D0"/>
<stop offset="0.480469" stop-color="#D1D1D1"/>
<stop offset="0.484375" stop-color="#D1D1D1"/>
<stop offset="0.492188" stop-color="#D2D2D2"/>
<stop offset="0.5" stop-color="#D3D3D3"/>
<stop offset="0.507812" stop-color="#D3D3D3"/>
<stop offset="0.515625" stop-color="#D4D4D4"/>
<stop offset="0.519531" stop-color="#D5D5D5"/>
<stop offset="0.523438" stop-color="#D6D6D6"/>
<stop offset="0.53125" stop-color="#D7D7D7"/>
<stop offset="0.539063" stop-color="#D8D8D8"/>
<stop offset="0.546875" stop-color="#D9D9D9"/>
<stop offset="0.554688" stop-color="#DADADA"/>
<stop offset="0.5625" stop-color="#DBDBDB"/>
<stop offset="0.566406" stop-color="#DCDCDC"/>
<stop offset="0.570313" stop-color="#DCDCDC"/>
<stop offset="0.578125" stop-color="#DDDDDD"/>
<stop offset="0.585938" stop-color="#DEDEDD"/>
<stop offset="0.59375" stop-color="#DFDFDE"/>
<stop offset="0.601563" stop-color="#DFDFDF"/>
<stop offset="0.605469" stop-color="#E0E0E0"/>
<stop offset="0.609375" stop-color="#E1E1E0"/>
<stop offset="0.617188" stop-color="#E1E1E0"/>
<stop offset="0.625" stop-color="#E2E2E1"/>
<stop offset="0.632813" stop-color="#E3E3E2"/>
<stop offset="0.640625" stop-color="#E3E3E3"/>
<stop offset="0.644531" stop-color="#E5E5E5"/>
<stop offset="0.648438" stop-color="#E5E5E5"/>
<stop offset="0.65625" stop-color="#E6E6E6"/>
<stop offset="0.664063" stop-color="#E7E7E7"/>
<stop offset="0.671875" stop-color="#E8E8E8"/>
<stop offset="0.679688" stop-color="#E9E9E9"/>
<stop offset="0.6875" stop-color="#EAEAEA"/>
<stop offset="0.691406" stop-color="#EBEBEB"/>
<stop offset="0.695313" stop-color="#EBEBEB"/>
<stop offset="0.703125" stop-color="#ECECEC"/>
<stop offset="0.710938" stop-color="#ECECEC"/>
<stop offset="0.71875" stop-color="#EDEDED"/>
<stop offset="0.726563" stop-color="#EEEEEE"/>
<stop offset="0.730469" stop-color="#EFEFEF"/>
<stop offset="0.734375" stop-color="#F0F0F0"/>
<stop offset="0.742188" stop-color="#F1F1F1"/>
<stop offset="0.75" stop-color="#F2F2F2"/>
<stop offset="0.757813" stop-color="#F3F3F3"/>
<stop offset="0.765625" stop-color="#F4F4F4"/>
<stop offset="0.769531" stop-color="#F5F5F5"/>
<stop offset="0.773438" stop-color="#F5F5F5"/>
<stop offset="0.78125" stop-color="#F6F6F6"/>
<stop offset="0.789063" stop-color="#F7F7F6"/>
<stop offset="0.796875" stop-color="#F7F7F7"/>
<stop offset="0.804688" stop-color="#F8F8F8"/>
<stop offset="0.8125" stop-color="#F8F8F8"/>
<stop offset="0.816406" stop-color="#F9F9F9"/>
<stop offset="0.820313" stop-color="#FAFAFA"/>
<stop offset="0.828125" stop-color="#FAFAFA"/>
<stop offset="0.835938" stop-color="#FBFBFB"/>
<stop offset="0.84375" stop-color="#FCFCFC"/>
<stop offset="0.851563" stop-color="#FDFDFD"/>
<stop offset="0.855469" stop-color="#FEFEFE"/>
<stop offset="0.859375" stop-color="white"/>
<stop offset="0.875" stop-color="white"/>
<stop offset="1" stop-color="white"/>
</linearGradient>
<linearGradient id="paint1_linear_10_226" x1="22.7111" y1="39.7203" x2="22.7111" y2="1.60327" gradientUnits="userSpaceOnUse">
<stop stop-color="#999998"/>
<stop offset="0.0078125" stop-color="#999998"/>
<stop offset="0.015625" stop-color="#9A9A99"/>
<stop offset="0.0234375" stop-color="#9B9B9A"/>
<stop offset="0.03125" stop-color="#9C9C9B"/>
<stop offset="0.0390625" stop-color="#9D9D9C"/>
<stop offset="0.046875" stop-color="#9E9E9D"/>
<stop offset="0.0546875" stop-color="#9E9E9D"/>
<stop offset="0.0625" stop-color="#9F9F9E"/>
<stop offset="0.0703125" stop-color="#9F9F9F"/>
<stop offset="0.078125" stop-color="#A0A09F"/>
<stop offset="0.0859375" stop-color="#A1A1A0"/>
<stop offset="0.09375" stop-color="#A2A2A1"/>
<stop offset="0.101563" stop-color="#A2A2A2"/>
<stop offset="0.105469" stop-color="#A3A3A2"/>
<stop offset="0.109375" stop-color="#A4A4A3"/>
<stop offset="0.113281" stop-color="#A4A4A3"/>
<stop offset="0.117188" stop-color="#A5A5A4"/>
<stop offset="0.125" stop-color="#A5A5A4"/>
<stop offset="0.132813" stop-color="#A6A6A5"/>
<stop offset="0.140625" stop-color="#A6A6A6"/>
<stop offset="0.144531" stop-color="#A7A7A7"/>
<stop offset="0.148438" stop-color="#A8A8A7"/>
<stop offset="0.15625" stop-color="#A9A9A8"/>
<stop offset="0.164062" stop-color="#AAAAA9"/>
<stop offset="0.171875" stop-color="#AAAAAA"/>
<stop offset="0.179688" stop-color="#ABABAA"/>
<stop offset="0.1875" stop-color="#ABABAB"/>
<stop offset="0.191406" stop-color="#ACACAC"/>
<stop offset="0.195312" stop-color="#ADADAC"/>
<stop offset="0.203125" stop-color="#ADADAC"/>
<stop offset="0.210938" stop-color="#ADADAD"/>
<stop offset="0.21875" stop-color="#AEAEAE"/>
<stop offset="0.226562" stop-color="#AFAFAE"/>
<stop offset="0.230469" stop-color="#B0B0AF"/>
<stop offset="0.234375" stop-color="#B1B1B0"/>
<stop offset="0.238281" stop-color="#B1B1B0"/>
<stop offset="0.242188" stop-color="#B1B1B1"/>
<stop offset="0.25" stop-color="#B1B1B1"/>
<stop offset="0.257812" stop-color="#B2B2B2"/>
<stop offset="0.265625" stop-color="#B3B3B2"/>
<stop offset="0.269531" stop-color="#B4B4B3"/>
<stop offset="0.273437" stop-color="#B5B5B4"/>
<stop offset="0.277344" stop-color="#B5B5B5"/>
<stop offset="0.28125" stop-color="#B5B5B5"/>
<stop offset="0.289063" stop-color="#B6B6B6"/>
<stop offset="0.296875" stop-color="#B7B7B6"/>
<stop offset="0.304688" stop-color="#B8B8B7"/>
<stop offset="0.3125" stop-color="#B8B8B7"/>
<stop offset="0.320312" stop-color="#B9B9B8"/>
<stop offset="0.328125" stop-color="#B9B9B9"/>
<stop offset="0.335938" stop-color="#BABABA"/>
<stop offset="0.34375" stop-color="#BBBBBA"/>
<stop offset="0.351563" stop-color="#BCBCBB"/>
<stop offset="0.355469" stop-color="#BCBCBC"/>
<stop offset="0.359375" stop-color="#BDBDBD"/>
<stop offset="0.367188" stop-color="#BDBDBD"/>
<stop offset="0.375" stop-color="#BEBEBD"/>
<stop offset="0.382812" stop-color="#BFBFBE"/>
<stop offset="0.390625" stop-color="#C0C0BF"/>
<stop offset="0.394531" stop-color="#C1C1C0"/>
<stop offset="0.398438" stop-color="#C1C1C1"/>
<stop offset="0.40625" stop-color="#C2C2C1"/>
<stop offset="0.414063" stop-color="#C3C3C2"/>
<stop offset="0.421875" stop-color="#C4C4C2"/>
<stop offset="0.429688" stop-color="#C4C4C3"/>
<stop offset="0.4375" stop-color="#C5C5C4"/>
<stop offset="0.445313" stop-color="#C5C5C5"/>
<stop offset="0.453125" stop-color="#C6C6C5"/>
<stop offset="0.460938" stop-color="#C7C7C6"/>
<stop offset="0.46875" stop-color="#C8C8C7"/>
<stop offset="0.476562" stop-color="#C8C8C8"/>
<stop offset="0.480469" stop-color="#C9C9C9"/>
<stop offset="0.484375" stop-color="#CACAC9"/>
<stop offset="0.488281" stop-color="#CACAC9"/>
<stop offset="0.492187" stop-color="#CBCBCA"/>
<stop offset="0.5" stop-color="#CBCBCA"/>
<stop offset="0.507813" stop-color="#CBCBCB"/>
<stop offset="0.515625" stop-color="#CCCCCC"/>
<stop offset="0.519531" stop-color="#CDCDCD"/>
<stop offset="0.523438" stop-color="#CECECD"/>
<stop offset="0.53125" stop-color="#CFCFCE"/>
<stop offset="0.539062" stop-color="#CFCFCF"/>
<stop offset="0.546875" stop-color="#D0D0D0"/>
<stop offset="0.554688" stop-color="#D0D0D0"/>
<stop offset="0.5625" stop-color="#D1D1D1"/>
<stop offset="0.570312" stop-color="#D2D2D2"/>
<stop offset="0.578125" stop-color="#D3D3D2"/>
<stop offset="0.585938" stop-color="#D3D3D3"/>
<stop offset="0.59375" stop-color="#D4D4D4"/>
<stop offset="0.601562" stop-color="#D5D5D5"/>
<stop offset="0.605469" stop-color="#D6D6D5"/>
<stop offset="0.609375" stop-color="#D7D7D6"/>
<stop offset="0.617187" stop-color="#D7D7D6"/>
<stop offset="0.625" stop-color="#D7D7D7"/>
<stop offset="0.632813" stop-color="#D8D8D8"/>
<stop offset="0.640625" stop-color="#D9D9D9"/>
<stop offset="0.644531" stop-color="#DADADA"/>
<stop offset="0.648438" stop-color="#DADADA"/>
<stop offset="0.652344" stop-color="#DBDBDB"/>
<stop offset="0.65625" stop-color="#DBDBDB"/>
<stop offset="0.664063" stop-color="#DCDCDC"/>
<stop offset="0.671875" stop-color="#DDDDDD"/>
<stop offset="0.679688" stop-color="#DEDEDD"/>
<stop offset="0.6875" stop-color="#DEDEDE"/>
<stop offset="0.691406" stop-color="#DFDFDF"/>
<stop offset="0.695312" stop-color="#DFDFDF"/>
<stop offset="0.703125" stop-color="#DFDFDF"/>
<stop offset="0.710938" stop-color="#E0E0E0"/>
<stop offset="0.71875" stop-color="#E1E1E1"/>
<stop offset="0.726562" stop-color="#E2E2E1"/>
<stop offset="0.730469" stop-color="#E2E2E2"/>
<stop offset="0.734375" stop-color="#E3E3E3"/>
<stop offset="0.742188" stop-color="#E3E3E3"/>
<stop offset="0.75" stop-color="#E4E4E4"/>
<stop offset="0.757813" stop-color="#E5E5E4"/>
<stop offset="0.765625" stop-color="#E6E6E5"/>
<stop offset="0.769531" stop-color="#E7E7E6"/>
<stop offset="0.773438" stop-color="#E7E7E7"/>
<stop offset="0.78125" stop-color="#E8E8E8"/>
<stop offset="0.789063" stop-color="#E9E9E8"/>
<stop offset="0.796875" stop-color="#E9E9E9"/>
<stop offset="0.804688" stop-color="#EAEAE9"/>
<stop offset="0.8125" stop-color="#EAEAEA"/>
<stop offset="0.820313" stop-color="#EBEBEB"/>
<stop offset="0.828125" stop-color="#ECECEC"/>
<stop offset="0.835938" stop-color="#EDEDEC"/>
<stop offset="0.84375" stop-color="#EDEDED"/>
<stop offset="0.851562" stop-color="#EEEEEE"/>
<stop offset="0.855469" stop-color="#EFEFEF"/>
<stop offset="0.859375" stop-color="#F0F0F0"/>
<stop offset="0.863281" stop-color="#F0F0F0"/>
<stop offset="0.867188" stop-color="#F1F1F0"/>
<stop offset="0.875" stop-color="#F1F1F0"/>
<stop offset="0.882813" stop-color="#F1F1F1"/>
<stop offset="0.890625" stop-color="#F2F2F2"/>
<stop offset="0.894531" stop-color="#F3F3F3"/>
<stop offset="0.898438" stop-color="#F4F4F4"/>
<stop offset="0.90625" stop-color="#F4F4F4"/>
<stop offset="0.914063" stop-color="#F5F5F5"/>
<stop offset="0.921875" stop-color="#F5F5F5"/>
<stop offset="0.929688" stop-color="#F6F6F6"/>
<stop offset="0.9375" stop-color="#F7F7F7"/>
<stop offset="0.953125" stop-color="#F8F8F8"/>
<stop offset="0.960938" stop-color="#F9F9F9"/>
<stop offset="0.96875" stop-color="#FAFAFA"/>
<stop offset="0.976562" stop-color="#FBFBFB"/>
<stop offset="0.984375" stop-color="#FCFCFC"/>
<stop offset="0.992188" stop-color="#FCFCFC"/>
<stop offset="1" stop-color="#FDFDFD"/>
</linearGradient>
<linearGradient id="paint2_linear_10_226" x1="10.9309" y1="43.2996" x2="10.9309" y2="1.5067" gradientUnits="userSpaceOnUse">
<stop stop-color="#979796"/>
<stop offset="0.0078125" stop-color="#979796"/>
<stop offset="0.015625" stop-color="#979796"/>
<stop offset="0.0195312" stop-color="#999997"/>
<stop offset="0.0234375" stop-color="#999998"/>
<stop offset="0.03125" stop-color="#9A9A99"/>
<stop offset="0.0390625" stop-color="#9B9B9A"/>
<stop offset="0.046875" stop-color="#9C9C9B"/>
<stop offset="0.0546875" stop-color="#9D9D9C"/>
<stop offset="0.0625" stop-color="#9E9E9D"/>
<stop offset="0.0664062" stop-color="#9F9F9E"/>
<stop offset="0.0703125" stop-color="#9F9F9E"/>
<stop offset="0.078125" stop-color="#A0A09F"/>
<stop offset="0.0859375" stop-color="#A0A0A0"/>
<stop offset="0.09375" stop-color="#A1A1A0"/>
<stop offset="0.101562" stop-color="#A2A2A1"/>
<stop offset="0.105469" stop-color="#A3A3A2"/>
<stop offset="0.109375" stop-color="#A4A4A3"/>
<stop offset="0.117187" stop-color="#A5A5A4"/>
<stop offset="0.125" stop-color="#A6A6A5"/>
<stop offset="0.132812" stop-color="#A7A7A6"/>
<stop offset="0.140625" stop-color="#A8A8A6"/>
<stop offset="0.144531" stop-color="#A8A8A8"/>
<stop offset="0.148437" stop-color="#A8A8A8"/>
<stop offset="0.15625" stop-color="#A9A9A9"/>
<stop offset="0.164062" stop-color="#AAAAAA"/>
<stop offset="0.171875" stop-color="#ABABAB"/>
<stop offset="0.179687" stop-color="#ACACAC"/>
<stop offset="0.1875" stop-color="#ACACAC"/>
<stop offset="0.191406" stop-color="#ADADAD"/>
<stop offset="0.195312" stop-color="#AEAEAE"/>
<stop offset="0.203125" stop-color="#AEAEAE"/>
<stop offset="0.210937" stop-color="#AFAFAE"/>
<stop offset="0.21875" stop-color="#B0B0AF"/>
<stop offset="0.226562" stop-color="#B1B1B0"/>
<stop offset="0.230469" stop-color="#B3B3B1"/>
<stop offset="0.234375" stop-color="#B3B3B2"/>
<stop offset="0.242187" stop-color="#B4B4B3"/>
<stop offset="0.25" stop-color="#B5B5B4"/>
<stop offset="0.257812" stop-color="#B6B6B5"/>
<stop offset="0.265625" stop-color="#B7B7B6"/>
<stop offset="0.269531" stop-color="#B8B8B7"/>
<stop offset="0.273437" stop-color="#B8B8B7"/>
<stop offset="0.28125" stop-color="#B9B9B8"/>
<stop offset="0.289062" stop-color="#B9B9B9"/>
<stop offset="0.296875" stop-color="#BABAB9"/>
<stop offset="0.304687" stop-color="#BBBBBA"/>
<stop offset="0.3125" stop-color="#BCBCBB"/>
<stop offset="0.316406" stop-color="#BDBDBC"/>
<stop offset="0.320312" stop-color="#BDBDBD"/>
<stop offset="0.328125" stop-color="#BEBEBE"/>
<stop offset="0.335937" stop-color="#BEBEBE"/>
<stop offset="0.34375" stop-color="#BFBFBF"/>
<stop offset="0.351562" stop-color="#C0C0C0"/>
<stop offset="0.355469" stop-color="#C2C2C2"/>
<stop offset="0.359375" stop-color="#C2C2C2"/>
<stop offset="0.367187" stop-color="#C3C3C3"/>
<stop offset="0.375" stop-color="#C4C4C4"/>
<stop offset="0.382812" stop-color="#C5C5C5"/>
<stop offset="0.390625" stop-color="#C5C5C5"/>
<stop offset="0.394531" stop-color="#C6C6C6"/>
<stop offset="0.398437" stop-color="#C7C7C7"/>
<stop offset="0.40625" stop-color="#C7C7C7"/>
<stop offset="0.414062" stop-color="#C8C8C7"/>
<stop offset="0.421875" stop-color="#C9C9C8"/>
<stop offset="0.429687" stop-color="#CACAC9"/>
<stop offset="0.4375" stop-color="#CBCBCA"/>
<stop offset="0.441406" stop-color="#CCCCCB"/>
<stop offset="0.445312" stop-color="#CDCDCC"/>
<stop offset="0.453125" stop-color="#CECECD"/>
<stop offset="0.460937" stop-color="#CFCFCE"/>
<stop offset="0.46875" stop-color="#D0D0CF"/>
<stop offset="0.476562" stop-color="#D1D1D0"/>
<stop offset="0.480469" stop-color="#D1D1D1"/>
<stop offset="0.484375" stop-color="#D1D1D1"/>
<stop offset="0.492187" stop-color="#D2D2D2"/>
<stop offset="0.5" stop-color="#D3D3D3"/>
<stop offset="0.507812" stop-color="#D3D3D3"/>
<stop offset="0.515625" stop-color="#D4D4D4"/>
<stop offset="0.519531" stop-color="#D5D5D5"/>
<stop offset="0.523438" stop-color="#D6D6D6"/>
<stop offset="0.53125" stop-color="#D6D6D6"/>
<stop offset="0.539062" stop-color="#D7D7D7"/>
<stop offset="0.546875" stop-color="#D8D8D8"/>
<stop offset="0.554688" stop-color="#D9D9D9"/>
<stop offset="0.5625" stop-color="#DADADA"/>
<stop offset="0.566406" stop-color="#DCDCDC"/>
<stop offset="0.570312" stop-color="#DCDCDC"/>
<stop offset="0.578125" stop-color="#DDDDDD"/>
<stop offset="0.585938" stop-color="#DEDEDE"/>
<stop offset="0.59375" stop-color="#DFDFDF"/>
<stop offset="0.601562" stop-color="#DFDFDF"/>
<stop offset="0.605469" stop-color="#E0E0E0"/>
<stop offset="0.609375" stop-color="#E1E1E0"/>
<stop offset="0.617188" stop-color="#E1E1E0"/>
<stop offset="0.625" stop-color="#E2E2E1"/>
<stop offset="0.632812" stop-color="#E3E3E2"/>
<stop offset="0.640625" stop-color="#E4E4E3"/>
<stop offset="0.644531" stop-color="#E5E5E4"/>
<stop offset="0.648438" stop-color="#E6E6E5"/>
<stop offset="0.65625" stop-color="#E6E6E6"/>
<stop offset="0.664062" stop-color="#E7E7E7"/>
<stop offset="0.671875" stop-color="#E8E8E8"/>
<stop offset="0.679688" stop-color="#E9E9E9"/>
<stop offset="0.6875" stop-color="#EAEAEA"/>
<stop offset="0.691406" stop-color="#EBEBEB"/>
<stop offset="0.695312" stop-color="#EBEBEB"/>
<stop offset="0.703125" stop-color="#ECECEC"/>
<stop offset="0.710938" stop-color="#ECECEC"/>
<stop offset="0.71875" stop-color="#EDEDED"/>
<stop offset="0.726562" stop-color="#EEEEEE"/>
<stop offset="0.730469" stop-color="#EFEFEF"/>
<stop offset="0.734375" stop-color="#F0F0F0"/>
<stop offset="0.742188" stop-color="#F0F0F0"/>
<stop offset="0.75" stop-color="#F1F1F1"/>
<stop offset="0.757812" stop-color="#F2F2F2"/>
<stop offset="0.765625" stop-color="#F3F3F3"/>
<stop offset="0.769531" stop-color="#F5F5F5"/>
<stop offset="0.773438" stop-color="#F5F5F5"/>
<stop offset="0.78125" stop-color="#F6F6F6"/>
<stop offset="0.789062" stop-color="#F7F7F7"/>
<stop offset="0.796875" stop-color="#F8F8F8"/>
<stop offset="0.804688" stop-color="#F8F8F8"/>
<stop offset="0.8125" stop-color="#F9F9F9"/>
<stop offset="0.816406" stop-color="#FAFAF9"/>
<stop offset="0.820312" stop-color="#FAFAFA"/>
<stop offset="0.828125" stop-color="#FAFAFA"/>
<stop offset="0.835938" stop-color="#FBFBFB"/>
<stop offset="0.84375" stop-color="#FCFCFC"/>
<stop offset="0.851562" stop-color="#FDFDFD"/>
<stop offset="0.855469" stop-color="#FEFEFE"/>
<stop offset="0.859375" stop-color="white"/>
<stop offset="0.875" stop-color="white"/>
<stop offset="1" stop-color="white"/>
</linearGradient>
</defs>
</svg>
