<svg width="46" height="46" viewBox="0 0 46 46" fill="none" xmlns="http://www.w3.org/2000/svg">
<mask id="mask0_10_229" style="mask-type:luminance" maskUnits="userSpaceOnUse" x="0" y="0" width="46" height="46">
<path d="M0.442749 0.8125H45.4427V45.8125H0.442749V0.8125Z" fill="white"/>
</mask>
<g mask="url(#mask0_10_229)">
<path d="M28.0266 20.3094L27.5416 22.1233L27.5321 22.1572C27.5258 22.1912 26.8127 25.4273 25.8903 28.8639C25.7477 29.4068 24.575 33.3494 24.4926 33.5993C25.1614 33.6764 25.6812 34.2348 25.6812 34.9073C25.6812 35.6353 25.0758 36.2307 24.3278 36.2307C23.583 36.2307 22.9744 35.6353 22.9744 34.9073C22.9744 34.898 22.9776 34.8888 22.9776 34.8795C22.9015 34.571 22.8255 34.2718 22.7526 33.9818C22.5909 34.0497 22.4103 34.0867 22.2233 34.0867C21.4785 34.0867 20.8699 33.4944 20.8699 32.7663C20.8699 32.1123 21.3644 31.5663 22.0046 31.4645C20.8794 28.1667 19.8018 27.053 18.9999 26.507L18.889 26.433C18.87 26.4175 18.851 26.4083 18.8288 26.399L18.7052 26.3404C17.8875 25.964 16.7972 25.782 15.3677 25.782C13.5041 25.782 10.9907 26.0936 7.88464 26.7044C7.48529 26.7816 7.21905 26.3527 7.51064 26.1059C8.42662 25.3285 10.1571 24.002 13.4217 21.821C16.6292 19.6739 19.7131 17.7766 19.7416 17.7581L19.7765 17.7365L21.2693 16.737C21.3612 16.6784 21.4721 16.6537 21.5862 16.6691C21.9 16.7185 22.2518 16.7493 22.6226 16.7493C22.9015 16.7493 23.1709 16.7308 23.4277 16.6938C23.5291 16.6815 23.6337 16.7031 23.7193 16.7524L23.8651 16.8419L26.1027 18.1777L26.9426 18.6774L27.2944 18.8872L27.4656 18.989C27.5511 19.0414 27.6114 19.1216 27.6335 19.2111C27.7001 19.4888 27.811 19.7787 27.9885 20.0718C28.0329 20.1458 28.0456 20.2291 28.0266 20.3094ZM39.2877 1.229C33.9122 2.64499 33.2942 3.76482 33.2942 3.76482L25.5322 14.5313L24.1091 13.5842C22.7462 14.4171 20.6132 13.5842 20.6132 13.5842L17.71 15.7498C17.71 15.7498 2.43951 26.2417 0.902317 29.2372C-0.631702 32.2357 2.0972 32.8188 2.86421 32.6522C2.88006 32.6491 2.89908 32.646 2.92126 32.6398C5.5012 32.3653 8.08431 32.0907 10.6674 31.8162C12.5437 31.6156 14.4201 31.4151 16.2964 31.2146C16.4485 31.2671 16.5911 31.3257 16.7179 31.3904C19.4088 33.4358 21.0823 43.5204 21.2344 44.2361C21.396 44.9889 23.06 47.1792 25.2311 44.5816C26.09 43.5482 27.7286 37.9336 28.7682 33.9324C28.746 36.7459 28.8411 41.3147 28.8443 41.5677C28.8474 41.6818 28.9045 41.7898 28.9964 41.8576C29.0313 41.8854 29.2912 42.0705 29.6462 42.0705C29.7603 42.0705 29.8839 42.052 30.017 41.9996C30.578 41.7867 30.9456 41.1173 31.1453 39.9573C31.2594 39.2725 31.2341 38.6616 31.2087 38.1218C31.1738 37.3351 31.1675 36.8755 31.4623 36.5639C31.8109 36.1968 32.6476 35.9932 34.0232 35.9407C34.2355 35.9315 34.4003 35.7587 34.3908 35.552C34.3845 35.3453 34.2038 35.1849 33.9915 35.1911C32.3592 35.2528 31.4052 35.5212 30.8981 36.058C30.372 36.6132 30.4068 37.3629 30.4417 38.1557C30.4639 38.6586 30.4892 39.2293 30.3878 39.8339C30.1818 41.034 29.8395 41.2623 29.7381 41.3024C29.6937 41.3209 29.6493 41.3209 29.6081 41.3178C29.5828 39.9604 29.4592 33.1951 29.5986 32.029C29.6303 31.7576 29.5511 31.5108 29.3736 31.3257C30.2071 27.6515 30.9266 24.0822 30.9266 24.0822L31.757 20.6148L31.7443 20.6055C31.757 20.5592 31.7887 20.4112 31.7887 20.4112C30.5938 19.245 31.1073 18.2486 31.1073 18.2486L28.8443 16.7401L36.4637 6.16799C36.47 6.17108 36.4763 6.17107 36.4827 6.17416C40.7107 7.10273 45.354 3.89131 45.4396 3.14167C45.522 2.39203 44.6631 -0.186983 39.2877 1.229Z" fill="#2E2D2D"/>
</g>
</svg>
