<svg width="90" height="29" viewBox="0 0 90 29" fill="none" xmlns="http://www.w3.org/2000/svg">
<g id="google 1" clip-path="url(#clip0_6_4710)">
<g id="Group">
<path id="Vector" d="M87.1967 17.7231L89.6934 19.3576C88.883 20.5298 86.9448 22.5406 83.594 22.5406C79.4329 22.5406 76.334 19.3792 76.334 15.3574C76.334 11.0776 79.4658 8.17419 83.2436 8.17419C87.0434 8.17419 88.9049 11.1421 89.5072 12.7444L89.8357 13.5616L80.0461 17.5403C80.7908 18.9813 81.9515 19.7125 83.594 19.7125C85.2366 19.7125 86.3754 18.9168 87.1967 17.7231ZM79.5205 15.1316L86.0579 12.4648C85.6965 11.5722 84.6234 10.9378 83.3422 10.9378C81.7106 10.9378 79.4439 12.3572 79.5205 15.1316Z" fill="#FF302F"/>
<path id="Vector_2" d="M71.6147 0.851196H74.7684V21.8847H71.6147V0.851196Z" fill="#20B15A"/>
<path id="Vector_3" d="M66.6431 8.73338H69.6873V21.5083C69.6873 26.8097 66.5008 28.9926 62.7338 28.9926C59.1859 28.9926 57.0506 26.6484 56.2513 24.7451L59.0436 23.6052C59.5473 24.7773 60.7628 26.1645 62.7338 26.1645C65.1539 26.1645 66.6431 24.6913 66.6431 21.9385V20.9061H66.5336C65.8109 21.7664 64.4311 22.5406 62.6791 22.5406C59.0217 22.5406 55.6709 19.4114 55.6709 15.3789C55.6709 11.3249 59.0217 8.16345 62.6791 8.16345C64.4202 8.16345 65.8109 8.92694 66.5336 9.7657H66.6431V8.73338ZM66.8621 15.3789C66.8621 12.8411 65.1429 10.9916 62.9529 10.9916C60.7409 10.9916 58.8793 12.8411 58.8793 15.3789C58.8793 17.8845 60.7409 19.7018 62.9529 19.7018C65.1429 19.7125 66.8621 17.8845 66.8621 15.3789Z" fill="#3686F7"/>
<path id="Vector_4" d="M38.3581 15.3252C38.3581 19.4652 35.073 22.5084 31.0433 22.5084C27.0136 22.5084 23.7285 19.4545 23.7285 15.3252C23.7285 11.1637 27.0136 8.13123 31.0433 8.13123C35.073 8.13123 38.3581 11.1637 38.3581 15.3252ZM35.1606 15.3252C35.1606 12.7444 33.2553 10.9701 31.0433 10.9701C28.8314 10.9701 26.926 12.7444 26.926 15.3252C26.926 17.8845 28.8314 19.6803 31.0433 19.6803C33.2553 19.6803 35.1606 17.8845 35.1606 15.3252Z" fill="#FF302F"/>
<path id="Vector_5" d="M54.3347 15.3574C54.3347 19.4974 51.0496 22.5406 47.0199 22.5406C42.9902 22.5406 39.7051 19.4974 39.7051 15.3574C39.7051 11.1959 42.9902 8.17419 47.0199 8.17419C51.0496 8.17419 54.3347 11.1851 54.3347 15.3574ZM51.1262 15.3574C51.1262 12.7766 49.2209 11.0023 47.0089 11.0023C44.797 11.0023 42.8916 12.7766 42.8916 15.3574C42.8916 17.9167 44.797 19.7125 47.0089 19.7125C49.2318 19.7125 51.1262 17.9059 51.1262 15.3574Z" fill="#FFBA40"/>
<path id="Vector_6" d="M11.7053 19.3899C7.11716 19.3899 3.52546 15.7553 3.52546 11.2496C3.52546 6.744 7.11716 3.10937 11.7053 3.10937C14.1801 3.10937 15.9869 4.06642 17.3228 5.2923L19.5239 3.13088C17.6623 1.37809 15.1766 0.0446777 11.7053 0.0446777C5.41986 0.0446777 0.130859 5.07723 0.130859 11.2496C0.130859 17.422 5.41986 22.4546 11.7053 22.4546C15.0999 22.4546 17.6623 21.3578 19.6662 19.3146C21.7249 17.293 22.36 14.4541 22.36 12.1529C22.36 11.4324 22.2724 10.6905 22.1738 10.142H11.7053V13.1315H19.1625C18.9435 15.0025 18.3412 16.2822 17.4543 17.1532C16.3811 18.2178 14.6838 19.3899 11.7053 19.3899Z" fill="#3686F7"/>
</g>
</g>
<defs>
<clipPath id="clip0_6_4710">
<rect width="90" height="29" fill="white"/>
</clipPath>
</defs>
</svg>
