<svg width="107" height="25" viewBox="0 0 107 25" fill="none" xmlns="http://www.w3.org/2000/svg">
<g id="youtube 1" clip-path="url(#clip0_6_4721)">
<g id="Group">
<g id="Group_2">
<path id="Vector" d="M33.4143 3.86434C33.0155 2.34437 31.8642 1.15705 30.3903 0.745749C27.7388 0 17.0669 0 17.0669 0C17.0669 0 6.39506 0.0225984 3.74353 0.768348C2.26964 1.17964 1.1183 2.36697 0.719475 3.88693C-0.0825572 8.7456 -0.393728 16.1489 0.741388 20.8132C1.14022 22.3331 2.29156 23.5205 3.76544 23.9318C6.41697 24.6775 17.0888 24.6775 17.0888 24.6775C17.0888 24.6775 27.7607 24.6775 30.4122 23.9318C31.8861 23.5205 33.0374 22.3331 33.4362 20.8132C34.2821 15.9477 34.5429 8.549 33.4143 3.86434Z" fill="#FF0000"/>
<path id="Vector_2" d="M13.6704 17.6267L22.5234 12.3387L13.6704 7.05066V17.6267Z" fill="white"/>
</g>
<path id="Vector_3" d="M102.661 7.16378C103.822 7.16378 104.699 7.38976 105.312 7.81913C105.926 8.24851 106.364 8.92646 106.627 9.85299C106.89 10.7795 107 12.045 107 13.6721V16.3162H101.368V17.1297L101.456 19.3669C101.521 19.8641 101.631 20.2257 101.806 20.4517C101.982 20.6777 102.266 20.7906 102.639 20.7906C103.143 20.7906 103.494 20.5873 103.669 20.1805C103.866 19.7737 103.954 19.0958 103.976 18.1692L106.89 18.35C106.912 18.4856 106.912 18.6664 106.912 18.8924C106.912 20.3161 106.54 21.3782 105.773 22.0788C105.006 22.7793 103.954 23.1409 102.573 23.1409C100.908 23.1409 99.7464 22.5985 99.089 21.5364C98.4316 20.4743 98.081 18.802 98.081 16.5647V13.8303C98.1555 9.98859 98.8107 7.17508 102.661 7.16378ZM62.1429 7.45756V18.7794C62.1429 19.4573 62.2087 19.9545 62.362 20.2483C62.6732 20.8765 63.4796 20.7161 63.9179 20.4065C64.1709 20.2301 64.3749 19.9886 64.5096 19.7059V7.45756H67.8623V22.8923H65.2327L64.9478 20.994H64.8821C64.159 22.4177 63.0852 23.1409 61.6608 23.1409C59.4685 23.1351 58.9322 21.5064 58.8045 19.8522L58.7962 19.7354C58.7795 19.4823 58.7717 19.2295 58.7682 18.9828V7.45756H62.1429ZM79.4326 7.45756V18.7794C79.4326 19.4573 79.4984 19.9545 79.6518 20.2483C79.9629 20.8765 80.7693 20.7161 81.2076 20.4065C81.4606 20.2301 81.6646 19.9886 81.7993 19.7059V7.45756H85.152V22.8923H82.5224L82.2375 20.994H82.1718C81.4487 22.4177 80.3749 23.1409 78.9505 23.1409C76.7582 23.1351 76.2219 21.5064 76.0942 19.8522L76.0859 19.7354C76.0692 19.4823 76.0614 19.2295 76.058 18.9828V7.45756H79.4326ZM52.4133 7.16378C53.509 7.16378 54.4075 7.38976 55.0649 7.86433C55.7223 8.3389 56.2263 9.06205 56.5331 10.0564C56.8399 11.0507 56.9933 12.384 56.9933 14.0337V16.271C56.9933 17.9206 56.8399 19.2314 56.5331 20.2257C56.2263 21.22 55.7442 21.9432 55.0649 22.4177C54.3856 22.8697 53.4652 23.1183 52.3257 23.1183C51.1424 23.1409 50.222 22.8923 49.5427 22.4403C48.8634 21.9658 48.3813 21.2426 48.0964 20.2483C47.8115 19.254 47.68 17.9432 47.68 16.2936V14.0563C47.68 12.4066 47.8334 11.0507 48.1621 10.0564C48.4908 9.03945 48.9948 8.3163 49.6961 7.86433C50.3973 7.41236 51.2958 7.16378 52.4133 7.16378ZM90.4113 0.971802V9.10725H90.4332C90.74 8.51969 91.1344 8.04512 91.6822 7.68354C92.1939 7.32867 92.7968 7.13978 93.4134 7.14118C94.2242 7.14118 94.8378 7.36717 95.298 7.79654C95.7581 8.24851 96.0868 8.94906 96.2841 9.92079C96.4751 10.8622 96.5839 12.1641 96.5905 13.806L96.5908 13.9659V16.4065C96.5908 18.689 96.306 20.3839 95.7801 21.4686C95.2322 22.5533 94.3995 23.0957 93.26 23.0957C92.6245 23.0957 92.0548 22.9375 91.5288 22.6437C91.0633 22.364 90.678 21.963 90.4108 21.4818L90.3674 21.4008H90.3017L89.9511 22.8697H87.1681V0.971802H90.4113ZM77.0002 1.76275V4.56496H73.6694V22.8923H70.3824V4.56496H67.0296V1.76275H77.0002ZM40.865 1.76275L40.8668 1.77126C40.8989 1.91824 41.3421 3.94951 41.8292 6.31596L41.8678 6.50346C41.8871 6.59753 41.9065 6.69205 41.9259 6.78694L41.9647 6.97718C41.9712 7.00895 41.9776 7.04076 41.9841 7.0726L42.023 7.26397C42.0295 7.29592 42.0359 7.32789 42.0424 7.35987L42.0813 7.552L42.1378 7.83279C42.4667 9.47153 42.7807 11.1151 42.9687 12.2936H43.0563C43.2365 11.2364 43.4979 9.88359 43.7767 8.50242L43.8498 8.14164C43.8865 7.96111 43.9234 7.78049 43.9604 7.60038L44.0179 7.3207C44.5543 4.7187 45.0881 2.2879 45.1874 1.83721L45.1938 1.8081C45.2004 1.77823 45.2038 1.76275 45.2038 1.76275H48.5566L44.6779 16.0224V22.8697H41.369V16.045H41.3471L37.5122 1.76275H40.865ZM52.3476 9.55922C51.8874 9.55922 51.5806 9.8078 51.3834 10.3276C51.1862 10.8473 51.0985 11.6383 51.0985 12.7456V17.5591C51.0985 18.689 51.1862 19.5251 51.3615 20.0223C51.5368 20.5195 51.8655 20.7681 52.3476 20.7681C52.8078 20.7681 53.1365 20.5195 53.3337 20.0223C53.5309 19.5251 53.6186 18.689 53.6186 17.5591V12.7456C53.6186 11.6383 53.5309 10.8247 53.3337 10.3276C53.1365 9.8078 52.8078 9.55922 52.3476 9.55922ZM91.0029 10.0112C90.7359 10.2654 90.5458 10.5792 90.4328 10.9713L90.4113 11.0507V19.8189C90.683 20.2935 91.0687 20.6099 91.748 20.6325C92.0986 20.6325 92.3835 20.4969 92.6026 20.2257C92.8217 19.9545 92.9751 19.5025 93.0628 18.8698C93.1469 18.2623 93.1907 17.4258 93.1941 16.3602L93.1943 16.2258V14.2145C93.1943 12.9942 93.1504 12.0676 93.0847 11.4123C92.997 10.7569 92.8875 10.2824 92.6903 10.0112C92.309 9.44622 91.485 9.453 91.0029 10.0112ZM102.595 9.49142C102.223 9.51402 101.96 9.62701 101.806 9.8304C101.631 10.0564 101.521 10.3954 101.456 10.8925C101.391 11.3797 101.369 13.0824 101.368 13.1503L101.368 14.2597H103.822L103.822 13.2813L103.822 13.3001C103.821 13.6422 103.814 13.1016 103.799 12.438L103.797 12.3488C103.783 11.7656 103.763 11.1153 103.735 10.8925C103.669 10.3728 103.559 10.0112 103.384 9.8078C103.209 9.60441 102.946 9.49142 102.595 9.49142Z" fill="#282828"/>
</g>
</g>
<defs>
<clipPath id="clip0_6_4721">
<rect width="107" height="25" fill="white"/>
</clipPath>
</defs>
</svg>
