<svg width="155" height="155" viewBox="0 0 155 155" fill="none" xmlns="http://www.w3.org/2000/svg">
<g filter="url(#filter0_d_6_4918)">
<rect x="44" y="18.147" width="54.6589" height="54.6589" rx="27.3295" transform="rotate(-15 44 18.147)" fill="#FFF3F3"/>
</g>
<path d="M92.7858 33.2495C93.5941 36.2661 93.4897 39.4547 92.4859 42.412C91.482 45.3693 89.6237 47.9625 87.1461 49.8637C84.6684 51.7649 81.6826 52.8887 78.5662 53.0929C75.4499 53.2972 72.3429 52.5727 69.6383 51.0112C66.9337 49.4497 64.7528 47.1212 63.3716 44.3203C61.9903 41.5193 61.4706 38.3716 61.8782 35.2753C62.2859 32.179 63.6025 29.2731 65.6617 26.9251C67.7208 24.577 70.43 22.8924 73.4467 22.0841L77.5335 37.3364L92.7858 33.2495Z" fill="#F15060"/>
<path d="M75.1646 19.1077C77.1675 18.571 79.2566 18.4341 81.3125 18.7048C83.3683 18.9754 85.3508 19.6484 87.1466 20.6852C88.9424 21.722 90.5164 23.1024 91.7787 24.7475C93.0411 26.3926 93.967 28.2702 94.5037 30.2732L79.2514 34.3601L75.1646 19.1077Z" fill="#FF7482"/>
<defs>
<filter id="filter0_d_6_4918" x="0.135742" y="0.135742" width="154.672" height="154.672" filterUnits="userSpaceOnUse" color-interpolation-filters="sRGB">
<feFlood flood-opacity="0" result="BackgroundImageFix"/>
<feColorMatrix in="SourceAlpha" type="matrix" values="0 0 0 0 0 0 0 0 0 0 0 0 0 0 0 0 0 0 127 0" result="hardAlpha"/>
<feMorphology radius="20" operator="erode" in="SourceAlpha" result="effect1_dropShadow_6_4918"/>
<feOffset dy="40"/>
<feGaussianBlur stdDeviation="35"/>
<feColorMatrix type="matrix" values="0 0 0 0 0 0 0 0 0 0 0 0 0 0 0 0 0 0 0.2 0"/>
<feBlend mode="normal" in2="BackgroundImageFix" result="effect1_dropShadow_6_4918"/>
<feBlend mode="normal" in="SourceGraphic" in2="effect1_dropShadow_6_4918" result="shape"/>
</filter>
</defs>
</svg>
