<svg width="45" height="45" viewBox="0 0 45 45" fill="none" xmlns="http://www.w3.org/2000/svg">
<mask id="mask0_10_257" style="mask-type:luminance" maskUnits="userSpaceOnUse" x="0" y="0" width="42" height="45">
<path d="M0 0H41.4727V45H0V0Z" fill="white"/>
</mask>
<g mask="url(#mask0_10_257)">
<path d="M25.8516 43.197C14.4531 43.197 5.21094 34.0233 5.21094 22.7055C5.21094 11.3876 14.4531 2.21391 25.8516 2.21391C31.7539 2.21391 37.0742 4.67212 40.8359 8.61534C36.6484 3.36547 30.1719 -0.00390625 22.9023 -0.00390625C10.2695 -0.00390625 0.03125 10.1624 0.03125 22.7055C0.03125 35.2447 10.2695 45.411 22.9023 45.411C30.1719 45.411 36.6484 42.0416 40.8359 36.7917C37.0742 40.7349 31.7539 43.197 25.8516 43.197Z" fill="#4A95CF"/>
</g>
<mask id="mask1_10_257" style="mask-type:luminance" maskUnits="userSpaceOnUse" x="11" y="3" width="34" height="34">
<path d="M11.4727 3.86572H45V36.6212H11.4727V3.86572Z" fill="white"/>
</mask>
<g mask="url(#mask1_10_257)">
<path d="M26.4531 4.31543C20.8047 4.31543 15.75 6.82405 12.3516 10.7828C15.6641 7.70807 20.1133 5.8237 25.0039 5.8237C35.2305 5.8237 43.5234 14.0552 43.5234 24.2099C43.5234 28.758 41.8594 32.9222 39.1055 36.1287C42.7148 32.7748 44.9727 28.0019 44.9727 22.7055C44.9727 12.5469 36.6797 4.31543 26.4531 4.31543Z" fill="#393536"/>
</g>
</svg>
