<svg width="150" height="151" viewBox="0 0 150 151" fill="none" xmlns="http://www.w3.org/2000/svg">
<g id="send">
<path id="Vector 1962" d="M124.45 26.2616L133.091 32.2941C135.779 34.1702 135.193 38.3048 132.09 39.3607L122.309 42.6896C119.102 43.781 116.075 40.6411 117.283 37.4763L118.31 34.7846C118.544 34.1733 118.624 33.5139 118.543 32.8645L118.191 30.0349C117.764 26.5977 121.61 24.2789 124.45 26.2616Z" fill="#FFBB24"/>
<path id="Vector 1964" opacity="0.2" d="M115.787 33.54C56.4053 28.5596 13.0948 71.4271 48.7376 100.589C61.3802 110.933 77.0876 109.784 86.6653 100.206C97.3923 89.4793 98.9248 71.8563 88.1977 61.1293C64.445 37.3766 6.59569 62.2786 48.3545 149.244" stroke="#F15060" stroke-width="2" stroke-linecap="round" stroke-dasharray="5.2 5.2"/>
</g>
</svg>
